<svg width="225" height="268" viewBox="0 0 225 268" fill="none" xmlns="http://www.w3.org/2000/svg">
<g clip-path="url(#clip0_694_1153)">
<path d="M140.44 124.86L142.18 127.97L143.68 129.89L146.14 131.82H150.37L153.62 129.3L155.63 125.02L152.85 123.35L149.76 123.67L147.32 122.35L143.96 121.56L140.44 124.86Z" fill="#BC6981"/>
<path d="M58.44 57.9999L50.11 63.5399L45.22 55.4399L39.68 51.2199L33.17 50.0599L27.99 50.5099L20.16 54.0099L15.88 58.2999L13.25 62.9999V70.6599L16.43 76.2399C16.43 76.2399 19.61 79.4199 21.04 79.0999C22.47 78.7799 28.61 81.2499 28.61 81.2499L34.45 80.6199L31.67 87.3299L28.61 98.2799L30.9 110.22L33.81 117.02L38.2 122.79L48.14 131.17L60.46 137.12L77.48 140.96L92.82 141.69L110.97 138.97L126.22 134.57L139.78 127.9L155.79 115.7L162.08 106.3L167.18 93.7599C167.18 93.7599 168.07 85.2099 168.01 84.7699C167.95 84.3299 165.01 70.2099 165.01 70.2099L159.72 65.4499L156.65 60.9499L151.39 56.6399L149.52 55.4399L153.93 54.0199L162.28 46.8899L163.14 41.4199L161.69 35.5199L159.07 31.9599L155.59 29.9099L151.19 28.2299L146.88 27.3599L145.78 32.6999L140.9 38.4299L134.33 42.3999L132.62 42.8899L129.33 44.1399L130.59 46.6699L127.23 46.5799L121.87 45.8799L118.64 46.0899L116.34 46.6099L118.64 47.8399L125.76 49.3399L135.33 53.6799L139.14 58.2899L140.46 63.3799L138.53 68.3499L129.33 73.2799L122.1 72.3299L115.73 67.3099L112.44 62.8599L110.95 58.7499L108.79 54.3099L108.68 59.4099L108.09 66.3799L105.09 72.7299L101.08 76.2699L94.9 80.9099L87.16 79.9499L82.89 74.6599C82.89 74.6599 81.64 70.3099 81.68 70.1299C81.72 69.9499 86.63 60.1699 86.63 60.1699L90.61 55.4599L94.41 52.2499L87.68 55.1399L84.84 56.2799L77.15 58.2899L68.76 59.3999L62.56 57.9099L60.05 56.8799L58.39 58.0199L58.44 57.9999Z" fill="#E3B778"/>
<path d="M81.5398 21.1701L81.0298 27.9901L84.3898 34.3401L89.9498 39.2401L92.0698 42.4401L94.9298 41.8801L97.3398 41.7201L100.28 41.7801L101.4 42.4401L104.07 40.2501L105.51 39.7001L109.48 38.0401L110.48 32.0101L111.09 24.9801L109.22 19.4701L106.14 15.2801C106.14 15.2801 102.11 12.6701 101.59 12.9101C101.07 13.1501 97.7898 11.1401 97.7898 11.1401C97.7898 11.1401 92.1398 11.6401 92.9498 12.1201C93.2298 12.2901 88.9898 13.5401 88.9898 13.5401L86.2898 14.8501L85.2098 16.1301L82.7798 18.4401L82.0098 20.0701L81.5498 21.1701H81.5398Z" fill="#EE342A"/>
<path d="M109.46 38.0302L113.23 32.6202L118.32 26.9902L122.19 23.4902L126.81 21.6102L132.66 19.6602L141.89 21.2302L145.59 24.4802L147.42 27.5102L146.15 31.0302L144.21 34.2802L141.19 38.1702L136.8 40.8202L133.24 43.2302L123.97 45.2902L120.68 45.1902L114.43 45.8602L112.77 44.4102L111.76 44.0502L111.69 41.1202L110.6 40.4902L109.71 39.0202L109.46 38.0302Z" fill="#F68932"/>
<path d="M113.13 46.6601L117.87 47.2501L122.1 48.7701L129.11 50.7901L138.2 55.2201L140.6 59.1501L140.3 63.5201L138.37 68.4901L135.01 70.9501L129.95 73.1201L126.29 73.4401L122.81 72.8901L119.96 71.5301L115.56 67.4401L111.78 60.9001L110.18 56.6901L109.08 53.3701L108.68 51.5801C108.68 51.5801 112.05 48.8101 111.73 48.4101C111.41 48.0101 113.11 46.6401 113.11 46.6401L113.13 46.6601Z" fill="#F3D63F"/>
<path d="M99.4699 48.3198L97.1299 50.2398L94.4499 52.7198L90.9099 55.1798L86.9299 59.8898L83.3099 66.3598L81.8799 69.5098L81.6899 73.0298L83.7399 76.4398L86.1399 79.0298L90.4699 81.0298L95.1999 80.6298L97.4399 79.8898L105.69 73.5298L108.83 61.8598L107.96 51.4098L105.18 51.8598L101 48.9498" fill="#6EBE45"/>
<path d="M87.4099 40.7498L92.8899 42.8398L93.0899 45.3998L94.5199 47.3398L97.5899 50.1598L93.8699 52.6098L91.5499 53.4598L87.7599 54.7498L84.1299 56.2198L81.3499 57.2098L73.2499 59.5298L69.6699 59.4498L65.8199 59.0898L62.1799 58.0298L58.9899 57.0098L56.4799 54.1598L54.8999 49.4898L55.6999 45.0698L56.5899 42.9098L61.0499 39.5098L65.9399 37.8198L72.5599 37.8298L78.3699 38.5798L81.4299 38.7098L85.5499 40.3098L87.4099 40.7498Z" fill="#A881B0"/>
<path d="M153.5 35.1299L149.68 34.4599L146.48 32.6699" fill="#81644E"/>
<path d="M27.9201 59.15L32.7001 57.79L36.3101 58.04L40.0401 60.01L43.4401 63.95L45.5701 68.3L41.8601 71.12L39.0701 74.41L36.9601 77.25L34.8501 78.1L33.4401 77.63L30.5001 76.87L26.6301 75.67L23.1301 72.78L21.3101 69.29V66.24L22.5601 63.13L23.1701 61.4L27.9201 59.15Z" fill="#81644E"/>
<path d="M156.59 39.6799L155.65 43.4499L154.71 45.8599L151.73 48.6699L147.42 50.7599L145.43 51.4499L144.21 51.8599L142.74 50.9799L138.27 49.7399L136.54 48.6699L135.72 45.7199L134.99 44.7199L135.47 42.4399L138.94 39.9399L140.93 38.4299L143.44 35.7799L146.07 32.4399L150.1 32.8299L155.38 35.6599L156.59 39.6799Z" fill="#81644E"/>
<path d="M155.83 115.47L178.98 120.32L191.51 127.11C191.51 127.11 202.39 135.51 202.82 135.94C203.25 136.37 212.64 151.32 212.64 151.32L213.35 162.9L211.54 174.78L207.43 181.5L211.02 190.01L210.61 203.44L207.17 213.56L199.7 224.9L189.95 233.12L176.25 238H161.35L146.57 236.22L136.04 238L126.82 242.49L116.83 249.23L109.9 252.81L102.73 254.66L93.91 255.59L82.33 253.43L73.89 249.14L63.86 242.5L58.45 234.9L55.44 227.62L55.06 220.79L56.39 215.08L52.25 212.73L47.47 208.02L44.41 203.28L41.21 190.78L41.45 181.52L43.46 173.85L45.11 169.6L50.69 159.03L55.91 152.14L60.76 147.16L64.93 143.68L69.33 139.76L82.34 141.34L95.96 141.56L115.85 137.85L126.26 134.36L135.67 130.22L141.98 126.39C141.98 126.39 145.41 123.45 146.31 123.21C147.21 122.97 155.84 115.5 155.84 115.5L155.83 115.47Z" fill="#E3B778"/>
<path d="M187.12 179.88L189.73 180.48L191.6 182.13L195.34 181.87L197.89 182.55L198.53 184.44L196.65 187.41L188.74 189.01L184.63 185.53L184.35 182.57L187.12 179.88Z" fill="#BC6981"/>
<path d="M68.7298 211.61L71.0998 210.78L72.1998 210.85C73.0598 210.66 73.8198 210.16 74.3398 209.45L75.6298 207.68L77.8198 206.51L79.7898 206.94L81.1398 210.15L80.3898 213.57L77.4698 216.45L72.6898 216.78L69.6598 215.58L68.2998 214.14L68.7398 211.62L68.7298 211.61Z" fill="#BC6981"/>
<path d="M202.32 190.01L203 192.43L205.47 193.23L205.61 194.68L203.18 195.72L200.19 195.54L198.75 192.98L199.08 190.96L200.59 190.01H202.32Z" fill="#BC6981"/>
<path d="M62.0498 226.3L62.9898 225.61L63.2798 224.32L64.3998 221.8L64.7998 221.34L66.9798 222.78L68.2898 225.27L66.5998 227.7L64.4598 228.83L62.3698 227.99L62.0498 226.3Z" fill="#BC6981"/>
<path d="M91.3101 206.54L92.9701 208.51L94.4101 207.69L95.8601 207.95L96.6101 208.67L96.3301 209.61L94.5501 211.45L91.7301 212.39L89.3101 210.58L88.3301 208.48L89.4601 206.65L91.3101 206.54Z" fill="#BC6981"/>
<path d="M170.44 185.53H172.54L173.95 183.95L176.02 184.27L176.43 186.69L174.69 188.45L171.71 189.43L169.65 188.45L168.65 186.37L170.44 185.53Z" fill="#BC6981"/>
<path d="M177.72 193.98H185.35L191.47 198.08L194.8 203.25L195.63 210.58L192.85 218.43L187.3 225.08L181.33 228.83L173.83 230.78L163.85 228.52L157.44 221.65V214.48L159.88 206.96L166.82 198.75L174.25 194.76L177.72 193.98Z" fill="#BC6981"/>
<path d="M143.13 151.5L143.86 153.75L139.11 157.06L132.7 159.94L123.22 162.87L112.72 164.93L103.5 165.73L98.04 165.34L94.77 163.84L96.76 160.06L105.09 155.65L114.44 152.6L124.48 150.22L135.86 149.17L141.78 150.76L143.13 151.5Z" fill="#BC6981"/>
<path d="M75.8098 233.81L74.5898 227.43L77.8298 221.63L82.5998 217.98L90.0098 216.46L98.0598 217.61L105.82 221.16L111.03 224.93L114.23 230.86L114.78 235.9L113.49 239.58L111.44 242.85L107.46 246.09L100.15 247.81L91.3498 247.3L82.4398 242.11L77.1599 236.58L75.8098 233.81Z" fill="#BC6981"/>
<path d="M106.19 154.02L111.65 156.92C111.65 156.92 111.73 156.96 111.77 156.99L117.56 160.6L117.99 160.86C118.85 161.38 121.31 162.69 121.01 163.5C120.83 163.99 118.25 164.11 117.69 164.32C117.53 164.38 117.37 164.42 117.2 164.44L113.21 164.87C112.88 164.91 112.55 164.86 112.25 164.73L109.46 163.56C109.32 163.5 109.2 163.43 109.08 163.34L105.64 160.85L101.47 157.67C101.35 157.58 101.23 157.5 101.09 157.44C100.19 157.04 96.5899 155.43 96.3099 155.09C95.9899 154.69 92.8699 152.33 92.8299 152.13C92.7999 152.01 93.0699 151.05 93.2899 150.3C93.4599 149.72 93.8799 149.26 94.4399 149.04L95.5799 148.59C95.8799 148.47 96.2099 148.43 96.5299 148.47L98.0199 148.66C98.3699 148.7 98.6999 148.84 98.9799 149.06L102.1 151.53C102.16 151.58 102.23 151.63 102.3 151.67L106.1 153.96C106.1 153.96 106.16 154 106.19 154.01V154.02Z" fill="#231F20"/>
<path d="M98.4199 110.96L100.94 112.41L102.87 113.15L105.65 113.55L109.4 112.04L111.49 109.2L111.93 105.62L108.94 105.51L106.31 106.82L103.91 107.65L100.51 107.5L98.8099 108.6L98.4199 110.96Z" fill="#BC6981"/>
<path d="M100.48 122.83L103.62 125.67L106.07 126.72L109.65 127.38L114.63 125.63L118.1 122.31L118.83 118L114.63 116.7L111.87 117.89L109.83 119.9L103.45 119.36L100.48 122.83Z" fill="#EE1E3A"/>
<path d="M92.0601 42.44L94.9901 47.72L97.4401 49.78L101.22 51.68L107.96 51.41L112.2 48L114.43 42.98L113.05 39.29L111.07 38.31L107.28 38.21L104.04 40.79L101.04 39.9L96.0301 40.18L92.0601 42.44Z" fill="#BC6981"/>
<path d="M121.3 45.52C143.76 48.45 161.07 59.26 166.51 75.91C174.72 101.03 151.04 129.03 113.63 138.44C76.2198 147.85 39.2298 135.11 31.0198 109.99C24.7398 90.75 37.1398 69.83 60.0998 56.86C60.4898 56.64 56.5998 58.88 57.0098 58.7" stroke="#000100" stroke-miterlimit="10"/>
<path d="M81.3983 100.552C82.1333 97.5135 80.2357 94.4473 77.1599 93.7032C74.084 92.959 70.9947 94.8188 70.2596 97.8571C69.5246 100.895 71.4222 103.962 74.498 104.706C77.5739 105.45 80.6633 103.59 81.3983 100.552Z" fill="#231F20" stroke="#000100" stroke-miterlimit="10"/>
<path d="M132.91 90.2271C133.645 87.1888 131.747 84.1226 128.672 83.3785C125.596 82.6343 122.506 84.4941 121.771 87.5324C121.036 90.5707 122.934 93.6369 126.01 94.3811C129.086 95.1252 132.175 93.2654 132.91 90.2271Z" fill="#231F20" stroke="#000100" stroke-miterlimit="10"/>
<path d="M120.11 101.22L120.49 101.64L120.59 101.72L120.71 101.77L120.84 101.79C120.91 101.79 120.97 101.78 121.03 101.75C121.07 101.74 121.11 101.72 121.14 101.69C121.18 101.67 121.21 101.64 121.23 101.6C121.26 101.57 121.28 101.53 121.29 101.49C121.32 101.43 121.34 101.37 121.33 101.3C121.33 101.22 121.32 101.14 121.29 101.07C121.26 101 121.24 100.92 121.2 100.85C121.16 100.78 121.11 100.72 121.06 100.66C121.03 100.63 121.01 100.6 120.98 100.57C120.92 100.52 120.86 100.47 120.79 100.43C120.72 100.39 120.64 100.36 120.57 100.33C120.45 100.28 120.32 100.27 120.2 100.26C120.13 100.26 120.07 100.27 120.01 100.3C119.95 100.32 119.89 100.35 119.85 100.4C119.76 100.5 119.7 100.62 119.7 100.75C119.7 100.86 119.73 100.97 119.79 101.07C119.85 101.17 119.92 101.23 120.01 101.29C120.02 101.29 120.03 101.3 120.05 101.31C120.1 101.33 120.15 101.36 120.2 101.37C120.27 101.39 120.34 101.4 120.41 101.4C120.55 101.4 120.7 101.37 120.82 101.3C120.87 101.28 120.91 101.24 120.95 101.21C120.96 101.21 120.97 101.19 120.98 101.18C121.05 101.1 121.12 101 121.14 100.9C121.16 100.83 121.16 100.77 121.14 100.7C121.14 100.63 121.12 100.57 121.08 100.51C121.01 100.4 120.91 100.32 120.78 100.28C120.5 100.19 120.19 100.29 119.98 100.5C119.77 100.71 119.68 101 119.76 101.28C119.77 101.33 119.8 101.38 119.82 101.43C119.82 101.44 119.83 101.46 119.84 101.47C119.91 101.58 119.97 101.63 120.07 101.7C120.19 101.78 120.34 101.82 120.49 101.82C120.74 101.82 121 101.72 121.17 101.54C121.27 101.44 121.35 101.31 121.38 101.18C121.4 101.11 121.41 101.04 121.4 100.97C121.4 100.84 121.37 100.76 121.31 100.65C121.21 100.44 120.98 100.29 120.76 100.24C120.66 100.22 120.55 100.2 120.45 100.21C120.38 100.21 120.31 100.22 120.24 100.24C120.17 100.26 120.1 100.29 120.04 100.32C120.01 100.33 119.99 100.35 119.97 100.36C119.88 100.43 119.79 100.5 119.73 100.6C119.67 100.7 119.64 100.82 119.65 100.94C119.66 101.06 119.68 101.18 119.76 101.28C119.8 101.33 119.83 101.38 119.87 101.42C119.9 101.45 119.95 101.48 119.99 101.51C120.03 101.53 120.07 101.55 120.12 101.57C120.21 101.59 120.3 101.59 120.39 101.57C120.46 101.56 120.54 101.52 120.6 101.49C120.72 101.42 120.84 101.3 120.9 101.18C120.93 101.12 120.96 101.05 120.98 100.97C120.98 100.92 121 100.85 121 100.79C121 100.73 120.99 100.68 120.98 100.62C120.97 100.55 120.94 100.48 120.9 100.42C120.83 100.31 120.76 100.25 120.66 100.17C120.6 100.13 120.54 100.11 120.47 100.11C120.4 100.1 120.34 100.1 120.27 100.11C120.15 100.14 120.03 100.23 119.97 100.34C119.91 100.46 119.88 100.6 119.92 100.73L119.97 100.85C120.01 100.93 120.07 100.98 120.15 101.03C120.15 101.03 120.15 101.03 120.16 101.03L120.06 100.95C120.06 100.95 120.09 100.97 120.1 100.99L120.02 100.89C120.02 100.89 120.04 100.92 120.05 100.94L120 100.82C120 100.82 120.01 100.86 120.02 100.88L120 100.75C120 100.75 120 100.8 120 100.82L120.02 100.69C120.02 100.69 120.01 100.74 120 100.77L120.05 100.65C120.05 100.65 120.03 100.7 120.01 100.72L120.09 100.62C120.09 100.62 120.06 100.65 120.04 100.67L120.14 100.59C120.14 100.59 120.1 100.62 120.08 100.63L120.2 100.58C120.2 100.58 120.15 100.6 120.13 100.6L120.52 100.65C120.52 100.65 120.5 100.64 120.49 100.63L120.59 100.71C120.59 100.71 120.56 100.69 120.55 100.68L120.63 100.78C120.63 100.78 120.61 100.75 120.6 100.74L120.65 100.86C120.65 100.86 120.64 100.83 120.64 100.81L120.66 100.94C120.66 100.94 120.66 100.91 120.66 100.89L120.64 101.02C120.64 101.02 120.64 101 120.65 100.98L120.6 101.1C120.6 101.1 120.55 101.16 120.52 101.2C120.54 101.18 120.55 101.16 120.57 101.15L120.47 101.23C120.47 101.23 120.52 101.19 120.55 101.18L120.43 101.23C120.43 101.23 120.51 101.2 120.55 101.2L120.42 101.22C120.42 101.22 120.52 101.22 120.56 101.22L120.43 101.2C120.43 101.2 120.52 101.22 120.56 101.23L120.44 101.18C120.44 101.18 120.5 101.21 120.53 101.23L120.43 101.15C120.43 101.15 120.47 101.18 120.49 101.2L120.41 101.1C120.41 101.1 120.43 101.13 120.44 101.15L120.39 101.03C120.39 101.03 120.4 101.07 120.41 101.09L120.39 100.96C120.39 100.96 120.39 101 120.39 101.02L120.41 100.89C120.41 100.89 120.41 100.93 120.39 100.95L120.44 100.83C120.44 100.83 120.41 100.88 120.4 100.9L120.48 100.8C120.48 100.8 120.43 100.85 120.41 100.87L120.51 100.79C120.51 100.79 120.45 100.83 120.41 100.85L120.53 100.8C120.53 100.8 120.46 100.83 120.42 100.83L120.55 100.81C120.55 100.81 120.48 100.81 120.44 100.81L120.57 100.83C120.57 100.83 120.52 100.82 120.49 100.81L120.61 100.86C120.61 100.86 120.57 100.84 120.55 100.83L120.65 100.91C120.65 100.91 120.62 100.88 120.61 100.87L120.69 100.97C120.69 100.97 120.67 100.94 120.66 100.93L120.71 101.05C120.71 101.05 120.7 101.01 120.69 101L120.71 101.13C120.71 101.13 120.71 101.08 120.71 101.06L120.69 101.19C120.69 101.19 120.7 101.14 120.71 101.11L120.66 101.23C120.66 101.23 120.69 101.17 120.71 101.14L120.63 101.24C120.63 101.24 120.67 101.19 120.7 101.17L120.6 101.25C120.6 101.25 120.65 101.22 120.67 101.21L120.55 101.26C120.55 101.26 120.6 101.24 120.62 101.24L120.49 101.26C120.49 101.26 120.54 101.26 120.56 101.26L120.43 101.24C120.43 101.24 120.46 101.24 120.48 101.25L120.13 100.63C120.13 100.63 120.13 100.65 120.13 100.66L120.18 100.54C120.18 100.54 120.17 100.56 120.16 100.57L120.24 100.47C120.24 100.47 120.22 100.49 120.21 100.5L120.31 100.42C120.31 100.42 120.28 100.44 120.27 100.44L120.39 100.39C120.39 100.39 120.34 100.41 120.32 100.41L120.45 100.39C120.45 100.39 120.39 100.39 120.36 100.39L120.49 100.41C120.49 100.41 120.44 100.4 120.41 100.39L120.53 100.44C120.53 100.44 120.5 100.42 120.48 100.41L120.58 100.49C120.58 100.49 120.56 100.47 120.55 100.46L120.63 100.56C120.63 100.56 120.62 100.54 120.61 100.53L120.66 100.65C120.66 100.65 120.66 100.63 120.66 100.62L120.68 100.75C120.68 100.75 120.68 100.74 120.68 100.73L120.18 101.23C120.18 101.23 120.22 101.23 120.24 101.23L120.11 101.21C120.17 101.21 120.23 101.24 120.29 101.26L120.17 101.21C120.23 101.23 120.28 101.27 120.33 101.3L120.23 101.22C120.23 101.22 120.31 101.3 120.35 101.34L120.27 101.24C120.27 101.24 120.32 101.32 120.34 101.36L120.29 101.24C120.29 101.24 120.32 101.32 120.32 101.36L120.3 101.23C120.3 101.23 120.3 101.24 120.3 101.25L121.15 100.9L120.77 100.48C120.77 100.48 120.67 100.4 120.61 100.38C120.55 100.35 120.49 100.33 120.42 100.34C120.3 100.34 120.15 100.39 120.07 100.49C119.99 100.59 119.92 100.71 119.92 100.84L119.94 100.97C119.96 101.05 120.01 101.13 120.07 101.19L120.11 101.22Z" fill="#000100"/>
<path d="M138.19 104.02L138.42 104.74C138.44 104.82 138.49 104.9 138.55 104.96C138.6 105.01 138.65 105.04 138.71 105.06C138.77 105.09 138.83 105.11 138.9 105.1C138.99 105.1 139.07 105.08 139.15 105.03C139.26 104.95 139.35 104.87 139.42 104.75C139.49 104.63 139.51 104.52 139.53 104.38C139.55 104.16 139.45 103.94 139.31 103.79C139.22 103.7 139.08 103.64 138.96 103.64C138.84 103.64 138.69 103.69 138.61 103.79C138.53 103.89 138.46 104.01 138.46 104.14C138.46 104.27 138.51 104.39 138.61 104.49C138.61 104.49 138.62 104.5 138.63 104.51L138.55 104.41C138.55 104.41 138.58 104.45 138.59 104.47L138.54 104.35C138.54 104.35 138.56 104.4 138.56 104.43L138.54 104.3C138.54 104.3 138.54 104.35 138.54 104.38L138.56 104.25C138.56 104.25 138.55 104.3 138.54 104.33L138.59 104.21C138.59 104.21 138.57 104.25 138.55 104.27L138.63 104.17C138.63 104.17 138.59 104.21 138.57 104.23L138.67 104.15C138.91 104.26 139.16 104.36 139.4 104.45L139.17 103.73C139.13 103.61 139.05 103.5 138.94 103.43C138.88 103.39 138.82 103.37 138.75 103.37C138.68 103.36 138.62 103.36 138.55 103.37C138.43 103.41 138.31 103.48 138.25 103.6C138.19 103.72 138.16 103.86 138.2 103.99L138.19 104.02Z" fill="#000100"/>
<path d="M145.8 97.8102L145.66 97.9402L145.59 98.0002C145.59 98.0002 145.57 98.0202 145.56 98.0302C145.5 98.0902 145.45 98.1702 145.43 98.2502C145.4 98.3602 145.41 98.4101 145.43 98.5201C145.43 98.5301 145.43 98.5502 145.44 98.5602C145.46 98.6002 145.47 98.6502 145.5 98.6902C145.5 98.6902 145.5 98.7002 145.51 98.7102C145.58 98.8002 145.64 98.8702 145.74 98.9302C145.99 99.0702 146.31 99.0702 146.56 98.9302C146.66 98.8702 146.73 98.8001 146.8 98.7001C146.87 98.6001 146.89 98.4902 146.89 98.3702C146.89 98.3002 146.88 98.2402 146.85 98.1802C146.83 98.1202 146.8 98.0601 146.75 98.0201C146.7 97.9701 146.65 97.9402 146.59 97.9202C146.53 97.8902 146.47 97.8701 146.4 97.8801L146.27 97.9002C146.19 97.9202 146.11 97.9702 146.05 98.0302L145.97 98.1301C145.92 98.2101 145.9 98.2901 145.9 98.3801C145.9 98.3801 145.9 98.3802 145.9 98.3902L145.92 98.2602C145.92 98.2602 145.92 98.2802 145.92 98.2902L145.97 98.1702C145.97 98.1702 145.96 98.1901 145.95 98.2001L146.03 98.1002C146.03 98.1002 146.01 98.1201 146 98.1301L146.1 98.0502C146.1 98.0502 146.07 98.0702 146.05 98.0802L146.17 98.0302C146.17 98.0302 146.12 98.0502 146.09 98.0502L146.22 98.0302C146.22 98.0302 146.15 98.0302 146.12 98.0302L146.25 98.0502C146.25 98.0502 146.2 98.0402 146.17 98.0302L146.29 98.0802C146.29 98.0802 146.26 98.0602 146.24 98.0502L146.34 98.1301C146.34 98.1301 146.32 98.1102 146.31 98.1002L146.39 98.2001C146.39 98.2001 146.38 98.1802 146.37 98.1702L146.42 98.2902C146.42 98.2902 146.42 98.2702 146.41 98.2502L146.43 98.3801C146.38 98.4901 146.33 98.6102 146.28 98.7302L146.52 98.5102C146.52 98.5102 146.6 98.4102 146.62 98.3502C146.65 98.2902 146.67 98.2302 146.66 98.1602C146.66 98.0902 146.65 98.0302 146.62 97.9702C146.6 97.9102 146.57 97.8502 146.52 97.8102L146.42 97.7302C146.34 97.6802 146.26 97.6602 146.17 97.6602L146.04 97.6802C145.96 97.7002 145.88 97.7502 145.82 97.8102H145.8Z" fill="#000100"/>
<path d="M136.69 97.5099L136.55 97.6399L136.48 97.6999C136.48 97.6999 136.46 97.7199 136.45 97.7299C136.39 97.7899 136.34 97.8699 136.32 97.9499C136.29 98.0599 136.3 98.1099 136.32 98.2199C136.32 98.2299 136.32 98.2499 136.33 98.2599C136.35 98.2999 136.36 98.3499 136.39 98.3899C136.39 98.3899 136.39 98.3999 136.4 98.4099C136.47 98.4999 136.53 98.5699 136.63 98.6299C136.88 98.7699 137.2 98.7699 137.45 98.6299C137.55 98.5699 137.62 98.4999 137.69 98.3999C137.76 98.2999 137.78 98.1899 137.78 98.0699C137.78 97.9999 137.77 97.9399 137.74 97.8799C137.72 97.8199 137.69 97.7599 137.64 97.7199C137.59 97.6699 137.54 97.6399 137.48 97.6199C137.42 97.5899 137.36 97.5699 137.29 97.5799L137.16 97.5999C137.08 97.6199 137 97.6699 136.94 97.7299L136.86 97.8299C136.81 97.9099 136.79 97.9899 136.79 98.0799C136.79 98.0799 136.79 98.0799 136.79 98.0899L136.81 97.9599C136.81 97.9599 136.81 97.9799 136.81 97.9899L136.86 97.8699C136.86 97.8699 136.85 97.8899 136.84 97.8999L136.92 97.7999C136.92 97.7999 136.9 97.8199 136.89 97.8299L136.99 97.7499C136.99 97.7499 136.96 97.7699 136.94 97.7799L137.06 97.7299C137.06 97.7299 137.01 97.7499 136.98 97.7499L137.11 97.7299C137.11 97.7299 137.04 97.7299 137.01 97.7299L137.14 97.7499C137.14 97.7499 137.09 97.7399 137.06 97.7299L137.18 97.7799C137.18 97.7799 137.15 97.7599 137.13 97.7499L137.23 97.8299C137.23 97.8299 137.21 97.8099 137.2 97.7999L137.28 97.8999C137.28 97.8999 137.27 97.8799 137.26 97.8699L137.31 97.9899C137.31 97.9899 137.31 97.9699 137.3 97.9499L137.32 98.0799C137.27 98.1899 137.22 98.3099 137.17 98.4299L137.41 98.2099C137.41 98.2099 137.49 98.1099 137.51 98.0499C137.54 97.9899 137.56 97.9299 137.55 97.8599C137.55 97.7899 137.54 97.7299 137.51 97.6699C137.49 97.6099 137.46 97.5499 137.41 97.5099L137.31 97.4299C137.23 97.3799 137.15 97.3599 137.06 97.3599L136.93 97.3799C136.85 97.3999 136.77 97.4499 136.71 97.5099H136.69Z" fill="#000100"/>
<path d="M120.09 108.32L119.95 108.45L119.88 108.51C119.88 108.51 119.86 108.53 119.85 108.54C119.79 108.6 119.74 108.68 119.72 108.76C119.69 108.87 119.7 108.92 119.72 109.03C119.72 109.04 119.72 109.06 119.73 109.07C119.75 109.11 119.76 109.16 119.79 109.2C119.79 109.2 119.79 109.21 119.8 109.22C119.87 109.31 119.93 109.38 120.03 109.44C120.28 109.58 120.6 109.58 120.85 109.44C120.95 109.38 121.02 109.31 121.09 109.21C121.16 109.11 121.18 109 121.18 108.88C121.18 108.81 121.17 108.75 121.14 108.69C121.12 108.63 121.09 108.57 121.04 108.53C120.99 108.48 120.94 108.45 120.88 108.43C120.82 108.4 120.76 108.38 120.69 108.39L120.56 108.41C120.48 108.43 120.4 108.48 120.34 108.54L120.26 108.64C120.21 108.72 120.19 108.8 120.19 108.89C120.19 108.89 120.19 108.89 120.19 108.9L120.21 108.77C120.21 108.77 120.21 108.79 120.21 108.8L120.26 108.68C120.26 108.68 120.25 108.7 120.24 108.71L120.32 108.61C120.32 108.61 120.3 108.63 120.29 108.64L120.39 108.56C120.39 108.56 120.36 108.58 120.34 108.59L120.46 108.54C120.46 108.54 120.41 108.56 120.38 108.56L120.51 108.54C120.51 108.54 120.44 108.54 120.41 108.54L120.54 108.56C120.54 108.56 120.49 108.55 120.46 108.54L120.58 108.59C120.58 108.59 120.55 108.57 120.53 108.56L120.63 108.64C120.63 108.64 120.61 108.62 120.6 108.61L120.68 108.71C120.68 108.71 120.67 108.69 120.66 108.68L120.71 108.8C120.71 108.8 120.71 108.78 120.7 108.76L120.72 108.89C120.67 109 120.62 109.12 120.57 109.24L120.81 109.02C120.81 109.02 120.89 108.92 120.91 108.86C120.94 108.8 120.96 108.74 120.95 108.67C120.95 108.6 120.94 108.54 120.91 108.48C120.89 108.42 120.86 108.36 120.81 108.32L120.71 108.24C120.63 108.19 120.55 108.17 120.46 108.17L120.33 108.19C120.25 108.21 120.17 108.26 120.11 108.32H120.09Z" fill="#000100"/>
<path d="M128.08 103.26L128.14 103.64C128.16 103.72 128.21 103.8 128.27 103.86C128.32 103.91 128.37 103.94 128.43 103.96C128.58 104.02 128.74 104.01 128.87 103.93C129.17 103.76 129.38 103.43 129.38 103.07C129.38 102.96 129.34 102.85 129.27 102.77C129.21 102.69 129.11 102.61 129.01 102.59C128.92 102.57 128.83 102.56 128.74 102.57C128.59 102.59 128.51 102.61 128.37 102.67C128.29 102.71 128.22 102.76 128.16 102.82C128.1 102.88 128.04 102.95 128 103.01C127.9 103.15 127.86 103.32 127.84 103.48C127.84 103.56 127.84 103.65 127.86 103.73C127.87 103.79 127.9 103.84 127.93 103.9C127.93 103.92 127.95 103.94 127.96 103.96C127.99 104.01 128.03 104.06 128.07 104.1C128.07 104.1 128.09 104.11 128.09 104.12C128.16 104.18 128.18 104.2 128.26 104.23C128.35 104.27 128.43 104.28 128.52 104.26C128.57 104.26 128.61 104.25 128.66 104.23C128.72 104.21 128.79 104.18 128.85 104.14C128.97 104.06 129.05 103.98 129.13 103.86C129.14 103.84 129.16 103.82 129.17 103.79C129.2 103.73 129.23 103.67 129.24 103.6C129.27 103.47 129.27 103.34 129.24 103.2C129.21 103.06 129.14 102.96 129.05 102.86C129.03 102.84 129.01 102.82 128.99 102.81C128.94 102.77 128.89 102.72 128.83 102.69C128.75 102.64 128.65 102.6 128.56 102.59C128.41 102.56 128.3 102.56 128.15 102.59C128.12 102.59 128.1 102.6 128.08 102.61C128.02 102.63 127.96 102.66 127.9 102.69C127.75 102.78 127.62 102.91 127.54 103.06C127.37 103.36 127.36 103.75 127.54 104.05C127.72 104.35 128.08 104.53 128.43 104.52C128.62 104.52 128.78 104.47 128.95 104.39C128.99 104.37 129.04 104.35 129.08 104.32C129.15 104.27 129.22 104.22 129.28 104.16C129.34 104.1 129.39 104.03 129.42 103.96C129.48 103.83 129.51 103.74 129.52 103.59C129.52 103.57 129.52 103.54 129.52 103.52C129.52 103.46 129.51 103.39 129.49 103.32C129.46 103.24 129.43 103.15 129.38 103.08C129.28 102.93 129.14 102.79 128.98 102.71C128.82 102.63 128.62 102.56 128.42 102.57C128.32 102.57 128.22 102.58 128.13 102.61C128.01 102.65 127.9 102.73 127.83 102.84C127.76 102.95 127.74 103.11 127.78 103.23C127.82 103.35 127.89 103.47 128.01 103.53C128.13 103.59 128.26 103.62 128.4 103.58C128.43 103.58 128.46 103.57 128.49 103.56L128.36 103.58C128.36 103.58 128.46 103.58 128.51 103.58L128.38 103.56C128.44 103.56 128.49 103.58 128.55 103.6L128.43 103.55C128.48 103.57 128.53 103.6 128.58 103.64L128.48 103.56C128.48 103.56 128.56 103.63 128.59 103.67L128.51 103.57C128.51 103.57 128.56 103.64 128.57 103.68L128.52 103.56C128.52 103.56 128.54 103.63 128.55 103.67L128.53 103.54C128.53 103.54 128.53 103.61 128.53 103.64L128.55 103.51C128.55 103.51 128.54 103.57 128.53 103.6L128.58 103.48C128.58 103.48 128.55 103.54 128.53 103.57L128.61 103.47C128.61 103.47 128.55 103.54 128.52 103.56L128.62 103.48C128.62 103.48 128.53 103.54 128.47 103.56L128.59 103.51C128.53 103.54 128.47 103.55 128.4 103.56L128.53 103.54C128.47 103.54 128.41 103.54 128.34 103.54L128.47 103.56C128.47 103.56 128.37 103.54 128.33 103.52L128.45 103.57C128.45 103.57 128.38 103.53 128.35 103.51L128.45 103.59C128.45 103.59 128.39 103.54 128.37 103.51L128.45 103.61C128.45 103.61 128.41 103.55 128.4 103.52L128.45 103.64C128.45 103.64 128.42 103.56 128.42 103.53L128.44 103.66C128.44 103.66 128.44 103.57 128.44 103.52L128.42 103.65C128.42 103.65 128.44 103.56 128.45 103.52L128.4 103.64C128.4 103.64 128.44 103.56 128.47 103.52L128.39 103.62C128.39 103.62 128.45 103.55 128.49 103.52L128.39 103.6C128.39 103.6 128.46 103.56 128.49 103.54L128.37 103.59C128.37 103.59 128.43 103.57 128.46 103.56L128.33 103.58C128.33 103.58 128.41 103.58 128.44 103.58L128.31 103.56C128.31 103.56 128.39 103.58 128.43 103.59L128.31 103.54C128.31 103.54 128.38 103.58 128.42 103.6L128.32 103.52C128.32 103.52 128.37 103.56 128.39 103.59L128.31 103.49C128.31 103.49 128.34 103.53 128.35 103.56L128.3 103.44C128.3 103.44 128.31 103.48 128.32 103.51L128.3 103.38C128.3 103.38 128.3 103.43 128.3 103.46L128.32 103.33C128.32 103.33 128.31 103.38 128.3 103.41L128.35 103.29C128.35 103.29 128.32 103.35 128.3 103.37L128.38 103.27C128.38 103.27 128.33 103.32 128.3 103.35L128.4 103.27C128.4 103.27 128.34 103.31 128.31 103.32L128.43 103.27C128.43 103.27 128.38 103.29 128.36 103.29L128.85 103.42C128.85 103.42 128.81 103.38 128.79 103.36L128.87 103.46C128.87 103.46 128.84 103.42 128.83 103.4L128.88 103.52C128.88 103.52 128.86 103.47 128.86 103.44L128.88 103.57C128.88 103.57 128.88 103.51 128.88 103.48L128.86 103.61C128.86 103.61 128.88 103.54 128.89 103.5L128.84 103.62C128.84 103.62 128.88 103.54 128.91 103.5L128.83 103.6C128.83 103.6 128.89 103.54 128.92 103.51L128.82 103.59C128.82 103.59 128.88 103.55 128.92 103.53L128.8 103.58C128.8 103.58 128.87 103.56 128.91 103.55L128.78 103.57C128.78 103.57 128.85 103.57 128.89 103.57L128.76 103.55C128.76 103.55 128.78 103.55 128.79 103.55L128.42 103.07C128.42 103.07 128.42 103.11 128.42 103.13L128.44 103C128.44 103 128.42 103.08 128.41 103.11L128.46 102.99C128.46 102.99 128.42 103.07 128.39 103.1L128.47 103C128.47 103 128.41 103.06 128.38 103.09L128.48 103.01C128.48 103.01 128.43 103.04 128.41 103.06L129.14 103.36L129.08 102.98C129.06 102.86 128.95 102.74 128.85 102.68C128.74 102.62 128.58 102.59 128.46 102.63C128.34 102.67 128.22 102.74 128.16 102.86L128.11 102.98C128.09 103.07 128.09 103.16 128.11 103.25L128.08 103.26Z" fill="#000100"/>
<path d="M91.4702 115C91.6202 115.02 91.6602 115.03 91.8102 115C91.8802 114.99 91.9402 114.96 92.0002 114.93C92.1102 114.87 92.2202 114.76 92.2902 114.65C92.3602 114.54 92.4002 114.39 92.3902 114.26C92.3902 114.2 92.3902 114.13 92.3602 114.07C92.3202 113.96 92.2702 113.87 92.1902 113.79C92.0502 113.66 91.8602 113.58 91.6702 113.64C91.5602 113.67 91.4602 113.74 91.3802 113.81C91.2702 113.91 91.2102 114.03 91.1602 114.17C91.1402 114.24 91.1302 114.31 91.1302 114.38C91.1302 114.45 91.1302 114.53 91.1502 114.6C91.1502 114.62 91.1502 114.63 91.1602 114.64C91.1802 114.69 91.2002 114.75 91.2302 114.79C91.2502 114.82 91.2702 114.85 91.2902 114.87C91.3102 114.9 91.3302 114.93 91.3602 114.96C91.5002 115.09 91.7002 115.15 91.8902 115.09C92.0002 115.05 92.0802 115.01 92.1702 114.93C92.2602 114.85 92.3402 114.72 92.3602 114.6C92.3902 114.47 92.3902 114.34 92.3602 114.21C92.3302 114.08 92.2602 113.97 92.1602 113.88C92.0202 113.75 91.8602 113.69 91.6802 113.68C91.5402 113.68 91.3802 113.72 91.2702 113.79C91.1602 113.86 91.0402 113.97 90.9802 114.09C90.9202 114.21 90.8702 114.36 90.8902 114.5C90.9002 114.62 90.9202 114.72 90.9802 114.83C91.0202 114.89 91.0602 114.95 91.1202 115C91.2402 115.1 91.3702 115.18 91.5202 115.2C91.6802 115.23 91.8302 115.23 91.9902 115.2C92.1502 115.17 92.2802 115.08 92.4002 114.98C92.5202 114.88 92.5902 114.65 92.5302 114.49C92.4902 114.37 92.4302 114.25 92.3302 114.17C92.2802 114.13 92.2302 114.09 92.1802 114.06C92.1202 114.03 92.0602 114 91.9902 113.99C91.9202 113.98 91.8602 113.97 91.7902 113.96C91.7602 113.96 91.7302 113.96 91.7102 113.96C91.5602 113.97 91.4602 114 91.3202 114.06C91.2602 114.09 91.2102 114.13 91.1702 114.17C91.1302 114.21 91.0802 114.27 91.0502 114.32C90.9802 114.43 90.9402 114.57 90.9402 114.7C90.9402 114.97 91.1202 115.23 91.3602 115.35C91.5002 115.42 91.6302 115.46 91.7802 115.46C91.8202 115.46 91.8502 115.46 91.8902 115.45C91.9302 115.44 91.9702 115.45 92.0002 115.43C92.0502 115.41 92.1002 115.39 92.1502 115.37C92.1702 115.37 92.1802 115.35 92.2002 115.34C92.2602 115.31 92.3102 115.27 92.3402 115.21C92.3802 115.16 92.4102 115.11 92.4302 115.04C92.4602 114.92 92.4502 114.76 92.3802 114.65C92.3102 114.54 92.2102 114.45 92.0802 114.42C91.9502 114.39 91.8002 114.39 91.6902 114.47C91.6702 114.48 91.6602 114.49 91.6402 114.5L91.7602 114.45C91.7602 114.45 91.7102 114.47 91.6802 114.47L91.8102 114.45C91.8102 114.45 91.7502 114.45 91.7302 114.45L91.8602 114.47C91.8602 114.47 91.7902 114.45 91.7502 114.44L91.8702 114.49C91.8702 114.49 91.8102 114.46 91.7802 114.44L91.8802 114.52C91.8802 114.52 91.8402 114.48 91.8202 114.46L91.9002 114.56C91.9002 114.56 91.8802 114.52 91.8702 114.5L91.9202 114.62C91.9202 114.62 91.9102 114.59 91.9102 114.57L91.9302 114.7C91.9302 114.7 91.9302 114.66 91.9302 114.64L91.9102 114.77C91.9102 114.77 91.9102 114.74 91.9202 114.72L91.8702 114.84C91.8702 114.84 91.8902 114.81 91.9002 114.8L91.8202 114.9C91.8202 114.9 91.8502 114.87 91.8602 114.86L91.7602 114.94C91.7602 114.94 91.8002 114.91 91.8302 114.9L91.7102 114.95C91.7102 114.95 91.7802 114.93 91.8102 114.92L91.6802 114.94C91.6802 114.94 91.7602 114.94 91.8102 114.94L91.6802 114.92C91.6802 114.92 91.7402 114.93 91.7702 114.95L91.6502 114.9C91.6502 114.9 91.7002 114.92 91.7202 114.94L91.6202 114.86C91.6202 114.86 91.6502 114.89 91.6602 114.9L91.5802 114.8C91.5802 114.8 91.6002 114.83 91.6102 114.84L91.5602 114.72C91.5602 114.72 91.5602 114.72 91.5602 114.73L91.6902 114.24C91.6902 114.24 91.6802 114.25 91.6702 114.26L91.7702 114.18C91.7702 114.18 91.7102 114.22 91.6802 114.23L91.8002 114.18C91.8002 114.18 91.7202 114.21 91.6702 114.22L91.8002 114.2C91.8002 114.2 91.7002 114.2 91.6602 114.2L91.7902 114.22C91.7902 114.22 91.7202 114.21 91.6902 114.19L91.8102 114.24C91.8102 114.24 91.7602 114.21 91.7402 114.2L91.8402 114.28C91.8402 114.28 91.8002 114.25 91.7902 114.23L91.8702 114.33C91.8702 114.33 91.8502 114.3 91.8402 114.28L91.8902 114.4C91.8902 114.4 91.8802 114.37 91.8802 114.35L91.9002 114.48C91.9002 114.48 91.9002 114.43 91.9002 114.41L91.8802 114.54C91.8802 114.54 91.8902 114.49 91.9002 114.47L91.8502 114.59C91.8502 114.59 91.8702 114.54 91.8902 114.52L91.8102 114.62C91.8102 114.62 91.8502 114.58 91.8702 114.56L91.7702 114.64C91.7702 114.64 91.8102 114.61 91.8302 114.6L91.7102 114.65C91.7102 114.65 91.7502 114.64 91.7702 114.63L91.6402 114.65C91.6402 114.65 91.6902 114.65 91.7102 114.65L91.5802 114.63C91.5802 114.63 91.6202 114.63 91.6402 114.65L91.5202 114.6C91.5202 114.6 91.5502 114.61 91.5602 114.62L91.4602 114.54C91.4602 114.54 91.4902 114.57 91.5002 114.58L91.4202 114.48C91.4202 114.48 91.4402 114.51 91.4502 114.53L91.4002 114.41C91.4002 114.41 91.4102 114.45 91.4202 114.47L91.4002 114.34C91.4002 114.34 91.4002 114.38 91.4002 114.41L91.4202 114.28C91.4202 114.28 91.4202 114.32 91.4002 114.33L91.4502 114.21C91.4502 114.21 91.4402 114.24 91.4302 114.25L91.5102 114.15C91.5102 114.15 91.4902 114.17 91.4802 114.18L91.5802 114.1C91.5802 114.1 91.5602 114.12 91.5402 114.12L91.6602 114.07C91.6602 114.07 91.6202 114.08 91.6102 114.08L92.1002 114.21C92.1002 114.21 92.0702 114.18 92.0602 114.17L92.1402 114.27C92.1402 114.27 92.1202 114.23 92.1102 114.21L92.1602 114.33C92.1602 114.33 92.1402 114.28 92.1402 114.26L92.1602 114.39C92.1602 114.39 92.1602 114.34 92.1602 114.31L92.1402 114.44C92.1402 114.44 92.1502 114.39 92.1602 114.36L92.1102 114.48C92.1102 114.48 92.1402 114.43 92.1502 114.41L92.0702 114.51C92.0702 114.51 92.1002 114.47 92.1202 114.46L92.0202 114.54C92.0202 114.54 92.0602 114.51 92.0802 114.5H91.5802C91.5802 114.5 91.5802 114.5 91.5902 114.5L91.4902 114.42C91.4902 114.42 91.5102 114.44 91.5202 114.45L91.4402 114.35C91.4402 114.35 91.4502 114.37 91.4602 114.38L91.4102 114.26C91.4102 114.26 91.4202 114.29 91.4202 114.31L91.4002 114.18C91.4002 114.18 91.4002 114.22 91.4002 114.23L91.4202 114.1C91.4202 114.1 91.4102 114.15 91.4002 114.17L91.4502 114.05C91.4502 114.05 91.4302 114.09 91.4202 114.11L91.5002 114.01C91.5002 114.01 91.4702 114.05 91.4502 114.06L91.5502 113.98C91.5502 113.98 91.5102 114 91.4902 114.01L91.6102 113.96C91.6102 113.96 91.5702 113.97 91.5502 113.97L91.6802 113.95C91.6802 113.95 91.6402 113.95 91.6302 113.95L91.7602 113.97C91.6902 113.95 91.6302 113.94 91.5602 113.96C91.4902 113.96 91.4302 113.98 91.3702 114.02C91.2702 114.08 91.1702 114.2 91.1402 114.32C91.1102 114.45 91.1202 114.59 91.1902 114.71L91.2702 114.81C91.3302 114.87 91.4102 114.91 91.4902 114.94L91.4702 115Z" fill="#000100"/>
<path d="M87.1402 106.57C87.1402 106.57 87.1702 106.56 87.1902 106.56L87.0602 106.58C87.0602 106.58 87.1002 106.58 87.1102 106.58L86.9802 106.56C86.9802 106.56 87.0202 106.56 87.0302 106.57L86.9102 106.52C86.9102 106.52 86.9502 106.54 86.9602 106.55L86.8602 106.47C86.8602 106.47 86.8902 106.5 86.9102 106.52L86.8302 106.42C86.8302 106.42 86.8502 106.45 86.8602 106.47L86.8102 106.35C86.8102 106.35 86.8202 106.38 86.8202 106.4L86.8002 106.27C86.8002 106.27 86.8002 106.3 86.8002 106.32L86.8202 106.19C86.8202 106.19 86.8202 106.21 86.8202 106.22L86.8702 106.1C86.8702 106.1 86.8602 106.12 86.8502 106.13L86.9302 106.03C86.9302 106.03 86.9102 106.05 86.9002 106.06L87.0002 105.98C87.0002 105.98 86.9702 106 86.9602 106L87.0802 105.95C87.0802 105.95 87.0502 105.95 87.0402 105.96L87.1702 105.94C87.1702 105.94 87.1302 105.94 87.1202 105.94L87.2502 105.96C87.2502 105.96 87.2002 105.96 87.1802 105.94L87.3002 105.99C87.3002 105.99 87.2602 105.97 87.2402 105.95L87.3402 106.03C87.3402 106.03 87.3002 106 87.2902 105.98L87.3702 106.08C87.3702 106.08 87.3502 106.05 87.3402 106.04L87.3902 106.16C87.3902 106.16 87.3802 106.13 87.3802 106.11L87.4002 106.24C87.4002 106.24 87.4002 106.22 87.4002 106.21L87.3802 106.34C87.3802 106.34 87.3802 106.32 87.3802 106.31L87.3302 106.43C87.3302 106.43 87.3402 106.41 87.3502 106.39L87.2702 106.49C87.3602 106.38 87.4202 106.27 87.4202 106.13C87.4202 106.01 87.3702 105.86 87.2702 105.78C87.1702 105.7 87.0502 105.63 86.9202 105.63C86.7902 105.63 86.6602 105.68 86.5702 105.78C86.3102 106.05 86.2002 106.44 86.3002 106.81C86.3002 106.83 86.3102 106.86 86.3202 106.88C86.3402 106.94 86.3702 107 86.4002 107.06C86.4502 107.14 86.5102 107.22 86.5802 107.28C86.7102 107.39 86.8602 107.48 87.0302 107.52C87.2202 107.56 87.3802 107.56 87.5602 107.52C87.6102 107.52 87.6502 107.5 87.6902 107.48C87.7702 107.45 87.8502 107.42 87.9202 107.37C87.9702 107.33 88.0202 107.3 88.0602 107.26C88.1002 107.22 88.1402 107.17 88.1802 107.12C88.2302 107.05 88.2602 106.97 88.2902 106.89C88.3202 106.78 88.3202 106.68 88.3102 106.57C88.3002 106.46 88.2702 106.37 88.2102 106.26C88.2002 106.24 88.1802 106.22 88.1702 106.19C88.1302 106.14 88.0902 106.08 88.0502 106.04C88.0102 106 87.9502 105.95 87.8902 105.91C87.8702 105.89 87.8402 105.88 87.8202 105.87C87.6802 105.81 87.5802 105.78 87.4302 105.76C87.4002 105.76 87.3702 105.76 87.3402 105.76C87.2702 105.76 87.2002 105.77 87.1302 105.8C87.0102 105.84 86.9002 105.92 86.8302 106.03C86.7702 106.14 86.7402 106.3 86.7802 106.42C86.8202 106.54 86.8902 106.66 87.0102 106.72C87.1302 106.78 87.2702 106.81 87.4002 106.77C87.4302 106.77 87.4502 106.76 87.4802 106.75L87.3502 106.77C87.3502 106.77 87.4202 106.77 87.4502 106.77L87.3202 106.75C87.3202 106.75 87.3902 106.77 87.4202 106.78L87.3002 106.73C87.3002 106.73 87.3802 106.77 87.4102 106.8L87.3102 106.72C87.3102 106.72 87.3702 106.77 87.3902 106.8L87.3102 106.7C87.3102 106.7 87.3502 106.76 87.3702 106.8L87.3202 106.68C87.3202 106.68 87.3402 106.74 87.3402 106.77L87.3202 106.64C87.3202 106.64 87.3202 106.69 87.3202 106.72L87.3402 106.59C87.3402 106.59 87.3402 106.64 87.3202 106.66L87.3702 106.54C87.3702 106.54 87.3402 106.6 87.3202 106.62L87.4002 106.52C87.4002 106.52 87.3602 106.57 87.3302 106.59L87.4302 106.51C87.4302 106.51 87.3502 106.56 87.3102 106.58L87.4302 106.53C87.3802 106.55 87.3202 106.56 87.2702 106.57L87.4002 106.55C87.3402 106.55 87.2702 106.55 87.2102 106.55L87.3402 106.57C87.2902 106.57 87.2402 106.55 87.1902 106.53L87.3102 106.58C87.3102 106.58 87.2302 106.54 87.2002 106.51L87.3002 106.59C87.3002 106.59 87.2402 106.54 87.2202 106.51L87.3002 106.61C87.3002 106.61 87.2502 106.54 87.2402 106.5L87.2902 106.62C87.2902 106.62 87.2602 106.53 87.2502 106.49L87.2702 106.62C87.2702 106.62 87.2702 106.52 87.2702 106.47L87.2502 106.6C87.2502 106.55 87.2702 106.49 87.2902 106.44L87.2402 106.56C87.2402 106.56 87.2902 106.47 87.3202 106.43L87.2402 106.53C87.2402 106.53 87.2702 106.5 87.2802 106.48L86.5702 105.77C86.5702 105.77 86.4902 105.86 86.4602 105.91C86.4102 106 86.3802 106.1 86.3802 106.2C86.3802 106.32 86.4102 106.45 86.4802 106.55C86.5502 106.66 86.6302 106.74 86.7402 106.81C86.7902 106.84 86.8502 106.86 86.9102 106.89C86.9502 106.91 86.9902 106.91 87.0402 106.91C87.1902 106.93 87.3302 106.91 87.4602 106.83C87.5902 106.75 87.6802 106.65 87.7402 106.52C87.8002 106.39 87.8102 106.24 87.7702 106.1C87.7402 105.98 87.6702 105.87 87.5902 105.78C87.5502 105.73 87.4902 105.69 87.4402 105.66C87.3902 105.63 87.3202 105.6 87.2602 105.58C87.1402 105.54 86.9702 105.54 86.8602 105.58C86.7902 105.6 86.7402 105.63 86.6902 105.67C86.6402 105.71 86.5902 105.75 86.5602 105.81C86.5002 105.92 86.4702 106.08 86.5102 106.2C86.5502 106.32 86.6202 106.44 86.7402 106.5L86.8602 106.55C86.9502 106.57 87.0402 106.57 87.1302 106.55L87.1402 106.57Z" fill="#000100"/>
<path d="M82.3401 112.55C82.1901 112.68 82.1101 112.89 82.1001 113.08C82.1001 113.29 82.1901 113.52 82.3601 113.65C82.5601 113.8 82.8501 113.78 83.0601 113.65C83.2301 113.55 83.3301 113.4 83.4001 113.22C83.4601 113.06 83.4401 112.88 83.3801 112.73C83.3201 112.58 83.2001 112.44 83.0501 112.36C82.7501 112.21 82.4101 112.22 82.1201 112.36C81.8301 112.5 81.6301 112.81 81.5601 113.12C81.5301 113.23 81.5401 113.34 81.5901 113.45C81.6401 113.56 81.7001 113.62 81.7901 113.69C81.8801 113.76 81.9901 113.78 82.0901 113.79C82.1901 113.8 82.3101 113.8 82.4201 113.77C82.5501 113.73 82.6401 113.67 82.7401 113.59C82.8401 113.51 82.8901 113.39 82.9401 113.27C82.9801 113.16 82.9501 112.98 82.8901 112.88C82.8301 112.78 82.7201 112.67 82.5901 112.65C82.4501 112.63 82.3601 112.62 82.2201 112.65C82.1401 112.66 82.0601 112.7 81.9801 112.74C81.8401 112.81 81.7201 112.94 81.6501 113.08C81.5601 113.26 81.5201 113.47 81.5901 113.66C81.6601 113.85 81.7701 113.99 81.9401 114.11C82.0801 114.2 82.2401 114.24 82.4001 114.26C82.5501 114.28 82.7001 114.24 82.8401 114.19C83.1201 114.07 83.3701 113.81 83.4201 113.5C83.4501 113.34 83.4501 113.17 83.3901 113.01C83.3301 112.85 83.2501 112.71 83.1201 112.6C82.8901 112.4 82.5901 112.27 82.2801 112.31C82.1101 112.33 81.9601 112.37 81.8101 112.46C81.6601 112.55 81.5701 112.66 81.4701 112.79C81.2901 113.06 81.2801 113.41 81.4301 113.69C81.5501 113.92 81.8101 114.09 82.0601 114.15C82.3101 114.21 82.6301 114.19 82.8601 114.04C83.1101 113.88 83.2901 113.59 83.2701 113.28C83.2501 112.97 83.1001 112.7 82.8401 112.53C82.5601 112.34 82.2001 112.37 81.9101 112.51C81.6701 112.63 81.4601 112.88 81.4001 113.14C81.3401 113.45 81.4301 113.78 81.6801 113.98C81.8101 114.08 81.9301 114.15 82.0801 114.2C82.1901 114.24 82.3201 114.25 82.4401 114.25C82.7301 114.25 83.0101 114.14 83.2101 113.93C83.4101 113.72 83.5201 113.45 83.5201 113.17C83.5201 112.6 83.0301 112.14 82.4901 112.05C82.3601 112.03 82.2201 112.01 82.0801 112.02C81.9401 112.03 81.8201 112.07 81.7301 112.17C81.6401 112.26 81.5801 112.4 81.5801 112.52C81.5801 112.64 81.6301 112.78 81.7301 112.87C81.8301 112.96 81.9501 113.03 82.0801 113.02C82.1501 113.02 82.2301 113.02 82.3001 113.02L82.1701 113C82.2701 113.01 82.3601 113.04 82.4501 113.08L82.3301 113.03C82.4001 113.06 82.4601 113.1 82.5301 113.14L82.4301 113.06C82.4301 113.06 82.5201 113.14 82.5601 113.19L82.4801 113.09C82.4801 113.09 82.5301 113.17 82.5501 113.21L82.5001 113.09C82.5001 113.09 82.5301 113.18 82.5401 113.22L82.5201 113.09C82.5201 113.14 82.5201 113.19 82.5201 113.24L82.5401 113.11C82.5401 113.17 82.5201 113.22 82.5001 113.27L82.5501 113.15C82.5501 113.15 82.5101 113.23 82.4801 113.27L82.5601 113.17C82.5601 113.17 82.5001 113.24 82.4601 113.27L82.5601 113.19C82.5601 113.19 82.4801 113.24 82.4401 113.26L82.5601 113.21C82.5101 113.23 82.4501 113.25 82.4001 113.25L82.5301 113.23C82.4701 113.23 82.4101 113.23 82.3501 113.23L82.4801 113.25C82.4201 113.25 82.3601 113.23 82.3001 113.2L82.4201 113.25C82.4201 113.25 82.3301 113.21 82.2901 113.18L82.3901 113.26C82.3901 113.26 82.3301 113.21 82.3001 113.17L82.3801 113.27C82.3801 113.27 82.3501 113.22 82.3301 113.19L82.3801 113.31C82.3801 113.31 82.3601 113.26 82.3601 113.23L82.3801 113.36C82.3801 113.36 82.3801 113.3 82.3801 113.27L82.3601 113.4C82.3601 113.4 82.3801 113.33 82.3901 113.3L82.3401 113.42C82.3401 113.42 82.3701 113.36 82.3901 113.33L82.3101 113.43C82.3101 113.43 82.3701 113.36 82.4101 113.33L82.3101 113.41C82.3101 113.41 82.3801 113.36 82.4201 113.34L82.3001 113.39C82.3001 113.39 82.3801 113.36 82.4201 113.35L82.2901 113.37C82.2901 113.37 82.3801 113.37 82.4201 113.37L82.2901 113.35C82.2901 113.35 82.3501 113.36 82.3801 113.37L82.2601 113.32C82.2601 113.32 82.3301 113.35 82.3601 113.38L82.2601 113.3C82.2601 113.3 82.3101 113.34 82.3301 113.37L82.2501 113.27C82.2501 113.27 82.2901 113.33 82.3001 113.36L82.2501 113.24C82.2501 113.24 82.2701 113.31 82.2801 113.34L82.2601 113.21C82.2601 113.21 82.2601 113.28 82.2601 113.31L82.2801 113.18C82.2801 113.18 82.2701 113.25 82.2501 113.28L82.3001 113.16C82.3001 113.16 82.2701 113.21 82.2501 113.24L82.3301 113.14C82.3301 113.14 82.2901 113.18 82.2701 113.2L82.3701 113.12C82.3701 113.12 82.3101 113.16 82.2701 113.18L82.3901 113.13C82.3901 113.13 82.3101 113.16 82.2601 113.16L82.3901 113.14C82.3401 113.14 82.2801 113.14 82.2301 113.14L82.3601 113.16C82.3101 113.16 82.2501 113.14 82.2001 113.12L82.3201 113.17C82.3201 113.17 82.2401 113.13 82.2101 113.11L82.3101 113.19C82.3101 113.19 82.2501 113.14 82.2301 113.11L82.3101 113.21C82.3101 113.21 82.2701 113.16 82.2601 113.13L82.3101 113.25C82.3101 113.25 82.2901 113.19 82.2901 113.16L82.3101 113.29C82.3101 113.29 82.3101 113.22 82.3101 113.19L82.2901 113.32C82.2901 113.32 82.3101 113.24 82.3201 113.21L82.2701 113.33C82.2701 113.33 82.3101 113.26 82.3301 113.23L82.2501 113.33C82.2501 113.33 82.3101 113.26 82.3501 113.23L82.2501 113.31C82.2501 113.31 82.3301 113.26 82.3801 113.24L82.2601 113.29C82.2601 113.29 82.3401 113.26 82.3901 113.25L82.2601 113.27C82.3101 113.27 82.3701 113.27 82.4201 113.27L82.2901 113.25C82.3401 113.25 82.3901 113.27 82.4401 113.29L82.3201 113.24C82.3701 113.26 82.4201 113.29 82.4701 113.33L82.3701 113.25C82.3701 113.25 82.4401 113.31 82.4701 113.35L82.3901 113.25C82.3901 113.25 82.4401 113.32 82.4601 113.36L82.4101 113.24C82.4101 113.24 82.4301 113.31 82.4401 113.35L82.4201 113.22C82.4201 113.22 82.4201 113.29 82.4201 113.33L82.4401 113.2C82.4401 113.2 82.4201 113.27 82.4101 113.31L82.4601 113.19C82.4601 113.19 82.4201 113.27 82.3901 113.3L82.4701 113.2C82.4701 113.2 82.4201 113.26 82.3901 113.28L82.4901 113.2C82.4901 113.2 82.4201 113.24 82.3801 113.26L82.5001 113.21C82.5001 113.21 82.4201 113.24 82.3801 113.24L82.5101 113.22C82.5101 113.22 82.4201 113.22 82.3801 113.22L82.5101 113.24C82.5101 113.24 82.4201 113.22 82.3801 113.21L82.5001 113.26C82.5001 113.26 82.4301 113.23 82.4001 113.21L82.5001 113.29C82.5001 113.29 82.4501 113.25 82.4401 113.23L82.5201 113.33C82.5201 113.33 82.4901 113.29 82.4801 113.27L82.5301 113.39C82.5301 113.39 82.5101 113.34 82.5101 113.32L82.5301 113.45C82.5301 113.45 82.5301 113.41 82.5301 113.39L82.5101 113.52C82.5101 113.52 82.5201 113.47 82.5301 113.45L82.4801 113.57C82.4801 113.57 82.5001 113.52 82.5201 113.5L82.4401 113.6C82.4401 113.6 82.4801 113.55 82.5101 113.53L82.4101 113.61C82.4101 113.61 82.4601 113.58 82.4801 113.57L82.3601 113.62C82.3601 113.62 82.4201 113.6 82.4601 113.59L82.3301 113.61C82.3301 113.61 82.3901 113.61 82.4101 113.61L82.2801 113.59H82.3001C82.1801 113.39 82.0701 113.18 81.9501 112.98C81.9501 112.98 81.9801 112.91 82.0001 112.87C82.0001 112.89 81.9801 112.9 81.9701 112.91L82.0501 112.81C82.0501 112.81 82.0301 112.84 82.0101 112.85L82.1101 112.77C82.1101 112.77 82.0701 112.8 82.0501 112.81L82.1701 112.76C82.1701 112.76 82.1101 112.78 82.0701 112.79L82.2001 112.77C82.2001 112.77 82.1501 112.77 82.1301 112.77L82.2601 112.79C82.2601 112.79 82.2101 112.79 82.1901 112.77L82.3101 112.82C82.3101 112.82 82.2801 112.8 82.2601 112.79L82.4901 113.35C82.5001 113.3 82.5201 113.25 82.5401 113.2L82.4901 113.32C82.5101 113.26 82.5401 113.21 82.5801 113.16L82.5001 113.26C82.5001 113.26 82.5701 113.19 82.6001 113.16L82.5001 113.24C82.5001 113.24 82.5701 113.19 82.6101 113.18L82.4901 113.23C82.4901 113.23 82.5701 113.2 82.6201 113.2L82.4901 113.22C82.4901 113.22 82.5901 113.22 82.6401 113.22L82.5101 113.2C82.5101 113.2 82.5801 113.21 82.6201 113.23L82.5001 113.18C82.5001 113.18 82.5501 113.21 82.5801 113.22L82.4801 113.14C82.4801 113.14 82.5201 113.17 82.5301 113.19L82.4501 113.09C82.4501 113.09 82.4701 113.12 82.4801 113.14L82.4301 113.02C82.4301 113.02 82.4301 113.05 82.4401 113.07L82.4201 112.94C82.4201 112.94 82.4201 112.97 82.4201 112.99L82.4401 112.86C82.4401 112.86 82.4301 112.91 82.4201 112.94L82.4701 112.82C82.4701 112.82 82.4501 112.86 82.4401 112.88L82.5201 112.78C82.5201 112.78 82.4901 112.81 82.4701 112.83L82.5701 112.75C82.5701 112.75 82.5301 112.77 82.5101 112.78L82.6301 112.73C82.6301 112.73 82.6001 112.74 82.5801 112.74L82.7101 112.72C82.7101 112.72 82.6701 112.72 82.6501 112.72L83.0001 112.87H82.9901C82.9901 112.87 83.0401 112.92 83.0701 112.96C83.0601 112.94 83.0501 112.92 83.0401 112.9L83.0901 113.02C83.0901 113.02 83.0801 112.98 83.0701 112.96L83.0901 113.09C83.0901 113.09 83.0901 113.05 83.0901 113.03L83.0701 113.16C83.0701 113.16 83.0701 113.12 83.0901 113.1L83.0401 113.22C83.0401 113.22 83.0601 113.18 83.0701 113.16L82.9901 113.26C82.9901 113.26 83.0201 113.23 83.0401 113.21C83.1301 113.13 83.1901 112.97 83.1901 112.86C83.1901 112.74 83.1401 112.59 83.0401 112.51C82.9401 112.43 82.8201 112.36 82.6901 112.36L82.5601 112.38C82.4801 112.4 82.4001 112.45 82.3401 112.51V112.55Z" fill="#000100"/>
<path d="M69.5101 118.69C69.5101 118.84 69.5501 118.98 69.6201 119.11C69.6901 119.24 69.7901 119.33 69.9101 119.42C70.0601 119.53 70.2601 119.6 70.4401 119.53C70.6201 119.46 70.7501 119.37 70.8501 119.21C71.0301 118.94 70.9901 118.57 70.7601 118.34C70.5601 118.13 70.2501 118.06 69.9701 118.13L70.1001 118.11C70.0201 118.11 69.9401 118.12 69.8701 118.15C69.7501 118.2 69.6701 118.24 69.5701 118.33C69.4601 118.43 69.3801 118.57 69.3401 118.72C69.3001 118.87 69.3001 119.03 69.3401 119.17C69.3901 119.36 69.5101 119.5 69.6701 119.61C69.7301 119.65 69.8101 119.68 69.8801 119.71C69.9601 119.73 70.0501 119.74 70.1401 119.74C70.2301 119.74 70.3001 119.72 70.3801 119.69C70.5101 119.64 70.5901 119.59 70.7001 119.5C70.8201 119.4 70.9001 119.26 70.9601 119.11C71.0301 118.92 71.0001 118.71 70.9101 118.53C70.6601 118.04 69.9701 118.25 69.7601 118.65C69.6901 118.79 69.6401 118.94 69.6601 119.09C69.6801 119.28 69.7501 119.48 69.9001 119.61C70.0601 119.75 70.2401 119.82 70.4601 119.83C70.5901 119.83 70.7201 119.82 70.8401 119.77C71.0001 119.71 71.1401 119.63 71.2501 119.5C71.3401 119.39 71.3801 119.32 71.4301 119.19C71.4601 119.1 71.4701 119.01 71.4801 118.92C71.4801 118.53 71.2301 118.16 70.8901 117.99C70.7001 117.89 70.5101 117.84 70.2901 117.82C70.1101 117.8 69.9301 117.82 69.7501 117.85C69.6401 117.87 69.5101 117.98 69.4501 118.08C69.3901 118.19 69.3601 118.35 69.4001 118.47C69.4401 118.59 69.5101 118.71 69.6301 118.77L69.7501 118.82C69.8401 118.84 69.9301 118.84 70.0201 118.82H70.0401C70.0401 118.82 69.9501 118.82 69.9101 118.84C70.0501 118.82 70.1801 118.82 70.3201 118.84L70.1901 118.82C70.2801 118.83 70.3701 118.86 70.4601 118.89L70.3401 118.84C70.4001 118.87 70.4601 118.9 70.5101 118.94L70.4101 118.86C70.4101 118.86 70.4901 118.94 70.5301 118.98L70.4501 118.88C70.4501 118.88 70.5001 118.96 70.5201 119.01L70.4701 118.89C70.4701 118.89 70.5001 118.97 70.5001 119.02L70.4801 118.89C70.4801 118.89 70.4801 118.96 70.4801 118.99L70.5001 118.86C70.5001 118.86 70.4801 118.94 70.4701 118.97L70.5201 118.85C70.5201 118.85 70.4901 118.9 70.4801 118.92L70.5601 118.82C70.5601 118.82 70.5101 118.87 70.4801 118.9L70.5801 118.82C70.5801 118.82 70.5101 118.87 70.4701 118.88L70.5901 118.83C70.5901 118.83 70.5001 118.86 70.4501 118.87L70.5801 118.85C70.5801 118.85 70.4901 118.85 70.4501 118.85L70.5801 118.87C70.5801 118.87 70.5101 118.86 70.4801 118.84L70.6001 118.89C70.6001 118.89 70.5501 118.86 70.5201 118.85L70.6201 118.93C70.6201 118.93 70.5901 118.9 70.5701 118.88L70.6501 118.98C70.6501 118.98 70.6301 118.94 70.6201 118.93L70.6701 119.05C70.6701 119.05 70.6501 119 70.6501 118.98L70.6701 119.11C70.6701 119.11 70.6701 119.06 70.6701 119.04L70.6501 119.17C70.6501 119.17 70.6601 119.11 70.6801 119.08L70.6301 119.2C70.6301 119.2 70.6601 119.15 70.6701 119.13L70.5901 119.23C70.5901 119.23 70.6201 119.19 70.6401 119.18L70.5401 119.26C70.5401 119.26 70.5801 119.24 70.6001 119.23L70.4801 119.28C70.4801 119.28 70.5301 119.26 70.5601 119.26L70.4301 119.28C70.4301 119.28 70.4601 119.28 70.4801 119.28L70.0501 119.03C70.0501 119.03 70.0701 119.06 70.0801 119.08L70.0301 118.96C70.0301 118.96 70.0401 118.99 70.0401 119.01L70.0201 118.88C70.0201 118.88 70.0201 118.92 70.0201 118.94L70.0401 118.81C70.0401 118.81 70.0301 118.86 70.0201 118.88L70.0701 118.76C70.0701 118.76 70.0401 118.81 70.0201 118.84L70.1001 118.74C70.1001 118.74 70.0501 118.79 70.0201 118.82L70.1201 118.74C70.1201 118.74 70.0601 118.78 70.0201 118.8L70.1401 118.75C70.1401 118.75 70.0701 118.77 70.0301 118.78L70.1601 118.76C70.1601 118.76 70.1001 118.76 70.0701 118.76L70.2001 118.78C70.2001 118.78 70.1501 118.77 70.1301 118.76L70.2501 118.81C70.2501 118.81 70.2001 118.79 70.1801 118.77L70.2801 118.85C70.2801 118.85 70.2501 118.82 70.2401 118.81L70.3201 118.91C70.3201 118.91 70.2901 118.87 70.2801 118.85L70.3301 118.97C70.3301 118.97 70.3101 118.92 70.3101 118.89L70.3301 119.02C70.3301 119.02 70.3301 118.96 70.3301 118.93L70.3101 119.06C70.3101 119.06 70.3201 119 70.3301 118.97L70.2801 119.09C70.2801 119.09 70.3101 119.03 70.3301 119.01L70.2501 119.11C70.2501 119.11 70.2901 119.07 70.3101 119.05L70.2101 119.13C70.2101 119.13 70.2501 119.1 70.2701 119.09L70.1501 119.14C70.1501 119.14 70.2101 119.12 70.2401 119.12L70.1101 119.14C70.1701 119.14 70.2301 119.12 70.3001 119.11L70.1701 119.13C70.1701 119.13 70.2201 119.13 70.2401 119.13L70.1101 119.11C70.1101 119.11 70.1701 119.12 70.1901 119.13L70.0701 119.08C70.0701 119.08 70.1201 119.1 70.1401 119.12L70.0401 119.04C70.0401 119.04 70.0701 119.06 70.0801 119.08L70.0001 118.98C70.0001 118.98 70.0201 119.01 70.0301 119.02L69.9801 118.9C69.9801 118.9 69.9901 118.93 70.0001 118.95L69.9801 118.82C69.9801 118.82 69.9801 118.85 69.9801 118.87L70.0001 118.74C70.0001 118.74 70.0001 118.78 69.9801 118.8L70.0301 118.68C70.0301 118.68 70.0101 118.72 69.9901 118.74L70.0701 118.64C70.0701 118.64 70.0401 118.67 70.0301 118.68L70.1301 118.6C70.1301 118.6 70.0901 118.63 70.0701 118.64L70.1901 118.59C70.1901 118.59 70.1701 118.59 70.1601 118.6H70.4301C70.4301 118.6 70.4101 118.6 70.4001 118.59L70.5201 118.64C70.5201 118.64 70.4601 118.61 70.4301 118.58L70.5301 118.66C70.5301 118.66 70.4801 118.61 70.4601 118.58L70.5401 118.68C70.5401 118.68 70.5101 118.63 70.5001 118.6L70.5501 118.72C70.5501 118.72 70.5301 118.67 70.5301 118.64L70.5501 118.77C70.5501 118.77 70.5501 118.73 70.5501 118.71C70.5501 118.58 70.4901 118.45 70.4001 118.36C70.3101 118.27 70.1701 118.21 70.0501 118.21C69.9301 118.21 69.7901 118.26 69.7001 118.36C69.6101 118.46 69.5501 118.58 69.5501 118.71L69.5101 118.69Z" fill="#000100"/>
<path d="M68.8301 110.57C68.8301 110.57 68.7601 110.66 68.7301 110.7C68.7301 110.71 68.7101 110.73 68.7001 110.74C68.6701 110.79 68.6501 110.84 68.6301 110.89C68.6301 110.9 68.6201 110.92 68.6201 110.94C68.6101 111 68.6001 111.05 68.6001 111.11C68.6001 111.13 68.6001 111.14 68.6001 111.16C68.6001 111.23 68.6101 111.31 68.6401 111.38C68.6601 111.43 68.6801 111.48 68.7101 111.53C68.7301 111.57 68.7701 111.62 68.8001 111.65L68.8501 111.69C68.8501 111.69 68.9201 111.74 68.9601 111.75C69.0001 111.77 69.0401 111.78 69.0901 111.78C69.1101 111.78 69.1401 111.78 69.1601 111.78C69.2201 111.78 69.2701 111.77 69.3301 111.76C69.3401 111.76 69.3601 111.76 69.3701 111.76C69.4201 111.74 69.4701 111.72 69.5201 111.7C69.5301 111.7 69.5401 111.69 69.5601 111.68C69.6001 111.65 69.6501 111.62 69.6901 111.58C69.7001 111.58 69.7101 111.56 69.7201 111.55C69.7601 111.51 69.7901 111.47 69.8201 111.43C69.8201 111.42 69.8401 111.41 69.8401 111.4C69.8701 111.35 69.8801 111.3 69.9001 111.25C69.9001 111.24 69.9001 111.23 69.9101 111.21C69.9101 111.21 69.9101 111.2 69.9101 111.19C69.9101 111.14 69.9301 111.09 69.9301 111.05C69.9301 111.04 69.9301 111.03 69.9301 111.01C69.9301 110.96 69.9201 110.91 69.9101 110.86C69.9101 110.86 69.9101 110.85 69.9101 110.84C69.9101 110.83 69.9101 110.83 69.9101 110.82C69.8901 110.78 69.8701 110.73 69.8501 110.69C69.8501 110.68 69.8401 110.67 69.8301 110.66C69.8001 110.62 69.7701 110.58 69.7401 110.55C69.7401 110.55 69.7401 110.55 69.7301 110.54C69.6901 110.5 69.6501 110.47 69.6101 110.44C69.6101 110.44 69.5901 110.43 69.5801 110.42C69.5501 110.4 69.5201 110.39 69.4901 110.38C69.4601 110.37 69.4301 110.35 69.4001 110.34C69.3401 110.32 69.2701 110.32 69.2001 110.31C69.1301 110.31 69.0601 110.31 68.9901 110.33C68.9601 110.33 68.9401 110.34 68.9101 110.35C68.8601 110.37 68.8101 110.39 68.7601 110.42C68.7301 110.44 68.7101 110.46 68.6801 110.48C68.6501 110.5 68.6301 110.52 68.6001 110.54C68.5601 110.58 68.5301 110.62 68.5001 110.67C68.4601 110.73 68.4401 110.79 68.4401 110.86C68.4301 110.93 68.4301 110.99 68.4401 111.06C68.4601 111.13 68.4901 111.18 68.5301 111.23C68.5701 111.28 68.6101 111.33 68.6701 111.36L68.7901 111.41C68.8801 111.43 68.9701 111.43 69.0601 111.41L69.1801 111.36C69.2601 111.32 69.3101 111.26 69.3601 111.18C69.3601 111.18 69.3601 111.18 69.3601 111.17L69.2801 111.27C69.2801 111.27 69.3001 111.24 69.3201 111.23L69.2201 111.31C69.2201 111.31 69.2601 111.29 69.2801 111.28L69.1601 111.33C69.1601 111.33 69.2201 111.31 69.2401 111.31L69.1101 111.33C69.1101 111.33 69.1701 111.33 69.2001 111.33L69.0701 111.31C69.0701 111.31 69.1301 111.32 69.1501 111.33L69.0301 111.28C69.0301 111.28 69.0701 111.3 69.0901 111.31L68.9901 111.23C68.9901 111.23 69.0201 111.25 69.0301 111.27L68.9501 111.17C68.9501 111.17 68.9701 111.2 68.9701 111.21L68.9201 111.09C68.9201 111.09 68.9301 111.12 68.9301 111.14L68.9101 111.01C68.9101 111.01 68.9101 111.04 68.9101 111.06L68.9301 110.93C68.9301 110.93 68.9301 110.97 68.9101 110.99L68.9601 110.87C68.9601 110.87 68.9401 110.91 68.9201 110.93L69.0001 110.83C69.0001 110.83 68.9701 110.87 68.9501 110.88L69.0501 110.8C69.0501 110.8 69.0101 110.83 68.9901 110.84L69.1101 110.79C69.1101 110.79 69.0601 110.81 69.0401 110.81L69.1701 110.79C69.1701 110.79 69.1501 110.79 69.1301 110.79L69.5601 111.04C69.5601 111.04 69.5501 111.02 69.5401 111L69.5901 111.12C69.5901 111.12 69.5701 111.07 69.5701 111.04L69.5901 111.17C69.5901 111.17 69.5901 111.12 69.5901 111.1L69.5701 111.23C69.5701 111.23 69.5801 111.18 69.5901 111.15L69.5401 111.27C69.5401 111.27 69.5701 111.22 69.5801 111.2L69.5001 111.3C69.5001 111.3 69.5201 111.28 69.5201 111.27C69.5701 111.22 69.6001 111.17 69.6201 111.11C69.6501 111.05 69.6701 110.99 69.6601 110.92C69.6601 110.85 69.6501 110.79 69.6201 110.73C69.6001 110.67 69.5701 110.61 69.5201 110.57L69.4201 110.49C69.3401 110.44 69.2601 110.42 69.1701 110.42L69.0401 110.44C68.9601 110.46 68.8801 110.51 68.8201 110.57H68.8301Z" fill="#000100"/>
<path d="M58.56 115.46C58.61 115.6 58.68 115.72 58.82 115.79C58.96 115.86 59.11 115.88 59.26 115.85C59.43 115.81 59.58 115.69 59.67 115.54C59.84 115.26 59.7 114.88 59.4 114.76C59.1 114.64 58.79 114.8 58.64 115.05C58.49 115.3 58.54 115.61 58.74 115.81C58.91 115.98 59.17 116.03 59.4 115.97C59.68 115.89 59.91 115.63 59.87 115.33C59.84 115.12 59.73 114.95 59.55 114.84C59.26 114.67 58.83 114.69 58.59 114.94C58.3 115.23 58.32 115.72 58.62 116C58.92 116.28 59.36 116.31 59.69 116.1C59.85 116 59.98 115.86 60.05 115.68C60.12 115.5 60.13 115.33 60.1 115.15C60.07 114.99 59.97 114.85 59.87 114.73C59.76 114.6 59.61 114.52 59.45 114.46C59.28 114.4 59.11 114.4 58.94 114.43C58.88 114.44 58.82 114.46 58.76 114.49C58.7 114.52 58.64 114.54 58.59 114.58C58.46 114.68 58.33 114.79 58.26 114.94C58.19 115.09 58.14 115.25 58.15 115.41C58.16 115.54 58.19 115.63 58.24 115.75C58.27 115.82 58.33 115.89 58.38 115.94C58.49 116.06 58.63 116.13 58.77 116.19C58.88 116.24 59.01 116.25 59.13 116.26C59.3 116.26 59.45 116.22 59.6 116.15C59.94 116 60.07 115.61 59.99 115.26C59.96 115.11 59.87 114.98 59.77 114.86C59.69 114.77 59.59 114.69 59.48 114.63C59.33 114.56 59.17 114.51 59 114.51C58.83 114.51 58.68 114.56 58.53 114.64C58.3 114.77 58.11 115.01 58.05 115.27C58.01 115.43 58.01 115.58 58.05 115.74C58.05 115.78 58.07 115.81 58.08 115.84C58.11 115.91 58.14 115.99 58.18 116.05C58.34 116.29 58.6 116.46 58.89 116.51C59.15 116.56 59.43 116.55 59.68 116.45C59.76 116.42 59.83 116.39 59.91 116.35C59.99 116.31 60.05 116.25 60.11 116.2C60.2 116.12 60.26 115.96 60.26 115.85C60.26 115.73 60.21 115.58 60.11 115.5C60.01 115.42 59.89 115.35 59.76 115.35L59.63 115.37C59.55 115.39 59.47 115.44 59.41 115.5C59.41 115.5 59.4 115.51 59.39 115.52L59.49 115.44C59.44 115.48 59.38 115.52 59.31 115.54L59.43 115.49C59.35 115.52 59.27 115.54 59.18 115.56L59.31 115.54C59.22 115.55 59.14 115.55 59.05 115.54L59.18 115.56C59.11 115.55 59.05 115.53 58.98 115.51L59.1 115.56C59.1 115.56 59.01 115.51 58.96 115.48L59.06 115.56C59.06 115.56 58.99 115.5 58.97 115.47L59.05 115.57C59.05 115.57 59 115.5 58.99 115.46L59.04 115.58C59.04 115.58 59.01 115.5 59.01 115.46L59.03 115.59C59.03 115.59 59.03 115.49 59.03 115.45L59.01 115.58C59.01 115.58 59.03 115.49 59.05 115.44L59 115.56C59 115.56 59.04 115.49 59.06 115.45L58.98 115.55C58.98 115.55 59.04 115.48 59.08 115.45L58.98 115.53C58.98 115.53 59.04 115.49 59.08 115.47L58.96 115.52C58.96 115.52 59.04 115.49 59.08 115.49L58.95 115.51C58.95 115.51 59.03 115.51 59.07 115.51L58.94 115.49C58.94 115.49 59.03 115.51 59.07 115.53L58.95 115.48C58.95 115.48 59.03 115.52 59.07 115.55L58.97 115.47C58.97 115.47 59.04 115.53 59.07 115.57L58.99 115.47C58.99 115.47 59.04 115.54 59.05 115.58L59 115.46C59 115.46 59.02 115.52 59.03 115.55L59.01 115.42C59.01 115.42 59.01 115.47 59.01 115.5L59.03 115.37C59.03 115.37 59.02 115.42 59.01 115.45L59.06 115.33C59.06 115.33 59.04 115.37 59.02 115.39L59.1 115.29C59.1 115.29 59.09 115.3 59.08 115.31L59.18 115.23C59.18 115.23 59.12 115.27 59.09 115.28L59.21 115.23C59.21 115.23 59.13 115.26 59.08 115.26L59.21 115.24C59.16 115.24 59.1 115.24 59.05 115.24L59.18 115.26C59.12 115.26 59.07 115.24 59.01 115.21L59.13 115.26C59.13 115.26 59.05 115.22 59.02 115.19L59.12 115.27C59.12 115.27 59.07 115.23 59.05 115.2L59.13 115.3C59.13 115.3 59.09 115.25 59.08 115.22L59.13 115.34C59.13 115.34 59.11 115.29 59.11 115.26L59.13 115.39C59.13 115.39 59.13 115.33 59.13 115.3L59.11 115.43C59.11 115.43 59.12 115.36 59.14 115.33L59.09 115.45C59.09 115.45 59.13 115.38 59.15 115.34L59.07 115.44C59.07 115.44 59.13 115.38 59.16 115.35L59.06 115.43C59.06 115.43 59.14 115.38 59.18 115.36L59.06 115.41C59.06 115.41 59.14 115.38 59.19 115.38L59.06 115.4C59.06 115.4 59.14 115.4 59.18 115.4L59.05 115.38C59.05 115.38 59.14 115.4 59.18 115.42L59.06 115.37C59.06 115.37 59.14 115.41 59.17 115.44L59.07 115.36C59.07 115.36 59.13 115.42 59.16 115.45L59.08 115.35C59.08 115.35 59.13 115.42 59.14 115.46L59.09 115.34C59.09 115.34 59.11 115.41 59.12 115.44L59.1 115.31C59.1 115.31 59.1 115.37 59.1 115.4L59.12 115.27C59.12 115.27 59.11 115.33 59.09 115.36L59.14 115.24C59.14 115.24 59.11 115.29 59.09 115.32L59.17 115.22C59.17 115.22 59.12 115.27 59.09 115.29L59.19 115.21C59.19 115.21 59.12 115.26 59.08 115.27L59.2 115.22C59.2 115.22 59.13 115.24 59.09 115.25L59.22 115.23C59.22 115.23 59.15 115.23 59.11 115.23L59.24 115.25C59.24 115.25 59.18 115.24 59.15 115.23L59.27 115.28C59.27 115.28 59.22 115.25 59.2 115.24L59.3 115.32C59.3 115.32 59.26 115.28 59.24 115.26L59.32 115.36C59.32 115.36 59.29 115.32 59.28 115.29L59.33 115.41C59.33 115.41 59.32 115.37 59.31 115.35L59.33 115.48C59.33 115.48 59.33 115.44 59.33 115.42L59.31 115.55C59.31 115.55 59.31 115.52 59.32 115.5L59.27 115.62C59.27 115.62 59.28 115.59 59.29 115.58L59.21 115.68C59.21 115.68 59.23 115.65 59.25 115.64L59.15 115.72C59.15 115.72 59.18 115.7 59.2 115.69L59.08 115.74C59.08 115.74 59.13 115.72 59.16 115.72L59.03 115.74C59.03 115.74 59.09 115.74 59.12 115.74L58.99 115.72C58.99 115.72 59.04 115.73 59.07 115.74L58.95 115.69C58.95 115.69 58.99 115.71 59.01 115.72L58.91 115.64C58.91 115.64 58.94 115.66 58.95 115.68L58.87 115.58C58.87 115.58 58.88 115.6 58.89 115.61L58.84 115.49C58.84 115.49 58.84 115.52 58.85 115.53V115.26C58.85 115.26 58.88 115.19 58.9 115.15C58.9 115.16 58.89 115.17 58.88 115.18L58.96 115.08L58.94 115.1L59.04 115.02C59.04 115.02 59.01 115.04 59 115.04L59.12 114.99C59.12 114.99 59.08 115 59.06 115L59.19 114.98C59.19 114.98 59.16 114.98 59.14 114.98L59.27 115C59.27 115 59.24 115 59.22 114.99L59.34 115.04C59.34 115.04 59.32 115.03 59.31 115.02L59.41 115.1C59.41 115.1 59.39 115.08 59.38 115.08L59.46 115.18C59.46 115.18 59.46 115.17 59.45 115.16L59.5 115.28C59.5 115.28 59.5 115.26 59.5 115.25L59.52 115.38C59.52 115.38 59.52 115.36 59.52 115.34L59.5 115.47C59.5 115.47 59.5 115.45 59.5 115.44L59.45 115.56C59.45 115.56 59.47 115.53 59.48 115.52L59.4 115.62C59.4 115.62 59.42 115.6 59.43 115.59L59.33 115.67C59.33 115.67 59.35 115.66 59.36 115.65L59.24 115.7C59.24 115.7 59.26 115.7 59.28 115.69L59.15 115.71H59.16C59.08 115.69 58.99 115.66 58.91 115.64C58.91 115.64 58.92 115.64 58.93 115.64L58.83 115.56C58.83 115.56 58.83 115.56 58.84 115.57L58.76 115.47C58.76 115.47 58.73 115.4 58.71 115.36C58.71 115.36 58.71 115.36 58.71 115.37L58.69 115.24C58.69 115.24 58.69 115.24 58.69 115.25L58.71 115.12C58.71 115.12 58.71 115.12 58.71 115.13L58.76 115.01C58.76 115.01 58.76 115.03 58.74 115.04L58.82 114.94L58.8 114.96L58.9 114.88C58.9 114.88 58.88 114.9 58.86 114.9L58.98 114.85C58.98 114.85 58.95 114.85 58.94 114.86L59.07 114.84H59.05L59.18 114.86C59.18 114.86 59.18 114.86 59.17 114.86L59.29 114.91C59.29 114.91 59.29 114.91 59.28 114.91L59.38 114.99C59.38 114.99 59.38 114.99 59.37 114.99L59.45 115.09C59.45 115.09 59.45 115.09 59.45 115.08L59.5 115.2C59.45 115.07 59.39 114.96 59.27 114.89C59.16 114.83 59 114.8 58.88 114.84C58.76 114.88 58.64 114.95 58.58 115.07C58.52 115.19 58.48 115.33 58.53 115.46H58.56Z" fill="#000100"/>
<path d="M146.38 27.1699C146.38 27.1699 158.87 27.6299 162.57 36.8499C163.88 40.1099 163.35 43.7599 161.52 46.7999C159.38 50.3499 155.33 54.3199 149.66 55.2099" stroke="#000100" stroke-miterlimit="10"/>
<path d="M129.04 44.63L130.2 46.91C130.32 47.14 130.67 47.23 130.88 47.09C131.12 46.94 131.19 46.66 131.06 46.41L129.9 44.13C129.78 43.9 129.43 43.81 129.22 43.95C128.98 44.1 128.91 44.38 129.04 44.63Z" fill="#000100"/>
<path d="M135.44 41.4702C134.64 43.9402 134.9 46.6302 136.11 48.9302C136.41 49.5002 137.27 49.0002 136.97 48.4302C135.89 46.3602 135.68 43.9602 136.4 41.7402C136.6 41.1302 135.63 40.8602 135.44 41.4702Z" fill="#000100"/>
<path d="M146.4 32.99C150.06 32.85 155.35 34.2 156.18 38.41C156.55 40.32 156 42.41 155.16 44.12C154.22 46.03 152.81 47.44 151 48.55C148.86 49.87 146.44 50.58 144.07 51.37C143.46 51.57 143.72 52.54 144.34 52.33C148.79 50.84 153.59 49.31 155.9 44.85C156.88 42.97 157.48 40.77 157.22 38.64C156.96 36.51 155.68 34.92 153.95 33.81C151.74 32.39 148.99 31.87 146.4 31.97C145.76 32 145.76 33 146.4 32.97V32.99Z" fill="#000100"/>
<path d="M110.61 38.4601C113.41 33.5201 116.53 28.4801 121.05 24.9201C126.09 20.9601 133.29 19.4301 139.48 21.2001C142.64 22.1101 146.07 24.3901 146.29 27.9901C146.33 28.6301 147.33 28.6301 147.29 27.9901C147.09 24.8001 144.67 22.3201 141.89 21.0401C138.76 19.5901 135.12 19.2801 131.72 19.6501C128.32 20.0201 124.96 21.1101 122.07 22.9701C119.48 24.6401 117.29 26.8701 115.39 29.2801C113.25 32.0001 111.44 34.9601 109.73 37.9601C109.41 38.5201 110.28 39.0301 110.59 38.4601H110.61Z" fill="#000100"/>
<path d="M114.29 46.8398C120.11 46.2298 126.02 45.6298 131.6 43.7798C136.49 42.1698 141.24 39.5698 144.38 35.3798C145.99 33.2298 147.06 30.6998 147.28 28.0098C147.33 27.3698 146.33 27.3698 146.28 28.0098C145.89 32.8098 142.53 36.8098 138.64 39.3798C134.28 42.2598 129.15 43.7098 124.05 44.5998C120.82 45.1598 117.55 45.5098 114.29 45.8498C113.66 45.9198 113.65 46.9198 114.29 46.8498V46.8398Z" fill="#000100"/>
<path d="M113.71 45.7501C113.71 45.7501 113.68 45.7501 113.66 45.7401L113.39 46.7001C115.28 47.1001 117.15 47.6501 119.01 48.1701C122.77 49.2101 126.51 50.3501 130.17 51.7101C132.12 52.4401 134.06 53.2301 135.9 54.2201C136.47 54.5301 136.97 53.6601 136.4 53.3601C133 51.5201 129.27 50.2601 125.6 49.0901C122.31 48.0401 118.98 47.1001 115.64 46.2401C114.98 46.0701 114.32 45.8901 113.66 45.7501C113.03 45.6201 112.77 46.5601 113.39 46.7101C113.41 46.7101 113.42 46.7101 113.44 46.7201C114.07 46.8701 114.33 45.9001 113.71 45.7601V45.7501Z" fill="#000100"/>
<path d="M131.31 72.96C134.73 72 138.26 69.8 140 66.62C140.78 65.19 141.03 63.54 141.09 61.93C141.15 60.32 140.95 58.84 140.34 57.42C139.56 55.62 138.15 54.27 136.45 53.35C135.88 53.04 135.38 53.91 135.95 54.21C137.34 54.96 138.52 56 139.25 57.43C139.88 58.67 140.11 60.07 140.11 61.45C140.11 62.83 139.96 64.44 139.34 65.74C138.65 67.18 137.52 68.38 136.27 69.36C134.73 70.57 132.93 71.47 131.05 72C130.43 72.17 130.69 73.14 131.32 72.96H131.31Z" fill="#000100"/>
<path d="M108.21 51.1198C108.46 52.7598 109.04 54.3598 109.59 55.9098C110.36 58.0498 111.12 60.2398 112.06 62.3098C113.56 65.6198 116.18 68.4798 119.04 70.6798C120.07 71.4698 121.24 72.3498 122.51 72.6898C123.13 72.8598 123.4 71.8898 122.78 71.7298C121.77 71.4598 120.84 70.7798 120.01 70.1698C118.67 69.1898 117.44 68.0498 116.32 66.8198C115.08 65.4598 113.97 63.9498 113.15 62.2898C112.18 60.3298 111.48 58.1798 110.73 56.1198C110.11 54.4098 109.44 52.6598 109.17 50.8498C109.08 50.2198 108.11 50.4898 108.21 51.1198Z" fill="#000100"/>
<path d="M120.18 71.5601C121.9 72.6101 123.77 73.3401 125.8 73.5001C127.65 73.6501 129.5 73.3201 131.32 72.9701C131.95 72.8501 131.68 71.8901 131.05 72.0101C129.37 72.3301 127.67 72.6301 125.96 72.5101C124.06 72.3901 122.31 71.6801 120.69 70.7001C120.14 70.3701 119.64 71.2301 120.19 71.5601H120.18Z" fill="#000100"/>
<path d="M113.05 39.2902C110.79 37.3002 107.05 38.1802 104.03 40.7902C99.2802 38.9402 94.4402 39.6802 93.2102 42.4402C91.9802 45.2102 94.8402 48.9702 99.6002 50.8302C103.76 52.4602 107.99 52.1002 109.81 50.1302C110.44 49.7002 111.06 49.2202 111.63 48.6302C114.72 45.4502 115.33 41.2902 113.06 39.2902H113.05Z" stroke="#000100" stroke-miterlimit="10"/>
<path d="M97.7599 49.96C97.7599 49.96 83.3899 60.3 81.8299 69.83C81.3799 72.6 82.0099 75.3 84.3899 77.66C84.3899 77.66 94.3099 87.91 105.51 72.67C105.51 72.67 110.88 63.85 107.97 51.42" stroke="#000100" stroke-miterlimit="10"/>
<path d="M92.7402 42.4702C92.7402 42.4702 64.0302 30.3502 56.0802 43.4902C56.0802 43.4902 51.1802 52.2402 60.1002 56.8602C60.7702 57.2102 61.5202 57.5302 62.3502 57.8302C66.3002 59.2302 70.6102 59.4602 74.7702 58.7902C80.3902 57.8802 89.4602 54.9002 97.7502 49.9602" stroke="#000100" stroke-miterlimit="10"/>
<path d="M93.2198 42.4401C93.2198 42.4401 71.1098 27.0801 86.3998 15.1101C86.3998 15.1101 99.7198 5.17006 108.5 18.8901C108.5 18.8901 113.46 26.0001 109.46 38.5201" stroke="#000100" stroke-miterlimit="10"/>
<path d="M23.7298 62.14C26.6398 58.96 31.4798 57.84 35.5698 58.97C36.1898 59.14 36.4598 58.18 35.8398 58.01C31.4198 56.79 26.1598 58 23.0198 61.44C22.5898 61.91 23.2898 62.62 23.7298 62.15V62.14Z" fill="#000100"/>
<path d="M35.5699 58.9798C39.5799 60.3398 43.3699 63.0798 44.8499 67.1998C45.0699 67.7998 46.0299 67.5398 45.8099 66.9298C44.2099 62.4698 40.2099 59.4898 35.8399 58.0198C35.2299 57.8098 34.9699 58.7798 35.5699 58.9798Z" fill="#000100"/>
<path d="M24.4301 74.76C27.8201 77.49 32.3001 78.55 36.5801 77.95C37.2101 77.86 36.9401 76.9 36.3101 76.99C32.4201 77.54 28.2101 76.54 25.1301 74.05C24.6301 73.65 23.9201 74.35 24.4201 74.76H24.4301Z" fill="#000100"/>
<path d="M22.9399 61.5399C21.3999 63.7099 20.8099 66.2899 21.2099 68.9099C21.5699 71.2399 22.8399 73.0599 24.4199 74.7599C24.8599 75.2299 25.5699 74.5199 25.1299 74.0499C23.6999 72.5099 22.5499 70.8999 22.1999 68.7899C21.7999 66.3799 22.3899 64.0199 23.7999 62.0399C24.1699 61.5099 23.3099 61.0099 22.9399 61.5399Z" fill="#000100"/>
<path d="M50.2199 63.3102L49.9099 62.6002C47.8999 58.0702 44.9299 53.7802 40.1199 51.4402C34.9199 48.9102 28.1499 49.4502 23.1099 52.0602C17.9599 54.7202 14.6599 58.4902 13.5499 65.1402C12.9899 68.4902 13.7299 72.1002 15.8899 74.8402C17.6199 77.0502 20.2199 78.5902 22.9999 79.4802C26.6599 80.6502 30.7599 80.9402 34.5799 80.4002" stroke="#000100" stroke-miterlimit="10"/>
<path d="M110.9 225.79C117.15 233.64 114.99 242.89 106.07 246.47C97.1498 250.05 84.8598 246.58 78.6098 238.73C72.3598 230.88 74.5198 221.63 83.4398 218.05C92.3598 214.48 104.65 217.94 110.9 225.79Z" stroke="#000100" stroke-miterlimit="10"/>
<path d="M191.58 219.62C185.37 229 173.52 233.3 165.11 229.22C156.7 225.15 154.91 214.25 161.12 204.87C167.33 195.49 179.18 191.19 187.59 195.27C196 199.34 197.79 210.24 191.58 219.62Z" stroke="#000100" stroke-miterlimit="10"/>
<path d="M166.82 156.61C155.72 155.61 143.13 159.36 136.23 168.54C133.08 172.74 131.26 178.06 131.73 183.34C132.17 188.23 134.64 193.05 138.03 196.56C139.9 198.49 142.17 200.05 144.73 200.9C147.49 201.82 150.44 201.82 153.25 201.12C153.87 200.97 153.61 200 152.98 200.16C150.56 200.76 148.04 200.81 145.63 200.13C143.42 199.5 141.41 198.31 139.7 196.78C136.26 193.69 133.67 189.18 132.89 184.61C132.04 179.63 133.47 174.47 136.21 170.29C139.17 165.79 143.64 162.51 148.55 160.41C154.27 157.96 160.63 157.04 166.81 157.6C167.45 157.66 167.45 156.66 166.81 156.6L166.82 156.61Z" fill="#000100"/>
<path d="M106.4 153.68C112.36 150.02 118.37 146.36 124.81 143.61C128.06 142.22 131.44 141.07 134.89 140.29C138.02 139.59 141.98 139.1 144.64 141.36C146.06 142.57 146.29 144.45 145.95 146.21C145.57 148.2 144.36 149.82 143.62 151.67C143.38 152.27 144.35 152.53 144.58 151.94C145.29 150.19 146.41 148.66 146.85 146.79C147.21 145.25 147.25 143.41 146.46 141.98C144.85 139.07 140.88 138.5 137.91 138.78C134.15 139.13 130.41 140.35 126.9 141.69C123.39 143.03 120.09 144.62 116.83 146.38C113.11 148.39 109.5 150.6 105.89 152.81C105.34 153.15 105.84 154.01 106.39 153.67L106.4 153.68Z" fill="#000100"/>
<path d="M93.22 153.32C99.44 157.39 105.67 161.47 111.89 165.54C112.43 165.89 112.93 165.03 112.39 164.68C106.17 160.61 99.94 156.53 93.72 152.46C93.18 152.11 92.68 152.97 93.22 153.32Z" fill="#000100"/>
<path d="M93.5901 149.98C94.3101 148.55 96.5701 148.91 97.7701 149.34C99.8301 150.08 101.68 151.37 103.53 152.52C107.42 154.92 111.33 157.28 115.23 159.66C117.42 160.99 119.6 162.33 121.78 163.68L122.17 162.77C113.54 159.67 104.92 156.52 96.2901 153.42C95.6801 153.2 95.0801 152.99 94.4701 152.77C94.0301 152.61 93.5801 152.44 93.3801 151.99C93.0801 151.31 93.2101 150.23 93.9101 149.85C94.4801 149.55 93.9701 148.68 93.4101 148.99C92.1001 149.69 91.8501 151.83 92.8001 152.92C93.4601 153.68 94.6901 153.91 95.5901 154.23C96.7801 154.66 97.9801 155.09 99.1701 155.52C104.06 157.29 108.95 159.06 113.84 160.83C116.52 161.8 119.21 162.77 121.9 163.73C122.45 163.93 122.75 163.11 122.29 162.82C118.1 160.22 113.89 157.68 109.68 155.12C107.61 153.86 105.54 152.6 103.48 151.32C101.53 150.11 99.5501 148.77 97.3101 148.16C95.8301 147.75 93.5101 147.95 92.7301 149.5C92.4401 150.07 93.3001 150.58 93.5901 150V149.98Z" fill="#000100"/>
<path d="M143.76 152.27L146.19 159.87C146.39 160.48 147.35 160.22 147.15 159.6L144.72 152C144.52 151.39 143.56 151.65 143.76 152.27Z" fill="#000100"/>
<path d="M94.6698 161.94C94.3798 162.4 94.3998 162.84 94.4898 163.36C94.7098 164.59 94.9298 165.8 95.0798 167.04C95.2798 168.65 95.4198 170.27 95.5298 171.9C95.5798 172.54 96.5798 172.54 96.5298 171.9C96.3598 169.55 96.1498 167.19 95.7698 164.86C95.6898 164.36 95.5898 163.86 95.4998 163.37C95.4698 163.23 95.4498 163.08 95.4198 162.94C95.3898 162.79 95.4198 163.02 95.4198 162.89C95.4198 162.84 95.4198 162.79 95.4198 162.74C95.4198 162.65 95.4298 162.61 95.4198 162.73C95.4198 162.69 95.4298 162.65 95.4498 162.61C95.5098 162.5 95.3898 162.73 95.4598 162.59C95.4898 162.54 95.5098 162.5 95.5398 162.45C95.8798 161.9 95.0198 161.4 94.6798 161.95L94.6698 161.94Z" fill="#000100"/>
<path d="M107.57 154.48C110.6 153.4 114.04 152.4 117.73 151.56C131.14 148.5 142.74 148.69 143.65 151.99C144.56 155.29 134.42 160.44 121.02 163.5C107.61 166.56 96.0102 166.37 95.1002 163.07C94.6502 161.42 96.9502 159.31 101.03 157.23" stroke="#000100" stroke-miterlimit="10"/>
<path d="M152.1 205.57C154.08 198.24 157.41 191.2 162.58 185.57C167.5 180.22 174.05 176.29 181.21 174.89C188.73 173.42 196.95 174.94 203.25 179.38C206.28 181.51 208.78 184.4 210.02 187.93C211.33 191.66 211.33 195.72 210.86 199.6C209.94 207.22 206.92 214.52 202.48 220.74C198.4 226.46 193.22 231.28 186.8 234.22C180.55 237.09 173.43 238.57 166.55 238.11C158.42 237.57 150.52 234.89 142.3 235.99C138.41 236.51 134.63 237.82 131.12 239.54C127.61 241.26 124.67 243.38 121.64 245.65C118.61 247.92 115.59 250.11 112.1 251.51C108.24 253.06 104.15 254.03 100.04 254.58C98.0402 254.85 96.0302 255 94.0202 255.08C93.3802 255.11 93.3702 256.1 94.0202 256.08C94.7002 256.06 95.3802 256.03 96.0602 256.01C96.7002 255.99 96.7102 254.99 96.0602 255.01C87.8602 255.26 79.7102 252.74 73.0102 248.04L72.5102 248.9C72.9302 249.12 73.3402 249.34 73.7602 249.56C74.3302 249.86 74.8302 249 74.2602 248.7C67.5902 245.14 61.5202 239.75 58.0502 232.96C56.3802 229.7 55.4002 226.07 55.5302 222.39C55.6602 218.71 57.0102 215.05 58.9102 211.87C62.6502 205.63 68.8402 201.28 75.9202 199.67C82.6302 198.15 89.7402 198.91 96.2302 201.02C103.24 203.3 109.95 207.3 114.66 213.05C114.76 213.17 115 213.24 115.15 213.18C125.82 208.87 135.93 197.39 132.93 185.15C131.42 178.98 126.61 173.85 120.82 171.4C114.28 168.63 106.63 168.89 99.8102 170.39C91.8002 172.14 84.1402 176.02 78.3402 181.87C77.8902 182.33 78.5902 183.04 79.0502 182.58C84.0002 177.58 90.3402 174.08 97.0702 172.12C103.8 170.16 110.98 169.51 117.61 171.35C123.66 173.02 129.01 177.37 131.29 183.31C133.33 188.62 132.43 194.43 129.72 199.32C126.49 205.16 121.03 209.73 114.87 212.23L115.36 212.36C111 207.04 104.95 203.23 98.5702 200.81C92.1902 198.39 84.5702 197.21 77.5202 198.36C70.4702 199.51 63.6702 203.43 59.3302 209.43C57.1002 212.52 55.3802 216.19 54.7702 219.96C54.1602 223.73 54.6802 227.35 55.9902 230.8C59.1202 238.99 66.1302 245.51 73.7402 249.57L74.2402 248.71C73.8202 248.49 73.4102 248.27 72.9902 248.05C72.4102 247.75 71.9602 248.55 72.4902 248.91C79.3302 253.71 87.6902 256.27 96.0502 256.02V255.02C95.3702 255.04 94.6902 255.07 94.0102 255.09V256.09C102.11 255.76 110.65 254.21 117.57 249.77C120.81 247.69 123.74 245.17 126.96 243.07C130.41 240.82 134.18 239.04 138.14 237.9C142.41 236.68 146.79 236.52 151.19 236.97C155.59 237.42 159.55 238.29 163.74 238.83C170.84 239.75 178.08 238.74 184.75 236.17C187.98 234.92 191.1 233.32 193.87 231.23C196.64 229.14 199.3 226.4 201.56 223.6C206.31 217.69 209.75 210.69 211.27 203.24C212.09 199.26 212.46 195.07 211.82 191.03C211.23 187.35 209.63 183.99 207.04 181.3C201.72 175.75 193.55 173.14 185.98 173.35C178.55 173.56 171.4 176.58 165.68 181.26C159.96 185.94 155.55 192.74 152.88 199.86C152.21 201.65 151.63 203.47 151.14 205.31C150.97 205.93 151.94 206.2 152.1 205.58V205.57Z" fill="#000100"/>
<path d="M56.4799 215.06C56.4799 215.06 37.7099 208.41 41.7399 179.85C41.7399 179.85 46.4799 154.18 70.8199 139.74" stroke="#000100" stroke-miterlimit="10"/>
<path d="M114.67 213.01C115.32 213.57 115.93 214.18 116.48 214.84C116.65 215.04 117.02 215.03 117.19 214.84C117.39 214.63 117.37 214.35 117.19 214.13C116.64 213.47 116.03 212.86 115.38 212.3C115.28 212.21 115.17 212.15 115.03 212.15C114.91 212.15 114.76 212.2 114.68 212.3C114.51 212.49 114.47 212.83 114.68 213.01H114.67Z" fill="#000100"/>
<path d="M155.08 115.42C155.08 115.42 186.05 116.67 205.84 139C205.99 139.17 206.14 139.34 206.28 139.52C211.14 145.75 214.4 153.09 213.47 158.67C213.47 158.67 213.84 163.72 212.54 169.27C211.15 175.18 207.54 181.51 207.54 181.51" stroke="#000100" stroke-miterlimit="10" stroke-linecap="round"/>
<path d="M110.7 105.37C109.17 104.61 106.95 106.22 105.04 107.82C102.47 107.38 99.7102 107.13 98.8102 108.59C97.7802 110.27 99.3102 112.37 102.24 113.26C102.69 113.4 103.14 113.49 103.59 113.55C105.02 113.76 106.22 113.8 107.6 113.2C108.24 112.98 108.97 112.36 108.97 112.36C109.48 111.98 109.97 111.56 110.41 111.06C112.39 108.8 112.52 106.24 110.71 105.35L110.7 105.37Z" stroke="#000100" stroke-miterlimit="10"/>
<path d="M110.799 127.211C115.809 126.367 119.353 122.606 118.714 118.81C118.074 115.014 113.494 112.621 108.484 113.465C103.473 114.309 99.9299 118.07 100.569 121.866C101.209 125.662 105.789 128.055 110.799 127.211Z" stroke="#000100" stroke-miterlimit="10"/>
<path d="M101.08 122.48C101.68 121.28 103.07 120.45 104.32 120.08C105.97 119.59 107.8 120.08 109.31 120.77C109.53 120.87 109.88 120.86 109.99 120.59C110.75 118.86 112.47 117.81 114.32 117.63C115.49 117.51 117.87 117.46 118.29 118.9C118.47 119.52 119.43 119.25 119.25 118.63C118.69 116.71 116.13 116.48 114.47 116.61C112.24 116.79 110.05 117.96 109.12 120.08L109.8 119.9C108.04 119.1 105.96 118.54 104.04 119.11C102.55 119.55 100.92 120.55 100.2 121.97C99.91 122.54 100.77 123.05 101.06 122.47L101.08 122.48Z" fill="#000100"/>
<path d="M191.72 182.27C190.34 180.37 188.12 179.41 186.44 180.1C184.55 180.88 184.06 183.46 185.36 185.86C185.93 186.92 186.94 187.8 187.67 188.32C188.2 188.7 188.67 188.97 189.59 188.99C189.89 189.02 190.18 189.01 190.47 188.96C191.41 188.88 192.62 188.64 194.17 188.21C197.41 187.33 199.19 184.79 198.41 183.18C197.66 181.64 194.72 181.25 191.73 182.26L191.72 182.27Z" stroke="#000100" stroke-miterlimit="10"/>
<path d="M172.01 185.68C170.56 185.3 169.15 185.56 168.71 186.36C168.21 187.25 169.12 188.48 170.75 189.09C171.47 189.36 172.31 189.43 172.85 189.43C173.25 189.43 173.58 189.4 174 189.14C174.15 189.06 174.27 188.97 174.38 188.87C174.76 188.55 175.2 188.09 175.7 187.45C176.75 186.11 176.44 184.52 175.39 184.08C174.38 183.66 172.9 184.38 172.01 185.7V185.68Z" stroke="#000100" stroke-miterlimit="10"/>
<path d="M202.88 192.27C202.75 190.98 201.94 190 200.92 190.01C199.77 190.01 198.8 191.27 198.75 192.8C198.73 193.48 198.97 194.16 199.18 194.58C199.33 194.89 199.48 195.13 199.93 195.34C200.07 195.42 200.21 195.48 200.37 195.51C200.86 195.67 201.51 195.8 202.39 195.91C204.22 196.14 205.82 195.19 205.9 194.18C205.98 193.21 204.65 192.38 202.9 192.27H202.88Z" stroke="#000100" stroke-miterlimit="10"/>
<path d="M73.5799 210.41C70.9299 210.18 68.5899 211.07 68.1199 212.6C67.5899 214.32 69.6299 216.19 72.6799 216.77C74.0299 217.03 75.4999 216.89 76.4499 216.72C77.1399 216.6 77.6999 216.45 78.3299 215.85C78.5499 215.67 78.7399 215.47 78.8799 215.25C79.4299 214.58 79.9999 213.64 80.6299 212.36C81.9499 209.69 80.7999 206.99 78.8199 206.54C76.9199 206.11 74.6299 207.82 73.5799 210.4V210.41Z" stroke="#000100" stroke-miterlimit="10"/>
<path d="M63.5198 224.75C63.5898 224.97 63.5198 225.2 63.3298 225.34C62.2698 226.12 61.7398 227.13 62.1198 227.83C62.5898 228.7 64.2698 228.76 65.8698 227.98C66.5798 227.63 67.1798 227.08 67.5298 226.7C67.7898 226.42 67.9698 226.17 68.0098 225.72C68.0398 225.57 68.0398 225.43 68.0098 225.29C67.9798 224.84 67.8398 224.27 67.5998 223.54C67.0898 222.03 65.4598 221.33 64.3898 221.81C63.4498 222.23 63.1098 223.48 63.5098 224.75H63.5198Z" stroke="#000100" stroke-miterlimit="10"/>
<path d="M92.76 208.07C91.8 207.09 90.47 206.68 89.6 207.17C88.63 207.72 88.62 209.19 89.58 210.46C90.01 211.02 90.66 211.46 91.11 211.7C91.44 211.88 91.73 212 92.25 211.96C92.42 211.96 92.58 211.94 92.74 211.89C93.26 211.79 93.9 211.58 94.72 211.25C96.43 210.56 97.16 209.04 96.57 208.18C96 207.36 94.32 207.32 92.76 208.06V208.07Z" stroke="#000100" stroke-miterlimit="10"/>
<path d="M92.99 266.58C92.27 266.58 91.55 266.52 90.84 266.4C70.83 263.15 51.09 252.74 43.81 234.17C42.78 231.54 42.03 228.76 41.86 225.93C41.7 223.27 42.59 220.35 41.53 217.81C40.74 215.91 38.48 214.96 37.12 213.46C32.48 208.33 30.34 201.74 29.57 194.97C28.16 182.55 29.69 171.16 35.56 160.02C38.45 154.54 42.91 150.24 46.11 145C47.39 142.91 44.04 141.34 42.55 140.49C39.95 139 37.87 137.25 35.54 135.4C31.91 132.52 28.65 129.23 25.92 125.59C18.45 115.61 14.88 102.21 17.94 90.3699C17.98 90.2299 18.01 90.0698 17.94 89.9398C17.87 89.7998 17.7 89.7298 17.55 89.6698C15.38 88.7898 13.11 87.8899 11.32 86.4099C8.98003 84.6299 6.91003 82.4098 5.19003 80.0998C-2.27997 70.0698 -0.409966 58.0399 7.72003 48.8799C11.45 44.6699 16.04 42.0499 21.5 40.1799C24.79 39.0599 28.07 38.6199 31.56 38.6199C33.36 38.6199 35.15 38.7899 36.92 39.0399C38.03 39.1899 40.86 40.1299 41.86 39.6599C42.07 39.5599 42.24 39.3899 42.4 39.2299C45.68 35.9399 48.97 32.4998 53.06 30.0498C57.74 27.2498 62.88 26.7699 68.27 26.1199C68.39 26.1099 68.51 26.0898 68.59 26.0098C68.68 25.9198 68.69 25.7798 68.69 25.6598C68.7 23.5698 68.69 21.4798 68.9 19.3998C69.09 17.5298 69.23 15.5898 70.02 13.8398C73.43 6.25985 82.01 1.56985 90.58 0.679849C98.01 -0.0901506 106 1.66985 111.68 6.32985C112.04 6.62985 112.4 6.93985 112.74 7.25985C113.8 8.24985 115.54 11.3398 117.01 11.6698C117.69 11.8198 118.37 11.4798 118.98 11.1598C123.29 8.93985 128.11 7.88985 133.03 7.88985C138.58 7.88985 144.27 9.14985 148.93 12.0198C151.32 13.4898 152.74 15.5898 154.8 17.2598C157.67 19.5798 161.64 20.5698 164.7 22.7198C167.98 25.0198 170.74 27.9598 172.13 31.5798C173.85 36.0498 174.32 40.7899 173.72 45.4899C173.18 49.6999 170.55 51.4799 168.07 54.7299C165.15 58.5599 174.01 63.2998 175.46 66.3498C177.62 70.8998 178.02 76.9798 178.35 81.8898C178.63 86.1498 178.31 90.4498 177.41 94.6398C176.96 96.7398 176.35 98.8098 175.6 100.83C174.95 102.57 173.62 104.43 173.4 106.26C173.09 108.79 176.02 109.2 177.99 109.66C188.78 112.2 199.12 118.46 207.22 125.44C214.14 131.41 220 138.54 222.71 147.04C224.52 152.71 224.48 158.79 223.92 164.62C223.67 167.19 223.41 170.1 222.81 172.76C222.24 175.27 220.46 177.55 220.3 180.15C220.08 183.9 222.45 187 222.86 190.59C223.32 194.58 223.09 198.63 222.45 202.59C221 211.55 217.23 220.29 211.54 227.88C205.67 235.7 198.61 241.43 190.55 244.91C183.3 248.04 175.54 249.69 168.11 249.69C166.61 249.69 165.1 249.62 163.64 249.49C160.67 249.22 157.87 248.77 155.17 248.34C151.68 247.78 148.39 247.25 145.49 247.25C143.91 247.25 142.54 247.41 141.29 247.73C138.55 248.44 135.81 249.66 133.15 251.36C131.8 252.22 130.4 253.27 128.92 254.38C127.33 255.57 125.69 256.8 123.85 258.01C116.78 262.64 107.84 265.44 97.26 266.32C96.71 266.41 96.14 266.47 95.58 266.5L93.26 266.58H93.01H92.99Z" stroke="#000100" stroke-miterlimit="10"/>
</g>
<defs>
<clipPath id="clip0_694_1153">
<rect width="224.75" height="267.08" fill="white"/>
</clipPath>
</defs>
</svg>
