<svg width="338" height="311" viewBox="0 0 338 311" fill="none" xmlns="http://www.w3.org/2000/svg">
<g clip-path="url(#clip0_694_1154)">
<path d="M13 266.66V278.73L15.47 282.04L25.67 283.49L36.43 283.22L43.63 281.42L46.36 278.73L46.71 273.83L47.06 268.02V265.61L44.15 262.88L36.93 261.14H22.73L16.71 262.43L13.67 263.92L13 266.66Z" fill="#CEE8E9"/>
<path d="M29.8301 270.52C39.346 270.52 47.0601 268.322 47.0601 265.61C47.0601 262.898 39.346 260.7 29.8301 260.7C20.3142 260.7 12.6001 262.898 12.6001 265.61C12.6001 268.322 20.3142 270.52 29.8301 270.52Z" stroke="#000100" stroke-miterlimit="10"/>
<path d="M46.3698 273.55C46.9298 273.55 46.3898 278.33 46.3698 278.73C46.1798 281.58 37.7698 283.64 29.6898 283.64C20.4798 283.64 13.0898 281.8 13.1498 279.15" stroke="#000100" stroke-miterlimit="10"/>
<path d="M12.5698 265.6L13.1198 279.45" stroke="#000100" stroke-miterlimit="10" stroke-linecap="round"/>
<path d="M47.0599 265.61L46.3599 278.87" stroke="#000100" stroke-miterlimit="10"/>
<path d="M29.05 293.54C27.43 293.54 25.77 293.48 24.12 293.36C19.06 292.98 12.56 292.68 8.20003 289.86C4.40003 287.4 1.12003 283.05 0.920033 278.39C0.720033 273.82 0.510033 269.23 0.500033 264.66C0.490033 260.86 2.75003 257.33 5.67003 255.06C7.39003 253.73 9.45003 252.66 11.98 251.79C12.15 251.73 12.33 251.67 12.51 251.62C14.85 250.87 17.54 250.29 20.52 249.91C23.32 249.55 26.23 249.37 29.2 249.37C32.17 249.37 35.08 249.55 37.87 249.91C37.91 249.91 37.94 249.91 37.97 249.92C55.3 252.19 57.89 260.27 57.89 264.9V267.31C57.89 267.51 57.89 267.71 57.87 267.9L57.52 273.71L57.17 278.6C57.02 281.32 55.7 286.82 47.99 290.28C45.16 291.55 41.63 292.48 37.5 293.02C37.43 293.02 37.37 293.04 37.3 293.05C34.66 293.39 31.88 293.56 29.05 293.56V293.54Z" stroke="#000100" stroke-miterlimit="10"/>
<path d="M189.81 52.6598L191.14 55.5398L192.7 57.8398L193.93 60.0898L196.31 61.7898L198.85 62.4898L202.92 61.0698L207.22 56.0198L205.95 52.0098L204.01 50.2998L201.59 50.2598L197.92 51.4598L196.44 49.8798L192.93 48.5898" fill="#BC6981"/>
<path d="M158.3 228.42L161.83 231L170.52 237.96L176.31 240.64L179.42 241.02L177.46 247.08L167.14 250.78L156.98 255.92L144 263.67L139.63 267.32L136.77 270.33L130.65 280.42L126.1 285.09L121.89 287.72L117.64 290.83L114.71 291.83L104.23 296.58L89.2997 299.04L86.8497 299.64H82.2197L79.1597 296.67L80.2997 293.3L82.9297 292.21L89.5997 291.07L96.3197 288.36L104.42 283.45L111.75 277.39L117.71 270.33L120.59 265.07L126.62 256.15L129.21 251.61L131.62 246.64L137.69 238.35L142.6 234.31L147.38 231L152.46 229.85L158.3 228.42Z" fill="#BC6981"/>
<path d="M196.07 161.22L212.86 179.54L224.05 186.98L232.6 191.02L239.7 193.47L244 195.16L237.01 200.84L230.04 202.2L223.94 204.6L220.03 207.66L215.48 214.98L213.74 219.66L211.55 221.84L207.19 226.32L201.53 225.66L194.71 221.84L191.42 221.2L189.18 218.42L191.42 215.08L193.95 209.97L194.71 204.56L194.54 200.22L194.06 195.04L190.92 187.49L186.76 182.24L183.7 180.25V178.04L187.15 173.35L189.18 170.59L192.22 166.46L196.07 161.22Z" fill="#BC6981"/>
<path d="M198.08 159.73L193.28 165.85L190.24 169.98L183.9 178.11L187.82 181.63L191.98 186.89L195.11 194.43L195.59 199.61L194.19 209.19L190.23 217.81L185.66 221.88L180.88 224.39L174.76 225.56L168.32 225.6L163.8 224.1L159.59 225.44L159.28 229.02L151.73 230.5L141.87 234.96L134 243.05L129.2 251.62L125.89 256.8L122.93 261.18L121.16 264.55L112.59 257.67L101.82 247.3L95.6499 239.57L92.4099 234.83L86.6499 222.35L83.2999 205.94L83.1499 192.93L85.2799 184.75L90.8999 168.81L95.8099 157.78L117.42 131.64L109.02 120.81L104.16 103.48L105.35 87.4896C105.35 87.4896 106.74 83.1896 107.33 81.8696C107.92 80.5496 112.4 73.1996 112.4 73.1996L119.02 66.0796L125.7 61.0896L133.08 57.1096L141.51 53.9496L153.23 51.4296L156.58 51.0496L159.84 50.8096L163.62 53.9396L168.31 56.4896L174.52 58.1596L177.58 58.3396L183.99 58.0296L178.92 62.2796L174.93 64.9496L171.61 69.6696L168.98 74.2996L168.75 78.9596L170.94 83.8396L174.93 87.1196L180.6 88.8396L187.24 88.3196L192.52 84.3896L195.49 79.3796L197.2 74.2896L198.16 69.6196L198.66 65.7596L200.49 71.5896C200.49 71.5896 201.83 76.1696 202.25 77.2096C202.67 78.2496 206.36 84.6896 206.36 84.6896L211.65 89.1296L216.05 90.4496L221.25 90.1196L224.75 88.8296L228.56 85.7996L230.84 82.7496L232.94 81.8496L235 84.4596L237.3 87.9096L240.46 94.4296L242.68 101.23V106.71L241.96 115.19L241.14 119.17L238.89 126.7L235.87 133L231.91 138.7L227.92 142.99L223.48 146.75L218.3 149.8L213.12 152.97L206.57 155.63C206.57 155.63 202.73 156.91 199.36 158.31C197.25 159.18 196.55 159.82 198.07 159.72L198.08 159.73Z" fill="#E3B778"/>
<path d="M146.43 51.6102L145.88 43.7402L144.64 39.7602L141.06 36.8802L134.56 33.6902L127.31 32.7002L122.32 33.5702L116.87 36.2802L111.65 41.4202L110.31 43.8102L109.29 46.3702V48.9702L109.94 52.3902L111.19 54.8702L113.55 57.5702L115.47 59.5402L120.74 61.9102L123.52 62.8702L127.31 60.1402L124.74 58.2202L121.34 55.9202L117.48 53.0102L115.47 48.1102L117.04 42.7102L122.32 39.3902L126.72 39.1402L131.39 39.9102L135.05 42.7102L137.56 47.7902L138.74 50.9902V53.3402V54.4602L140.79 54.1302L143.66 53.5102L146.26 52.7402L146.43 51.6102Z" fill="#E3B778"/>
<path d="M244.68 53.4096L247.53 56.6296L249.91 59.4496C249.91 59.4496 251.36 63.1796 251.41 63.4096C251.46 63.6396 251.68 67.8196 251.68 67.8196C251.68 67.8196 250.67 70.9496 250.67 70.9596C250.67 70.9696 248.18 75.8496 248.18 75.8496C248.18 75.8496 244.9 78.4096 244.79 78.4896C244.68 78.5696 242.94 79.6496 242.94 79.6496L238.83 81.2896H236.57L231.11 81.7496L229.95 78.4996V76.9596L233.95 77.3096L238.81 75.4596L242.3 73.3196L245.06 69.3396V65.6996L243.48 60.9696L240.31 58.4796L239.91 57.0596L242.55 54.7396L243.86 53.0596L244.68 53.4296V53.4096Z" fill="#E3B778"/>
<path d="M135.07 272.83C135.07 272.83 142.22 275.12 143.02 275.37C143.82 275.62 153.89 278.52 154.6 278.7C155.31 278.88 171.25 282.12 171.25 282.12L186.37 282.73C186.37 282.73 196.3 281.21 196.91 281.02C197.52 280.83 209.49 275.36 209.49 275.36L214.91 270.16L217.86 265.07L219.78 258.91L222.56 260.8L232.52 261.39L239.12 259.67L244.26 258.63L247.79 255.88L253.16 251.02L256.66 244.08L259.66 236.67L261.59 224.6L260.15 215.59L258.08 211.45L254.19 207.16L245.05 202.55L238.06 201.27L231.33 201.75L224.63 203.89L216.94 211.52L213.72 219.64L212.6 222.26L207.17 227.12L204.03 229.27L195.76 233.51L186.89 235.71L183.2 238.81L178.69 241.88L176.33 246.18L166.41 251.63L156.25 256.78L143.27 264.52L138.89 268.17L136.03 271.18" fill="#E3B778"/>
<path d="M251.85 188.25L253.45 188.7L253.56 193.05L251.84 198.14L248.05 201.71L246.09 203.08L239.58 201.68L237.42 200.46" fill="#E3B778"/>
<path d="M166.5 117.89L167.43 121L168.93 122.92L171.39 124.85H175.62L178.87 122.33L180.21 121L180.89 118.05L178.1 116.38L175.02 116.7L172.58 115.38L169.22 114.59L167.12 115.55L166.5 117.89Z" fill="#BC6981"/>
<path d="M239.81 57.8896L244.1 62.8097L245.06 65.6897V69.3297L240.55 74.4896L237.03 76.3796L232.65 77.1897L229.95 76.9596L227.53 73.9097L223.57 69.0296C223.57 69.0296 220.5 65.9597 220.13 65.6096C219.76 65.2596 219.04 63.9496 219.04 63.9496L220.56 61.2096L224.59 61.7596L231.11 60.5597L234.76 59.5496L237.92 58.2296L239.81 57.8997V57.8896Z" fill="#81644E"/>
<path d="M122.55 39.3896L127.09 39.1396L130.43 39.3896L133.88 41.4096L137.03 45.4496L139.01 49.8997L138.74 53.3396L139.52 54.8196L134.98 56.3097L131.04 59.0597L129.08 59.9296L127.7 60.6297L125.06 58.6696L121.54 56.3097L118.23 54.4796L116.54 50.9096L115.47 48.3196L115.78 45.4396L117.09 42.7896L122.55 39.3896Z" fill="#81644E"/>
<path d="M192.35 15.6297L189.81 19.0097L189.2 22.9497L188.36 33.0897L190.57 41.7597V43.6797L193.37 48.9797L195.66 49.2897L197.92 51.4797L199.16 52.4097L203.46 50.2497L204.45 50.6997L207.78 46.4697L210.53 41.8997L214.17 34.0297L215.51 29.0397L216.26 24.2497C216.26 24.2497 215.68 19.0497 215.05 19.0297C214.42 19.0097 213.84 16.2397 213.84 16.2397C213.84 16.2397 210.24 13.7997 209.91 13.6497C209.58 13.4997 204.76 12.1797 204.76 12.1797H199.39L196.01 12.9697L193.66 14.2297L192.35 15.6397V15.6297Z" fill="#EE342A"/>
<path d="M205.89 49.5397L210.78 44.6797L216.97 39.8997L226.22 35.4297H232.4L240.82 39.1897L243.57 43.4597L244.59 47.0897L244.69 51.7997L242.56 54.7297L237.35 58.8597L231.79 60.3697L229.16 60.8797C226.21 61.4497 223.18 61.4897 220.23 60.9297C219.52 60.7997 218.7 60.4997 217.98 60.4997L214.86 59.6497L209.19 58.2197L207.51 57.0297L206.64 56.4197L207.27 53.3097L206.39 52.3897L204.94 50.6297L205.89 49.5397Z" fill="#F68932"/>
<path d="M206.64 57.1299L211.11 58.6999L214.86 61.0699L220.13 65.5999L227.53 73.8999L230.57 80.2299L230.1 84.3199L228.11 87.8499L221.53 90.3399H214.59L208.98 87.7599L205.89 83.8999L202.53 77.4199L200.77 70.4899L198.94 65.9699L199.28 62.8799L202.74 60.5699C202.74 60.5699 205.06 59.2199 204.85 58.7699C204.64 58.3199 206.64 57.1499 206.64 57.1499V57.1299Z" fill="#F3D63F"/>
<path d="M190.25 54.9902L187.49 56.3602L184.27 58.2202L180.07 61.4102L176.82 64.0702L171.9 69.8602L169.27 74.4902L169.04 79.1502L170.14 82.0502L172.36 85.8502L176.82 88.0602L182.18 89.3002L187.53 88.5202L192.81 84.5902L196.32 78.2402L198.44 69.8202L199.28 62.8702L194.37 60.4702L191.57 55.9202" fill="#6EBE45"/>
<path d="M187.49 38.85L188.99 41.76L191.96 45.75L193.37 48.97L190.82 50.99L190.25 54.99L188.16 55.92L184.81 57.08L181.42 57.82L179.38 57.89L176.14 58.48L171.59 57.7L168.59 56.68L164.52 54.46L162.58 53.04L160.12 50.99L157.74 46.57L156.91 41.1L158.37 35.43L161.07 33.47L165.56 30.54L170.03 29.79L175.96 30.49L180.89 32.7L183.46 34.53L186.26 37.09L187.49 38.85Z" fill="#A881B0"/>
<path d="M197.22 161.48L210.88 177.47L217.71 182.57L225.19 187.23L230.01 189.66L236.14 191.69L244.09 194.6L252.39 187.7L258.67 182.35L268.58 173.81L286.11 159.73L306.99 142.07L319.25 131.7L318.86 128.55L317.41 123.04L308.66 111.23L298.02 101.25L282 87.4897L274.69 82.7797L266.73 79.4697L259.78 78.9697L257.23 79.0797L250.28 89.1597L242.66 99.5497L243.03 105.02V111.23L241.48 120.82L237.14 131.08L232.25 138.71L228.26 143L223.83 146.76L217.39 151.01L213.47 152.98L205.22 156.2L199.71 158.32L197.55 159.73" fill="#CEE8E9"/>
<path d="M240.88 122.999L243.23 122.549L245.01 121.899L249.07 122.549L252.55 124.879L255.19 129.899L256.31 134.119L257.62 139.479L261.65 138.329L266.36 138.149L270.95 138.549L274.95 141.859L277.01 147.929L275.9 152.869L267.81 160.489L255.76 163.199L242.65 162.319L237.74 160.119L232.84 151.639L231.73 140.579" fill="#BC6981"/>
<path d="M189.87 219.18L197.96 224.1L206.81 227.45L198.34 233.42L191.61 235.5L186.53 236.04L182.84 239.14L178.33 242.21L171.23 239.11L164.87 235.5L160.74 232.19L159.29 229.01V225.83L160.72 224.01L165.08 225.09L171.16 225.91L178.33 225.35L185.55 222.37L189.87 219.18Z" fill="#CEE8E9"/>
<path d="M233.21 82.05C244.59 95.54 244.77 109.16 239.98 124.5C231.17 152.69 194.05 166.99 157.05 156.44C120.06 145.89 97.2097 114.48 106.02 86.3C112.5 65.56 134.31 52.34 160.12 51" stroke="#000100" stroke-miterlimit="10"/>
<path d="M141.79 54.1299C139.7 54.6099 126.07 60.4199 127.4 60.1299" stroke="#000100" stroke-miterlimit="10"/>
<path d="M206.64 56.4101C208.8 58.6301 223.66 61.6401 223.66 61.6401C252.53 59.2301 243.27 42.8501 243.27 42.8501C228.4 22.0201 204.94 50.6301 204.94 50.6301C230.54 14.7301 204.76 12.1701 204.76 12.1701C177.77 8.56009 192 49.8301 193.37 48.9701C193.64 48.8001 195.39 49.1201 195.74 49.3301C197.31 50.3001 198.65 52.5301 198.65 52.5301C200.24 51.1901 201.58 50.6401 202.67 50.5101C204.48 50.2901 205.55 51.2201 205.8 51.5201C207.71 53.8301 206.64 56.4101 206.64 56.4101ZM206.64 56.4101C205.13 59.5701 199.16 62.9401 199.16 62.9401C193.44 62.1701 190.56 54.8101 190.56 54.8101M190.56 54.8101C189.72 52.3601 190.7 50.8401 191.7 49.9301C192.7 49.0201 193.73 48.7101 192.98 48.6901C192.78 48.1401 192.81 48.5201 192.6 48.0001C182.81 24.1701 165.56 30.5401 165.56 30.5401C165.56 30.5401 150.39 36.8801 160.12 50.9901C160.12 50.9901 172.86 65.0101 190.56 54.8101ZM190.56 54.8101C190.56 54.8101 154.63 72.7701 175.22 87.3101C175.22 87.3101 196.7 99.6901 199.18 63.1401" stroke="#000100" stroke-miterlimit="10"/>
<path d="M199.16 62.9495C203.69 99.0295 223.55 89.6695 223.55 89.6695C244.78 81.6595 211.74 58.6895 211.74 58.6895" stroke="#000100" stroke-miterlimit="10"/>
<path d="M243.41 52.3896C243.41 52.3896 256.95 61.7096 249.17 73.8396C249.17 73.8396 244.49 82.8096 231.11 81.9996" stroke="#000100" stroke-miterlimit="10"/>
<path d="M239.06 57.5996C239.06 57.5996 246.39 61.3896 244.88 68.4796C244.35 70.9696 242.65 73.0996 240.43 74.5896C237.97 76.2396 234.1 78.0196 229.63 77.2196" stroke="#000100" stroke-miterlimit="10"/>
<path d="M117.43 131.88C117.43 131.88 37.8896 205.09 121.17 264.55" stroke="#000100" stroke-miterlimit="10"/>
<path d="M211.08 228.42C211.08 228.42 214.84 200.36 237.04 201.34C237.04 201.34 268.07 201 260.39 234.29C260.39 234.29 254.45 259.1 238.34 260.27C238.34 260.27 224.4 262.96 219.89 259.31" stroke="#000100" stroke-miterlimit="10"/>
<path d="M152.39 165.26C152.39 165.26 208.96 174.41 192.92 213.8C192.92 213.8 185.46 232.11 161.41 223.54C161.41 223.54 154.1 224.54 135.15 203.7" stroke="#000100" stroke-miterlimit="10" stroke-linecap="round"/>
<path d="M184.63 235.67C186.42 235.99 188.26 236.05 190.08 235.98C191.8 235.91 193.62 235.78 195.26 235.21C199.68 233.69 203.27 230.7 206.75 227.67C208.9 225.8 210.97 223.84 212.97 221.81C213.42 221.35 212.71 220.64 212.26 221.1C208.89 224.54 205.29 227.77 201.47 230.71C199.72 232.06 197.78 233.12 195.73 233.95C194.18 234.58 192.56 234.82 190.9 234.92C188.91 235.05 186.86 235.04 184.9 234.69C184.27 234.58 184 235.54 184.63 235.65V235.67Z" fill="#000100"/>
<path d="M166.07 225.629C168.4 228.269 171.18 230.489 174.26 232.199C174.82 232.509 175.33 231.649 174.76 231.339C171.76 229.659 169.06 227.499 166.78 224.919C166.35 224.439 165.65 225.149 166.07 225.629Z" fill="#000100"/>
<path d="M174.52 232.31C177.72 233.89 181.12 235.02 184.63 235.67C185.26 235.79 185.53 234.82 184.9 234.71C181.47 234.08 178.15 232.99 175.02 231.45C174.44 231.17 173.94 232.03 174.52 232.31Z" fill="#000100"/>
<path d="M160.39 223.13C158.99 224.8 158.39 227 158.81 229.15C158.86 229.42 159.18 229.57 159.43 229.5C159.71 229.42 159.83 229.15 159.78 228.88C159.44 227.11 159.95 225.22 161.11 223.84C161.28 223.63 161.31 223.34 161.11 223.13C160.93 222.95 160.58 222.92 160.4 223.13H160.39Z" fill="#000100"/>
<path d="M186.56 235.379C184.9 236.769 183.24 238.169 181.59 239.559C180.95 240.099 180.3 240.819 179.53 241.189C178.9 241.489 178.08 241.459 177.4 241.419C175.78 241.319 174.37 240.319 172.98 239.539C171.4 238.649 169.83 237.729 168.27 236.799C167.72 236.469 167.21 237.339 167.77 237.659C169.45 238.659 171.14 239.649 172.84 240.599C174.37 241.459 175.79 242.349 177.58 242.419C178.33 242.449 179.15 242.429 179.85 242.129C180.59 241.809 181.21 241.169 181.81 240.659C183.63 239.129 185.44 237.599 187.26 236.079C187.75 235.669 187.04 234.959 186.55 235.369L186.56 235.379Z" fill="#000100"/>
<path d="M158.81 229.149C159.57 231.079 160.99 232.639 162.55 233.969C164.27 235.439 166.17 236.679 168.08 237.859C168.63 238.199 169.13 237.329 168.58 236.999C166.78 235.889 164.98 234.729 163.36 233.359C161.91 232.129 160.47 230.689 159.77 228.889C159.54 228.299 158.57 228.559 158.81 229.159V229.149Z" fill="#000100"/>
<path d="M158.92 228.65C149.66 229.37 140.73 233.85 134.69 240.94C133.04 242.88 131.62 245 130.48 247.27C130.19 247.84 131.05 248.35 131.34 247.77C135.37 239.76 142.88 233.79 151.38 231.12C153.83 230.35 156.36 229.85 158.92 229.65C159.56 229.6 159.56 228.6 158.92 228.65Z" fill="#000100"/>
<path d="M130.91 247.519C129.48 250.789 127.78 253.949 125.91 257.019C124.1 259.979 121.89 262.819 120.25 265.889C119.25 267.759 118.17 269.569 116.93 271.319C113.42 276.249 109.03 280.679 103.9 284.199C100.79 286.339 97.3998 288.129 93.8298 289.499C91.8498 290.259 89.7998 290.889 87.7198 291.389C86.6498 291.649 85.5598 291.869 84.4698 292.059C83.5498 292.219 82.5898 292.149 81.6798 292.409C79.6798 292.959 78.4798 295.549 79.5998 297.279C81.9298 300.869 87.7498 300.049 91.3598 299.159C91.2298 299.179 91.0898 299.199 90.9698 299.239C94.2898 298.629 97.5798 297.939 100.84 297.109C104.76 296.109 108.66 294.939 112.38 293.419C114.46 292.569 116.51 291.599 118.37 290.389C121.02 288.669 123.71 287.149 126.11 285.099C128.51 283.049 130.57 280.819 132.28 278.299C133.38 276.679 134.24 274.919 135.07 273.159C135.25 272.769 139.57 274.319 140.18 274.499C142.02 275.059 143.86 275.619 145.7 276.169C149.38 277.269 153.08 278.329 156.82 279.279C164.09 281.119 171.52 282.509 179.07 282.799C181.04 282.879 183 282.879 184.97 282.799C188.64 282.659 192.33 282.239 195.89 281.309C197.65 280.849 199.39 280.269 201.06 279.529C204.67 277.929 208.36 276.509 211.4 273.929C214.44 271.349 216.94 267.679 218.41 263.789C220.72 257.689 220.93 250.979 220.22 244.559C220.04 242.959 219.8 241.369 219.52 239.789C219.52 239.789 216.21 225.909 204.46 228.829" stroke="#000100" stroke-miterlimit="10"/>
<path d="M242.57 99.7296L257.14 79.2596C258.12 77.8796 262.75 78.7296 263.96 78.9796C273.37 80.8996 281.19 86.6996 288.06 92.6696C295.55 99.1696 303.16 105.91 309.69 113.25C314.23 118.34 319.62 124.15 319.23 131.11C319.2 131.61 318.95 132.07 318.56 132.4L237.03 201.35" stroke="#000100" stroke-miterlimit="10"/>
<path d="M248.11 91.54C258.74 95.24 269.15 99.8 278.26 106.14C287.51 112.57 295.7 121.36 301.99 130.33C304.33 133.66 307.4 138.07 306.9 142.26" stroke="#000100" stroke-miterlimit="10"/>
<path d="M231.89 139.08C231.78 140.11 231.73 141.16 231.73 142.25C231.73 147.22 232.87 151.7 234.72 155.21C234.72 155.24 234.72 155.28 234.74 155.32C236.65 158.76 238.34 160.79 241.05 161.88C241.69 162.2 243.03 162.53 243.71 162.69C248.8 163.47 253.63 163.26 258.25 162.8C270.35 161.57 278.19 152.87 276.88 146.27C275.27 138.14 266.7 135.9 256.95 139.46C257.28 129.32 252.75 121.49 245.02 121.91C243.26 122.01 241.82 122.43 240.24 123.45" stroke="#000100" stroke-miterlimit="10"/>
<path d="M189.28 219.27C194.51 223.14 200.64 225.71 207.05 226.8C207.68 226.91 207.95 225.94 207.32 225.84C200.98 224.76 194.96 222.23 189.78 218.41C189.26 218.03 188.76 218.89 189.28 219.27Z" fill="#000100"/>
<path d="M196.7 161.48C200.75 167.98 205.83 173.81 211.67 178.76C217.58 183.78 224.24 187.93 231.36 191.02C235.41 192.78 239.59 194.2 243.87 195.25C244.49 195.4 244.76 194.44 244.14 194.29C236.67 192.45 229.49 189.49 222.88 185.55C216.27 181.61 210.34 176.78 205.22 171.12C202.37 167.97 199.81 164.58 197.57 160.98C197.23 160.43 196.37 160.94 196.71 161.48H196.7Z" fill="#000100"/>
<path d="M216.32 152.18C217.23 152.21 218.08 152.8 218.45 153.64C218.87 154.59 218.59 155.73 217.95 156.51C216.45 158.35 213.77 158.29 211.72 157.59C211.11 157.38 210.85 158.35 211.45 158.55C213.51 159.25 215.97 159.32 217.8 157.98C219.42 156.8 220.3 154.45 219.05 152.68C218.42 151.78 217.42 151.21 216.31 151.17C215.67 151.15 215.67 152.15 216.31 152.17L216.32 152.18Z" fill="#000100"/>
<path d="M215.41 151.85C211.94 155.62 209.05 159.9 206.88 164.54C206.69 164.94 207.11 165.54 207.56 165.22C207.7 165.12 207.83 165.03 207.97 164.93C208.49 164.56 207.99 163.69 207.47 164.07C207.33 164.17 207.2 164.26 207.06 164.36L207.74 165.04C209.87 160.47 212.7 156.26 216.12 152.55C216.56 152.08 215.85 151.37 215.41 151.84V151.85Z" fill="#000100"/>
<path d="M223.39 160.45C220.05 164.07 216.6 167.59 213.03 170.99C212.56 171.44 213.27 172.14 213.74 171.7C217.3 168.3 220.76 164.78 224.1 161.16C224.54 160.69 223.83 159.98 223.39 160.45Z" fill="#000100"/>
<path d="M227.69 168.209C229.08 172.549 229.35 177.169 228.45 181.639C228.35 182.159 229.12 182.569 229.36 182.029C229.41 181.909 229.47 181.799 229.52 181.679C229.78 181.099 228.92 180.589 228.66 181.179C228.61 181.299 228.55 181.409 228.5 181.529L229.41 181.919C230.35 177.279 230.09 172.469 228.65 167.959C228.45 167.349 227.49 167.609 227.69 168.229V168.209Z" fill="#000100"/>
<path d="M234.91 173.64C232.75 176.24 230.65 178.9 228.62 181.6C228.23 182.12 229.1 182.61 229.48 182.1C231.46 179.46 233.5 176.87 235.61 174.34C236.02 173.85 235.32 173.14 234.9 173.63L234.91 173.64Z" fill="#000100"/>
<path d="M227.33 167.78C225.62 171.24 223.56 174.51 221.17 177.55C220.78 178.05 221.48 178.76 221.88 178.26C224.32 175.16 226.44 171.83 228.2 168.29C228.48 167.72 227.62 167.21 227.34 167.79L227.33 167.78Z" fill="#000100"/>
<path d="M237.55 181.21C239.83 180.31 242.19 179.39 244.69 179.51C245.33 179.54 245.33 178.54 244.69 178.51C242.1 178.39 239.65 179.31 237.29 180.24C236.7 180.47 236.96 181.44 237.56 181.2L237.55 181.21Z" fill="#000100"/>
<path d="M236.57 180.82C237.2 183.63 237.53 186.49 237.58 189.37C237.58 190.01 238.59 190.01 238.58 189.37C238.53 186.4 238.18 183.45 237.54 180.55C237.4 179.92 236.44 180.19 236.58 180.82H236.57Z" fill="#000100"/>
<path d="M241.34 174.61C238.75 178.2 235.89 181.58 232.78 184.74C232.33 185.2 233.03 185.91 233.49 185.45C236.65 182.24 239.57 178.78 242.2 175.12C242.58 174.6 241.71 174.1 241.34 174.62V174.61Z" fill="#000100"/>
<path d="M252.77 188.01C254.36 193.81 251.58 199.76 246.41 202.66C245.85 202.97 246.35 203.84 246.91 203.52C252.47 200.41 255.44 193.96 253.73 187.75C253.56 187.13 252.59 187.39 252.77 188.02V188.01Z" fill="#000100"/>
<path d="M262.37 78.9C258.98 83.47 255.58 88.04 252.19 92.61C251.84 93.08 252.58 93.59 252.98 93.22C253.14 93.07 253.3 92.92 253.45 92.77C253.92 92.33 253.21 91.62 252.74 92.06C252.58 92.21 252.42 92.36 252.27 92.51L253.06 93.12C256.45 88.55 259.85 83.98 263.24 79.41C263.62 78.89 262.76 78.39 262.38 78.91L262.37 78.9Z" fill="#000100"/>
<path d="M268.27 80.3597C264.49 84.9997 260.71 89.6397 256.94 94.2797C256.54 94.7697 257.24 95.4897 257.65 94.9897C261.43 90.3497 265.21 85.7097 268.98 81.0697C269.38 80.5797 268.68 79.8597 268.27 80.3597Z" fill="#000100"/>
<path d="M272.75 82.6998C269.51 87.5298 265.76 91.9898 261.59 96.0298C261.13 96.4798 261.83 97.1798 262.3 96.7398C266.54 92.6398 270.34 88.1098 273.62 83.2098C273.98 82.6698 273.11 82.1698 272.76 82.7098L272.75 82.6998Z" fill="#000100"/>
<path d="M277.64 84.9996C274.01 89.6396 270.22 94.1596 266.29 98.5396C265.86 99.0196 266.57 99.7296 267 99.2496C270.93 94.8596 274.72 90.3496 278.35 85.7096C278.74 85.2096 278.04 84.4996 277.64 84.9996Z" fill="#000100"/>
<path d="M282.66 88.2598C278.84 92.7098 274.8 96.9998 270.59 101.08C270.13 101.53 270.83 102.24 271.3 101.79C275.52 97.7098 279.55 93.4198 283.37 88.9698C283.79 88.4798 283.08 87.7698 282.66 88.2598Z" fill="#000100"/>
<path d="M287.2 92.0396C283.69 96.3396 279.71 100.26 275.66 104.04C275.37 104.31 275.54 104.76 275.88 104.88L275.97 104.91L275.62 104.29V104.32C275.73 104.2 275.85 104.09 275.96 103.97H276.13C276.25 104.17 276.36 104.38 276.48 104.58V104.52C276.61 103.89 275.64 103.62 275.53 104.25V104.31C275.47 104.59 275.59 104.83 275.87 104.93C275.99 104.97 276.11 104.97 276.23 104.93C276.39 104.88 276.55 104.75 276.58 104.58V104.55C276.64 104.27 276.51 104.03 276.24 103.93L276.15 103.9L276.37 104.74C280.42 100.95 284.4 97.0396 287.91 92.7396C288.31 92.2496 287.61 91.5296 287.2 92.0296V92.0396Z" fill="#000100"/>
<path d="M290.84 95.6002C288.73 97.7502 286.62 99.8902 284.52 102.05C283.59 103 282.69 104 281.73 104.91C281.45 105.18 281.17 105.45 280.89 105.72C280.68 105.93 280.27 106.4 280.12 106.47L280.8 106.65C280.53 106.06 279.67 106.57 279.94 107.15C280.06 107.42 280.4 107.44 280.62 107.34C280.92 107.2 281.18 106.84 281.41 106.62C281.7 106.33 281.99 106.04 282.28 105.76C283.25 104.84 284.16 103.85 285.09 102.89C287.23 100.69 289.39 98.5002 291.54 96.3102C291.99 95.8502 291.28 95.1402 290.83 95.6002H290.84Z" fill="#000100"/>
<path d="M294.86 99.5499C291.59 103.45 288.04 107.1 284.24 110.49C283.76 110.92 284.47 111.62 284.95 111.2C288.75 107.82 292.3 104.16 295.57 100.26C295.98 99.7699 295.28 99.0599 294.86 99.5499Z" fill="#000100"/>
<path d="M300.12 104.04C296.45 107.7 292.78 111.36 289.11 115.03C288.71 115.42 289.23 116.12 289.72 115.82L289.77 115.79L289.27 114.93C289.27 114.93 289.21 114.97 289.18 114.99L289.68 115.85L289.73 115.82C290.27 115.48 289.77 114.61 289.23 114.96L289.18 114.99C288.64 115.33 289.14 116.2 289.68 115.85C289.71 115.83 289.74 115.81 289.77 115.79C290.31 115.45 289.81 114.58 289.27 114.93L289.22 114.96L289.83 115.75C293.5 112.09 297.17 108.43 300.84 104.76C301.3 104.3 300.59 103.6 300.13 104.05L300.12 104.04Z" fill="#000100"/>
<path d="M304.86 108.46C301.06 112.02 297.27 115.59 293.47 119.15C293 119.59 293.71 120.3 294.18 119.86C297.98 116.3 301.77 112.73 305.57 109.17C306.04 108.73 305.33 108.02 304.86 108.46Z" fill="#000100"/>
<path d="M308.22 112.35C304.68 116.25 300.79 119.82 296.59 123.01C296.08 123.39 296.59 124.26 297.09 123.87C301.35 120.63 305.32 117.02 308.92 113.05C309.35 112.57 308.65 111.87 308.21 112.34L308.22 112.35Z" fill="#000100"/>
<path d="M312.26 116.809C308.36 120.509 304.31 124.039 300.12 127.389C299.62 127.789 300.33 128.499 300.83 128.099C305.02 124.739 309.07 121.209 312.97 117.519C313.44 117.079 312.73 116.369 312.26 116.809Z" fill="#000100"/>
<path d="M315.96 121.98C312.13 125.77 307.98 129.28 303.47 132.24C302.93 132.59 303.44 133.46 303.97 133.1C308.55 130.09 312.77 126.53 316.66 122.68C317.12 122.23 316.41 121.52 315.95 121.97L315.96 121.98Z" fill="#000100"/>
<path d="M318.37 126.54C316.79 128.57 314.83 130.31 312.88 131.97C311.09 133.5 309.26 134.97 307.38 136.4C307 136.69 306.62 136.97 306.24 137.25C305.73 137.63 306.22 138.49 306.74 138.11C310.03 135.7 313.25 133.12 316.21 130.31C317.22 129.35 318.21 128.35 319.07 127.24C319.46 126.74 318.76 126.02 318.36 126.53L318.37 126.54Z" fill="#000100"/>
<path d="M155 96.4894C153.37 99.1794 150.03 100.249 147.55 98.8794C145.06 97.5094 144.37 94.2194 146 91.5294C147.63 88.8394 150.97 87.7694 153.45 89.1394C155.94 90.5094 156.63 93.7994 155 96.4894Z" fill="#231F20" stroke="#000100" stroke-miterlimit="10"/>
<path d="M203.66 108.25C202.03 110.94 198.69 112.01 196.21 110.64C193.72 109.27 193.03 105.98 194.66 103.29C196.29 100.6 199.63 99.5302 202.11 100.9C204.59 102.27 205.29 105.56 203.66 108.25Z" fill="#231F20" stroke="#000100" stroke-miterlimit="10"/>
<path d="M180.65 118.049C179.97 116.569 178.01 116.029 175.82 116.529C174.99 116.719 174.15 116.939 173.45 116.089C171.66 113.909 168.5 114.129 167.12 115.549C165.52 117.189 166.23 120.489 168.7 122.919C170.86 125.039 172.34 125.979 175.39 124.849C175.92 124.699 176.46 124.509 176.99 124.239C179.9 122.749 181.54 119.979 180.66 118.049H180.65Z" stroke="#000100" stroke-miterlimit="10" stroke-linecap="round"/>
<path d="M172.34 125.22C172.34 125.22 169.96 137.49 169.93 137.6C169.6 139.3 164.09 140.59 162.68 140.84C159.44 141.42 156.03 141.17 152.9 140.19C147.29 138.44 142.97 134.73 139.86 130.21" stroke="#000100" stroke-miterlimit="10" stroke-linecap="round"/>
<path d="M185.93 143.829C178.49 145.849 169.81 137.939 169.81 137.939" stroke="#000100" stroke-miterlimit="10" stroke-linecap="round"/>
<path d="M216.33 124.98C209.07 121.39 200.83 123.64 194.93 128.41C191.8 130.95 189.23 134.13 187.82 137.75C186.35 141.54 185.99 146.39 188.22 149.98" stroke="#000100" stroke-miterlimit="10" stroke-linecap="round"/>
<path d="M192.32 116.97L192.37 117.49L192.39 117.62C192.41 117.69 192.44 117.74 192.48 117.79C192.54 117.87 192.64 117.95 192.74 117.97C192.83 117.99 192.92 117.99 193.01 117.97C193.08 117.95 193.13 117.92 193.18 117.88C193.23 117.84 193.28 117.8 193.31 117.74C193.44 117.5 193.47 117.22 193.41 116.95C193.39 116.88 193.36 116.81 193.33 116.74C193.31 116.71 193.3 116.67 193.28 116.64C193.19 116.5 193.09 116.41 192.95 116.31C192.89 116.27 192.83 116.25 192.76 116.25C192.69 116.24 192.63 116.24 192.56 116.25C192.43 116.29 192.33 116.37 192.26 116.48C192.2 116.58 192.18 116.68 192.17 116.79C192.17 116.85 192.17 116.92 192.2 116.98C192.26 117.15 192.37 117.28 192.52 117.39C192.63 117.47 192.77 117.5 192.91 117.51C192.96 117.51 193.02 117.51 193.08 117.49C193.09 117.49 193.1 117.49 193.11 117.49C193.16 117.47 193.21 117.45 193.26 117.43C193.31 117.41 193.35 117.37 193.39 117.33C193.47 117.24 193.54 117.11 193.54 116.98L193.52 116.85C193.5 116.77 193.45 116.69 193.39 116.63C193.31 116.53 193.17 116.45 193.05 116.42C192.91 116.39 192.78 116.39 192.64 116.42C192.58 116.44 192.51 116.47 192.46 116.49C192.43 116.5 192.41 116.52 192.38 116.53C192.27 116.61 192.17 116.69 192.1 116.82C192.03 116.95 191.99 117.07 192.01 117.21C192.03 117.35 192.04 117.4 192.1 117.52C192.13 117.58 192.17 117.63 192.22 117.68C192.37 117.84 192.62 117.93 192.84 117.92C192.91 117.92 192.98 117.91 193.04 117.89C193.07 117.89 193.09 117.88 193.11 117.87C193.17 117.85 193.24 117.82 193.29 117.79C193.34 117.76 193.4 117.71 193.45 117.66C193.49 117.61 193.54 117.56 193.57 117.5C193.62 117.4 193.64 117.34 193.65 117.24C193.66 117.13 193.66 117.08 193.65 116.96C193.64 116.89 193.61 116.82 193.57 116.76C193.53 116.67 193.45 116.58 193.37 116.52C193.25 116.43 193.14 116.35 192.99 116.32C192.84 116.29 192.69 116.28 192.54 116.32C192.43 116.35 192.33 116.41 192.25 116.49C192.17 116.57 192.11 116.67 192.08 116.78C192.05 116.89 192.05 117.03 192.08 117.15C192.12 117.28 192.2 117.41 192.32 117.48C192.37 117.51 192.42 117.53 192.48 117.54C192.68 117.59 192.87 117.56 193.05 117.46C193.18 117.39 193.3 117.27 193.37 117.14C193.44 117.01 193.45 116.94 193.46 116.81C193.46 116.79 193.46 116.77 193.46 116.76C193.46 116.7 193.46 116.64 193.43 116.58C193.39 116.46 193.32 116.35 193.2 116.28C193.09 116.22 192.93 116.19 192.81 116.23C192.69 116.27 192.57 116.34 192.51 116.46C192.45 116.58 192.42 116.72 192.46 116.85C192.46 116.86 192.46 116.88 192.47 116.89L192.45 116.76C192.45 116.76 192.45 116.8 192.45 116.81L192.47 116.68C192.47 116.68 192.47 116.72 192.45 116.74L192.5 116.62C192.5 116.62 192.48 116.66 192.46 116.68L192.54 116.58C192.54 116.58 192.5 116.62 192.48 116.64L192.58 116.56C192.58 116.56 192.53 116.59 192.51 116.6L192.63 116.55C192.63 116.55 192.58 116.57 192.56 116.57L192.69 116.55C192.69 116.55 192.65 116.55 192.62 116.55L192.75 116.57C192.75 116.57 192.71 116.57 192.69 116.55L192.99 116.78C192.99 116.78 193.02 116.85 193.04 116.89C193.04 116.87 193.03 116.86 193.03 116.84L193.05 116.97C193.05 116.97 193.05 116.94 193.05 116.92L193.03 117.05C193.03 117.05 193.03 117.02 193.04 117L192.99 117.12C192.99 117.12 193 117.1 193.01 117.08L192.93 117.18C192.93 117.18 192.95 117.15 192.97 117.14L192.75 117.27C192.75 117.27 192.8 117.25 192.83 117.25L192.7 117.27C192.7 117.27 192.76 117.27 192.79 117.27L192.66 117.25C192.66 117.25 192.74 117.27 192.77 117.28L192.65 117.23C192.65 117.23 192.71 117.26 192.74 117.28L192.64 117.2C192.64 117.2 192.7 117.25 192.72 117.28L192.64 117.18C192.64 117.18 192.67 117.23 192.68 117.25L192.63 117.13C192.63 117.13 192.65 117.18 192.65 117.21L192.63 117.08C192.63 117.08 192.63 117.13 192.63 117.15L192.65 117.02C192.65 117.02 192.65 117.06 192.63 117.08L192.68 116.96C192.68 116.96 192.66 117 192.65 117.02L192.73 116.92C192.73 116.92 192.7 116.95 192.68 116.97L192.78 116.89C192.78 116.89 192.73 116.92 192.71 116.93L192.83 116.88C192.83 116.88 192.76 116.9 192.72 116.91L192.85 116.89C192.85 116.89 192.77 116.89 192.73 116.89L192.86 116.91C192.86 116.91 192.79 116.9 192.76 116.88L192.88 116.93C192.88 116.93 192.84 116.91 192.82 116.89L192.92 116.97C192.92 116.97 192.89 116.94 192.87 116.92L192.95 117.02C192.95 117.02 192.93 116.99 192.92 116.97L192.97 117.09C192.97 117.09 192.96 117.06 192.96 117.04L192.98 117.17C192.98 117.17 192.98 117.13 192.98 117.11L192.96 117.24C192.96 117.24 192.96 117.2 192.98 117.18L192.93 117.3C192.93 117.3 192.95 117.26 192.97 117.24L192.89 117.34C192.89 117.34 192.93 117.3 192.95 117.28L192.85 117.36C192.85 117.36 192.9 117.32 192.93 117.31L192.81 117.36C192.81 117.36 192.88 117.34 192.91 117.33L192.78 117.35C192.78 117.35 192.83 117.35 192.86 117.35L192.73 117.33C192.73 117.33 192.77 117.33 192.8 117.35L192.68 117.3C192.68 117.3 192.71 117.32 192.73 117.33L192.63 117.25C192.63 117.25 192.66 117.27 192.67 117.29V116.58C192.67 116.58 192.66 116.59 192.65 116.6L192.75 116.52C192.75 116.52 192.73 116.53 192.72 116.54L192.84 116.49C192.84 116.49 192.81 116.49 192.8 116.5L192.93 116.48C192.93 116.48 192.9 116.48 192.89 116.48L193.02 116.5C193.02 116.5 192.98 116.5 192.95 116.48L193.07 116.53C193.07 116.53 193.03 116.51 193.01 116.49L193.11 116.57C193.11 116.57 193.08 116.54 193.07 116.53L193.15 116.63C193.15 116.63 193.13 116.6 193.12 116.58L193.17 116.7C193.17 116.7 193.17 116.67 193.16 116.66L193.18 116.79C193.18 116.79 193.18 116.77 193.18 116.76L193.16 116.89C193.16 116.89 193.16 116.87 193.16 116.86L193.11 116.98C193.11 116.98 193.11 116.96 193.12 116.95L192.44 117.13C192.44 117.13 192.46 117.14 192.47 117.15L192.37 117.07C192.37 117.07 192.44 117.13 192.47 117.17L192.39 117.07C192.39 117.07 192.44 117.15 192.46 117.2L192.41 117.08C192.43 117.13 192.45 117.18 192.45 117.24L192.43 117.11C192.43 117.16 192.43 117.21 192.43 117.26L192.45 117.13C192.45 117.13 192.43 117.22 192.41 117.27L192.46 117.15C192.46 117.15 192.45 117.18 192.44 117.2L193.37 117.45L193.32 116.93C193.32 116.86 193.31 116.8 193.28 116.74C193.26 116.68 193.23 116.62 193.18 116.58C193.09 116.49 192.95 116.43 192.83 116.43C192.71 116.43 192.57 116.48 192.48 116.58C192.4 116.67 192.32 116.8 192.33 116.93L192.32 116.97Z" fill="#000100"/>
<path d="M196.56 120.87L196.34 121.58C196.32 121.67 196.32 121.76 196.34 121.85C196.36 121.92 196.39 121.97 196.43 122.02C196.47 122.07 196.51 122.12 196.57 122.15C196.65 122.2 196.73 122.22 196.82 122.22C196.96 122.2 197.07 122.19 197.2 122.11C197.27 122.07 197.34 122.01 197.4 121.95C197.49 121.85 197.54 121.76 197.59 121.63C197.61 121.57 197.61 121.5 197.62 121.44C197.62 121.41 197.62 121.39 197.62 121.36C197.62 121.29 197.61 121.23 197.58 121.17C197.56 121.11 197.53 121.05 197.48 121.01C197.43 120.96 197.38 120.93 197.32 120.91C197.26 120.88 197.2 120.86 197.13 120.87C197 120.87 196.87 120.92 196.78 121.02L196.7 121.12C196.65 121.2 196.63 121.28 196.63 121.37C196.63 121.4 196.63 121.42 196.63 121.45L196.65 121.32C196.65 121.32 196.64 121.37 196.63 121.39L196.68 121.27C196.68 121.27 196.65 121.32 196.64 121.35L196.72 121.25C196.72 121.25 196.68 121.29 196.66 121.31L196.76 121.23C196.76 121.23 196.71 121.26 196.68 121.28L196.8 121.23C196.8 121.23 196.75 121.25 196.72 121.25L196.85 121.23H196.84C197 121.44 197.16 121.65 197.32 121.86L197.54 121.15C197.56 121.08 197.56 121.02 197.54 120.95C197.54 120.88 197.52 120.82 197.48 120.76C197.45 120.7 197.41 120.65 197.35 120.62C197.3 120.58 197.25 120.55 197.18 120.53C197.05 120.5 196.91 120.51 196.79 120.58C196.67 120.65 196.6 120.75 196.56 120.88V120.87Z" fill="#000100"/>
<path d="M207.79 118.15C207.79 118.15 207.79 118.15 207.78 118.15C207.74 118.16 207.69 118.18 207.65 118.2C207.65 118.2 207.65 118.2 207.64 118.2C207.6 118.22 207.57 118.26 207.53 118.28C207.53 118.28 207.52 118.29 207.51 118.3C207.5 118.31 207.44 118.38 207.42 118.42C207.4 118.46 207.38 118.51 207.36 118.56C207.34 118.61 207.34 118.67 207.34 118.72V118.74C207.34 118.79 207.34 118.84 207.36 118.88C207.36 118.88 207.36 118.88 207.36 118.89C207.38 118.94 207.39 118.99 207.42 119.03C207.45 119.07 207.48 119.11 207.51 119.15C207.54 119.19 207.59 119.22 207.63 119.24C207.67 119.26 207.72 119.28 207.76 119.29C207.76 119.29 207.77 119.29 207.78 119.29C207.9 119.31 207.98 119.32 208.1 119.29C208.15 119.28 208.2 119.25 208.24 119.23C208.24 119.23 208.26 119.23 208.26 119.22C208.3 119.19 208.34 119.16 208.37 119.13C208.37 119.13 208.37 119.13 208.38 119.12C208.41 119.09 208.44 119.05 208.47 119.01C208.47 119.01 208.47 119.01 208.47 119C208.49 118.96 208.51 118.91 208.53 118.87C208.53 118.87 208.53 118.87 208.53 118.86C208.56 118.71 208.55 118.72 208.53 118.57C208.51 118.5 208.48 118.45 208.44 118.4C208.4 118.35 208.36 118.3 208.3 118.27C208.24 118.23 208.18 118.21 208.11 118.21C208.04 118.2 207.98 118.2 207.91 118.21L207.79 118.26C207.71 118.3 207.66 118.36 207.61 118.44L207.56 118.56C207.54 118.65 207.54 118.74 207.56 118.83C207.56 118.83 207.55 118.74 207.54 118.7C207.54 118.7 207.54 118.71 207.54 118.72L207.56 118.59V118.61L207.61 118.49C207.61 118.49 207.61 118.51 207.6 118.51L207.68 118.41C207.68 118.41 207.67 118.43 207.66 118.43L207.76 118.35C207.76 118.35 207.74 118.36 207.73 118.37L207.85 118.32C207.85 118.32 207.83 118.32 207.82 118.32L207.95 118.3C207.95 118.3 207.93 118.3 207.92 118.3L208.05 118.32H208.03L208.15 118.37C208.15 118.37 208.14 118.37 208.13 118.36L208.23 118.44C208.23 118.44 208.22 118.43 208.21 118.42L208.29 118.52C208.29 118.52 208.29 118.51 208.28 118.5L208.33 118.62C208.33 118.62 208.33 118.6 208.33 118.59L208.35 118.72C208.35 118.72 208.35 118.7 208.35 118.69L208.33 118.82C208.33 118.82 208.33 118.8 208.33 118.79L208.28 118.91C208.28 118.91 208.28 118.89 208.29 118.88L208.21 118.98C208.21 118.98 208.22 118.97 208.23 118.96L208.13 119.04C208.13 119.04 208.14 119.04 208.15 119.03L208.03 119.08C208.03 119.08 208.04 119.08 208.05 119.08C208.12 119.06 208.17 119.03 208.22 118.99C208.27 118.95 208.32 118.91 208.35 118.85C208.39 118.79 208.41 118.73 208.41 118.66C208.42 118.59 208.42 118.53 208.41 118.46L208.36 118.34C208.32 118.26 208.26 118.21 208.18 118.16L208.06 118.11C207.97 118.09 207.88 118.09 207.79 118.11V118.15Z" fill="#000100"/>
<path d="M207.79 118.96C208.43 118.96 208.43 117.96 207.79 117.96C207.15 117.96 207.15 118.96 207.79 118.96Z" fill="#000100"/>
<path d="M208 117.899C207.9 117.919 207.79 117.949 207.69 117.969C207.57 117.999 207.45 118.089 207.39 118.199C207.37 118.239 207.35 118.289 207.33 118.329C207.31 118.379 207.31 118.449 207.3 118.499C207.3 118.549 207.31 118.629 207.32 118.669C207.32 118.679 207.32 118.689 207.32 118.709C207.34 118.749 207.36 118.809 207.38 118.859C207.4 118.909 207.44 118.949 207.48 118.989C207.48 118.999 207.5 119.009 207.51 119.019C207.55 119.059 207.6 119.089 207.64 119.119C207.65 119.119 207.66 119.129 207.67 119.139C207.72 119.159 207.77 119.189 207.83 119.199C207.84 119.199 207.86 119.199 207.87 119.199C207.93 119.199 207.98 119.219 208.04 119.219C208.1 119.219 208.16 119.209 208.21 119.199C208.26 119.199 208.33 119.159 208.37 119.139C208.42 119.119 208.47 119.069 208.5 119.039C208.54 118.999 208.58 118.949 208.61 118.909C208.65 118.849 208.67 118.789 208.67 118.719C208.68 118.649 208.68 118.589 208.67 118.519C208.65 118.449 208.62 118.399 208.58 118.349C208.54 118.299 208.5 118.249 208.44 118.219L208.32 118.169C208.23 118.149 208.14 118.149 208.05 118.169L207.93 118.219C207.85 118.259 207.8 118.319 207.75 118.399C207.75 118.399 207.8 118.339 207.83 118.299C207.83 118.309 207.81 118.319 207.8 118.329L207.9 118.249C207.9 118.249 207.88 118.259 207.87 118.269L207.99 118.219C207.99 118.219 207.96 118.219 207.95 118.229L208.08 118.209C208.08 118.209 208.04 118.209 208.02 118.209L208.15 118.229C208.15 118.229 208.1 118.219 208.08 118.209L208.2 118.259C208.2 118.259 208.15 118.239 208.13 118.219L208.23 118.299C208.23 118.299 208.2 118.269 208.18 118.259L208.26 118.359C208.26 118.359 208.24 118.329 208.23 118.309L208.28 118.429C208.28 118.429 208.28 118.399 208.27 118.389L208.29 118.519C208.29 118.519 208.29 118.499 208.29 118.479L208.27 118.609C208.27 118.609 208.27 118.579 208.28 118.569L208.23 118.689C208.23 118.689 208.23 118.689 208.23 118.679L207.93 118.909L208.24 118.839C208.31 118.819 208.36 118.789 208.41 118.749C208.46 118.709 208.51 118.669 208.54 118.609C208.58 118.549 208.6 118.489 208.6 118.419C208.61 118.349 208.61 118.289 208.6 118.219L208.55 118.099C208.51 118.019 208.45 117.969 208.37 117.919L208.25 117.869C208.16 117.849 208.07 117.849 207.98 117.869L208 117.899Z" fill="#000100"/>
<path d="M187.88 123.74C187.72 123.59 187.54 123.52 187.32 123.5C187.15 123.49 186.99 123.54 186.84 123.61C186.54 123.74 186.32 124.05 186.31 124.38C186.31 124.5 186.33 124.63 186.39 124.73C186.5 124.92 186.72 124.99 186.93 125C187.16 125 187.37 124.91 187.54 124.76C187.71 124.61 187.8 124.39 187.8 124.18C187.8 123.97 187.71 123.74 187.56 123.57C187.27 123.26 186.77 123.24 186.42 123.46C186.12 123.65 185.88 124 185.91 124.36C185.93 124.58 186.01 124.77 186.16 124.94C186.27 125.07 186.42 125.14 186.58 125.2C186.86 125.31 187.21 125.28 187.47 125.12C187.66 125 187.79 124.83 187.87 124.62C187.94 124.45 187.93 124.26 187.89 124.08C187.82 123.73 187.52 123.41 187.17 123.33C187.04 123.3 186.9 123.31 186.78 123.38C186.68 123.44 186.58 123.56 186.55 123.68C186.52 123.81 186.53 123.95 186.6 124.07C186.67 124.18 186.77 124.27 186.9 124.3C186.92 124.3 186.95 124.31 186.97 124.32L186.85 124.27C186.85 124.27 186.92 124.31 186.96 124.33L186.86 124.25C186.86 124.25 186.92 124.3 186.95 124.34L186.87 124.24C186.87 124.24 186.92 124.32 186.94 124.37L186.89 124.25C186.89 124.25 186.92 124.34 186.93 124.39L186.91 124.26C186.91 124.26 186.91 124.35 186.91 124.39L186.93 124.26C186.93 124.26 186.91 124.34 186.9 124.38L186.95 124.26C186.95 124.26 186.92 124.32 186.9 124.34L186.98 124.24C186.98 124.24 186.93 124.3 186.9 124.32L187 124.24C187 124.24 186.94 124.28 186.91 124.29L187.03 124.24C187.03 124.24 186.94 124.27 186.89 124.28L187.02 124.26C186.97 124.26 186.91 124.26 186.86 124.26L186.99 124.28C186.94 124.28 186.88 124.26 186.83 124.24L186.95 124.29C186.95 124.29 186.86 124.25 186.82 124.22L186.92 124.3C186.92 124.3 186.86 124.25 186.84 124.22L186.92 124.32C186.92 124.32 186.89 124.27 186.87 124.24L186.92 124.36C186.92 124.36 186.9 124.29 186.89 124.26L186.91 124.39C186.91 124.39 186.91 124.32 186.91 124.28L186.89 124.41C186.89 124.41 186.91 124.33 186.92 124.29L186.87 124.41C186.87 124.41 186.91 124.33 186.94 124.29L186.86 124.39C186.86 124.39 186.92 124.32 186.96 124.29L186.86 124.37C186.86 124.37 186.94 124.32 186.98 124.3L186.86 124.35C186.86 124.35 186.95 124.32 187 124.31L186.87 124.33C186.87 124.33 186.95 124.33 186.99 124.33L186.86 124.31C186.86 124.31 186.91 124.31 186.93 124.33L186.81 124.28C186.81 124.28 186.87 124.31 186.9 124.33L186.8 124.25C186.8 124.25 186.84 124.29 186.86 124.31L186.78 124.21C186.78 124.21 186.82 124.26 186.83 124.29L186.78 124.17C186.78 124.17 186.8 124.23 186.81 124.26L186.79 124.13C186.79 124.13 186.79 124.18 186.79 124.21L186.81 124.08C186.81 124.08 186.8 124.13 186.79 124.16L186.84 124.04C186.84 124.04 186.81 124.09 186.8 124.11L186.88 124.01C186.88 124.01 186.84 124.05 186.82 124.07L186.92 123.99C186.92 123.99 186.86 124.03 186.83 124.04L186.95 123.99C186.95 123.99 186.88 124.02 186.84 124.02L186.97 124C186.97 124 186.9 124 186.87 124L187 124.02C187 124.02 186.96 124.02 186.94 124.01L187.29 124.36C187.29 124.36 187.29 124.33 187.29 124.31L187.31 124.44C187.31 124.44 187.31 124.39 187.31 124.36L187.29 124.49C187.29 124.49 187.3 124.43 187.31 124.41L187.26 124.53C187.26 124.53 187.29 124.48 187.31 124.45L187.23 124.55C187.23 124.55 187.29 124.49 187.32 124.46L187.22 124.54C187.22 124.54 187.3 124.49 187.34 124.47L187.22 124.52C187.22 124.52 187.3 124.49 187.35 124.49L187.22 124.51C187.22 124.51 187.3 124.51 187.34 124.51L187.21 124.49C187.21 124.49 187.27 124.5 187.3 124.51L187.18 124.46C187.18 124.46 187.23 124.49 187.26 124.51L187.16 124.43C187.16 124.43 187.18 124.45 187.19 124.45C187.28 124.54 187.41 124.6 187.54 124.6C187.66 124.6 187.81 124.55 187.89 124.45C187.97 124.35 188.04 124.23 188.04 124.1C188.04 123.97 187.99 123.84 187.89 123.75L187.88 123.74Z" fill="#000100"/>
<path d="M187.26 124.479C187.9 124.479 187.9 123.479 187.26 123.479C186.62 123.479 186.62 124.479 187.26 124.479Z" fill="#000100"/>
<path d="M155.56 118.14C155.66 118.22 155.72 118.26 155.84 118.3C155.85 118.3 155.86 118.3 155.88 118.3C155.93 118.3 155.99 118.32 156.04 118.32C156.18 118.32 156.33 118.28 156.44 118.2C156.55 118.12 156.66 118.03 156.72 117.91C156.77 117.8 156.8 117.72 156.8 117.6C156.8 117.55 156.8 117.49 156.78 117.44C156.78 117.42 156.78 117.41 156.77 117.39L156.72 117.27C156.69 117.21 156.65 117.16 156.59 117.13C156.56 117.1 156.52 117.08 156.48 117.07C156.42 117.04 156.36 117.02 156.29 117.03C156.07 117.02 155.84 117.12 155.69 117.27C155.61 117.35 155.55 117.44 155.51 117.54C155.49 117.58 155.48 117.62 155.47 117.66C155.46 117.71 155.45 117.77 155.45 117.82C155.45 117.83 155.45 117.85 155.45 117.86C155.45 118 155.49 118.16 155.6 118.26C155.67 118.32 155.75 118.36 155.83 118.39C155.84 118.39 155.85 118.39 155.86 118.39C155.92 118.4 155.98 118.41 156.04 118.41C156.16 118.4 156.22 118.38 156.33 118.33C156.35 118.33 156.36 118.31 156.37 118.3C156.42 118.27 156.47 118.23 156.51 118.19C156.6 118.09 156.64 118.01 156.69 117.88C156.72 117.81 156.73 117.72 156.72 117.64C156.72 117.58 156.72 117.52 156.69 117.46C156.65 117.35 156.61 117.29 156.54 117.2C156.46 117.1 156.35 117.05 156.24 117.01C156.2 117 156.16 116.99 156.12 116.99C156.08 116.99 156.04 116.98 155.99 116.99C155.85 117 155.76 117.03 155.63 117.09C155.61 117.09 155.59 117.11 155.58 117.12C155.53 117.15 155.48 117.19 155.44 117.23C155.35 117.32 155.29 117.42 155.25 117.54C155.23 117.6 155.23 117.66 155.22 117.72C155.22 117.78 155.22 117.85 155.24 117.91C155.26 118 155.29 118.09 155.35 118.16C155.43 118.27 155.51 118.36 155.63 118.43C155.69 118.46 155.75 118.49 155.81 118.51C155.84 118.51 155.86 118.53 155.89 118.53C156.04 118.56 156.16 118.56 156.31 118.53C156.48 118.49 156.62 118.34 156.66 118.18C156.73 117.92 156.65 117.64 156.45 117.46C156.34 117.36 156.25 117.31 156.11 117.26C156.02 117.23 155.92 117.21 155.83 117.22C155.77 117.22 155.7 117.23 155.63 117.25C155.51 117.29 155.45 117.33 155.35 117.41C155.25 117.49 155.19 117.61 155.15 117.73C155.1 117.86 155.12 117.99 155.14 118.12C155.14 118.14 155.15 118.17 155.16 118.19C155.18 118.25 155.21 118.32 155.24 118.37C155.31 118.48 155.4 118.58 155.52 118.65C155.64 118.72 155.79 118.76 155.92 118.75C155.99 118.75 156.05 118.74 156.11 118.71C156.17 118.69 156.23 118.66 156.27 118.61C156.36 118.52 156.42 118.38 156.42 118.26C156.42 118.14 156.37 118 156.27 117.91C156.18 117.83 156.05 117.75 155.92 117.76C155.9 117.76 155.88 117.76 155.86 117.76L155.99 117.78C155.99 117.78 155.94 117.78 155.92 117.76L156.04 117.81C156.04 117.81 156 117.79 155.99 117.78L156.09 117.86C156.09 117.86 156.05 117.82 156.03 117.8L156.11 117.9C156.11 117.9 156.08 117.85 156.07 117.83L156.12 117.95C156.12 117.95 156.1 117.9 156.1 117.87L156.12 118C156.12 118 156.12 117.95 156.12 117.93L156.1 118.06C156.1 118.06 156.1 118.02 156.12 118L156.07 118.12C156.07 118.12 156.09 118.09 156.1 118.07L156.02 118.17C156.02 118.17 156.04 118.14 156.06 118.13L155.96 118.21C155.96 118.21 155.99 118.19 156.01 118.18L155.89 118.23C155.89 118.23 155.93 118.22 155.95 118.21L155.82 118.23C155.82 118.23 155.87 118.23 155.89 118.23L155.76 118.21C155.76 118.21 155.82 118.22 155.85 118.23L155.73 118.18C155.73 118.18 155.78 118.21 155.81 118.23L155.71 118.15C155.71 118.15 155.76 118.19 155.77 118.21L155.69 118.11C155.69 118.11 155.72 118.15 155.73 118.17L155.68 118.05C155.68 118.05 155.69 118.08 155.69 118.1L155.67 117.97C155.67 117.97 155.67 118.01 155.67 118.02L155.69 117.89C155.69 117.89 155.69 117.91 155.69 117.92L156.04 117.57C156.04 117.57 156.02 117.57 156.01 117.57L156.14 117.55C156.14 117.55 156.07 117.55 156.03 117.55L156.16 117.57C156.16 117.57 156.09 117.55 156.06 117.54L156.18 117.59C156.18 117.59 156.12 117.56 156.09 117.54L156.19 117.62C156.19 117.62 156.14 117.58 156.12 117.55L156.2 117.65C156.2 117.65 156.17 117.61 156.16 117.59L156.21 117.71C156.21 117.71 156.19 117.66 156.19 117.64L156.21 117.77C156.21 117.77 156.21 117.73 156.21 117.71L156.19 117.84C156.19 117.84 156.19 117.8 156.2 117.79L156.15 117.91C156.15 117.91 156.17 117.87 156.19 117.85L156.11 117.95C156.11 117.95 156.14 117.91 156.16 117.9L156.06 117.98C156.06 117.98 156.11 117.95 156.13 117.94L156.01 117.99C156.01 117.99 156.07 117.97 156.1 117.97L155.97 117.99C155.97 117.99 156.01 117.99 156.04 117.99L155.91 117.97C155.91 117.97 155.95 117.97 155.96 117.98L155.84 117.93C155.84 117.93 155.87 117.95 155.89 117.96L155.79 117.88C155.79 117.88 155.81 117.9 155.82 117.91L155.74 117.81C155.74 117.81 155.75 117.83 155.76 117.84L155.71 117.72C155.71 117.72 155.71 117.75 155.72 117.76L155.7 117.63C155.7 117.63 155.7 117.67 155.7 117.69L155.72 117.56C155.72 117.56 155.72 117.6 155.7 117.63L155.75 117.51C155.75 117.51 155.73 117.55 155.71 117.57L155.79 117.47C155.79 117.47 155.76 117.5 155.74 117.52L155.84 117.44C155.84 117.44 155.81 117.46 155.8 117.47L155.92 117.42C155.92 117.42 155.89 117.42 155.88 117.43L156.01 117.41C156.01 117.41 155.98 117.41 155.97 117.41L156.1 117.43C156.1 117.43 156.07 117.43 156.05 117.42L156.4 117.77C156.4 117.77 156.4 117.75 156.4 117.74L156.42 117.87C156.42 117.87 156.42 117.83 156.42 117.8L156.4 117.93C156.4 117.93 156.41 117.88 156.42 117.86L156.37 117.98C156.37 117.98 156.4 117.93 156.42 117.9L156.34 118C156.34 118 156.38 117.96 156.4 117.94L156.3 118.02C156.3 118.02 156.35 117.99 156.38 117.98L156.26 118.03C156.26 118.03 156.31 118.01 156.34 118.01L156.21 118.03C156.21 118.03 156.25 118.03 156.27 118.03L155.79 117.66C155.79 117.66 155.79 117.69 155.8 117.71L155.78 117.58C155.78 117.58 155.78 117.6 155.78 117.62L155.8 117.49C155.8 117.49 155.8 117.52 155.79 117.54L155.84 117.42C155.84 117.42 155.82 117.45 155.81 117.47L155.89 117.37C155.89 117.37 155.86 117.41 155.84 117.42L155.94 117.34C155.94 117.34 155.89 117.37 155.87 117.38L155.99 117.33C155.99 117.33 155.94 117.35 155.92 117.35L156.05 117.33C156.05 117.33 156.01 117.33 155.99 117.33L156.12 117.35C156.12 117.35 156.08 117.35 156.07 117.34L156.19 117.39C156.19 117.39 156.17 117.38 156.16 117.37L156.26 117.45C156.26 117.45 156.26 117.45 156.25 117.44C156.2 117.39 156.15 117.36 156.09 117.34C156.03 117.31 155.97 117.29 155.9 117.3C155.78 117.3 155.63 117.35 155.55 117.45C155.47 117.55 155.4 117.67 155.4 117.8C155.4 117.93 155.45 118.07 155.55 118.15L155.56 118.14Z" fill="#000100"/>
<path d="M154.62 108.259C154.62 108.259 154.53 108.249 154.49 108.239C154.5 108.239 154.51 108.239 154.52 108.239L154.4 108.189C154.4 108.189 154.43 108.199 154.44 108.209L154.34 108.129L154.36 108.149L154.28 108.049C154.28 108.049 154.3 108.079 154.31 108.089L154.26 107.969C154.26 107.969 154.27 108.009 154.28 108.029L154.26 107.899C154.26 107.899 154.26 107.949 154.26 107.969L154.28 107.839C154.28 107.839 154.28 107.869 154.27 107.889L154.32 107.769C154.32 107.769 154.31 107.799 154.29 107.809L154.37 107.709C154.37 107.709 154.35 107.729 154.34 107.739L154.44 107.659C154.44 107.659 154.42 107.669 154.41 107.679L154.53 107.629C154.53 107.629 154.5 107.629 154.49 107.639L154.62 107.619C154.62 107.619 154.6 107.619 154.58 107.619L154.71 107.639C154.71 107.639 154.68 107.639 154.67 107.629L154.79 107.679C154.79 107.679 154.77 107.669 154.76 107.659L154.86 107.739C154.86 107.739 154.83 107.719 154.82 107.699L154.9 107.799C154.9 107.799 154.88 107.769 154.87 107.749L154.92 107.869C154.92 107.869 154.9 107.819 154.9 107.799L154.92 107.929C154.92 107.929 154.92 107.889 154.92 107.869L154.9 107.999C154.9 107.999 154.9 107.969 154.91 107.959L154.86 108.079C154.86 108.079 154.87 108.049 154.88 108.039L154.8 108.139C154.8 108.139 154.81 108.119 154.82 108.119L154.72 108.199C154.72 108.199 154.74 108.179 154.76 108.179L154.64 108.229C154.76 108.179 154.87 108.109 154.94 107.999C155 107.889 155.03 107.729 154.99 107.609C154.95 107.489 154.88 107.369 154.76 107.309C154.64 107.249 154.5 107.219 154.37 107.259C154 107.379 153.72 107.649 153.6 108.009C153.49 108.349 153.59 108.759 153.86 108.989C153.99 109.099 154.14 109.199 154.31 109.239C154.48 109.279 154.67 109.289 154.83 109.239C155.03 109.169 155.19 109.049 155.31 108.869C155.4 108.739 155.44 108.559 155.44 108.399C155.44 108.019 155.19 107.629 154.8 107.549C154.67 107.519 154.53 107.529 154.41 107.599C154.31 107.659 154.21 107.779 154.18 107.899C154.15 108.029 154.16 108.169 154.23 108.289C154.3 108.399 154.4 108.489 154.53 108.519C154.55 108.519 154.57 108.529 154.59 108.539L154.47 108.489C154.47 108.489 154.52 108.509 154.54 108.529L154.44 108.449C154.44 108.449 154.48 108.489 154.5 108.509L154.42 108.409C154.42 108.409 154.45 108.459 154.47 108.489L154.42 108.369C154.42 108.369 154.44 108.439 154.45 108.479L154.43 108.349C154.43 108.349 154.43 108.429 154.43 108.469L154.45 108.339C154.45 108.339 154.44 108.409 154.42 108.439L154.47 108.319C154.47 108.319 154.44 108.369 154.42 108.399L154.5 108.299C154.5 108.299 154.46 108.339 154.44 108.359L154.54 108.279C154.54 108.279 154.49 108.309 154.46 108.329L154.58 108.279C154.58 108.279 154.51 108.299 154.48 108.309L154.61 108.289C154.61 108.289 154.52 108.289 154.48 108.289L154.61 108.309C154.61 108.309 154.52 108.289 154.47 108.269L154.59 108.319C154.59 108.319 154.5 108.279 154.47 108.249L154.57 108.329C154.57 108.329 154.51 108.269 154.48 108.239L154.56 108.339C154.56 108.339 154.52 108.279 154.51 108.249L154.56 108.369C154.56 108.369 154.54 108.299 154.53 108.259L154.55 108.389C154.55 108.389 154.55 108.299 154.55 108.259L154.53 108.389C154.53 108.389 154.55 108.299 154.57 108.259L154.52 108.379C154.54 108.329 154.57 108.279 154.6 108.239L154.52 108.339C154.52 108.339 154.59 108.259 154.64 108.219L154.54 108.299C154.54 108.299 154.63 108.239 154.68 108.209L154.56 108.259C154.56 108.259 154.6 108.239 154.63 108.239L154.36 107.279C154.2 107.339 154.07 107.419 153.98 107.569C153.92 107.669 153.89 107.799 153.88 107.919C153.88 108.049 153.91 108.159 153.97 108.279C154.03 108.399 154.11 108.479 154.21 108.539C154.31 108.599 154.44 108.639 154.56 108.639C154.73 108.639 154.88 108.569 155 108.459C155.09 108.379 155.15 108.269 155.18 108.149C155.22 108.019 155.21 107.909 155.18 107.779C155.17 107.719 155.14 107.659 155.11 107.599C155.08 107.539 155.04 107.489 155 107.449C154.96 107.409 154.91 107.369 154.86 107.339C154.75 107.279 154.67 107.269 154.55 107.259C154.43 107.249 154.28 107.329 154.2 107.409C154.11 107.499 154.05 107.639 154.05 107.759C154.05 107.879 154.1 108.019 154.2 108.109L154.3 108.189C154.38 108.239 154.46 108.259 154.55 108.259H154.62Z" fill="#000100"/>
<path d="M146.34 110.869C146.2 110.899 146.04 110.989 145.94 111.099C145.82 111.249 145.73 111.429 145.74 111.629C145.75 111.829 145.85 111.989 146.02 112.089C146.12 112.139 146.22 112.169 146.34 112.179C146.48 112.179 146.64 112.139 146.76 112.069C146.92 111.969 147.03 111.829 147.09 111.649C147.14 111.519 147.14 111.339 147.09 111.199C147.02 111.009 146.91 110.869 146.74 110.759C146.61 110.669 146.44 110.629 146.28 110.619C145.95 110.599 145.63 110.779 145.4 110.999C145.28 111.119 145.21 111.319 145.27 111.489C145.31 111.609 145.37 111.719 145.46 111.799C145.55 111.879 145.66 111.949 145.78 111.979C145.9 112.009 146.03 112.009 146.16 111.979C146.29 111.949 146.39 111.879 146.49 111.799C146.58 111.729 146.64 111.559 146.64 111.449C146.64 111.319 146.59 111.189 146.49 111.099C146.25 110.869 145.91 110.829 145.6 110.949C145.29 111.069 145.09 111.379 145.12 111.709C145.15 112.079 145.39 112.379 145.74 112.499C145.9 112.549 146.07 112.539 146.23 112.509C146.39 112.479 146.54 112.379 146.67 112.279C147.11 111.919 147.09 111.189 146.67 110.809C146.56 110.709 146.42 110.629 146.27 110.589C146.11 110.549 145.96 110.549 145.8 110.579C145.53 110.629 145.3 110.799 145.15 111.019C144.97 111.289 144.98 111.639 145.13 111.919C145.28 112.199 145.55 112.369 145.85 112.409C146.15 112.449 146.44 112.339 146.62 112.119C146.81 111.879 146.91 111.579 146.83 111.279C146.75 110.999 146.52 110.769 146.23 110.689C145.98 110.629 145.7 110.669 145.48 110.799C145.21 110.949 145.05 111.219 145.03 111.529C145.01 111.799 145.15 112.099 145.35 112.279C145.59 112.489 145.88 112.589 146.2 112.549C146.46 112.509 146.72 112.379 146.89 112.169C146.99 112.039 147.07 111.909 147.12 111.749C147.17 111.589 147.16 111.419 147.14 111.249C147.1 110.999 146.96 110.759 146.78 110.579C146.69 110.489 146.58 110.409 146.47 110.349C146.35 110.289 146.22 110.259 146.08 110.299C145.96 110.329 145.84 110.419 145.78 110.529C145.66 110.759 145.71 111.089 145.96 111.209C146.01 111.239 146.06 111.269 146.11 111.299L146.01 111.219C146.06 111.259 146.11 111.309 146.16 111.369L146.08 111.269C146.12 111.329 146.16 111.379 146.18 111.449L146.13 111.329C146.15 111.389 146.17 111.449 146.18 111.509L146.16 111.379C146.16 111.379 146.16 111.479 146.16 111.529L146.18 111.399C146.18 111.449 146.16 111.499 146.14 111.549L146.19 111.429C146.19 111.429 146.14 111.519 146.11 111.569L146.19 111.469C146.19 111.469 146.11 111.559 146.07 111.599L146.17 111.519C146.17 111.519 146.08 111.579 146.03 111.599L146.15 111.549C146.15 111.549 146.06 111.579 146.01 111.589L146.14 111.569C146.14 111.569 146.04 111.569 146 111.569L146.13 111.589C146.13 111.589 146.04 111.569 145.99 111.549L146.11 111.599C146.11 111.599 146.03 111.559 145.99 111.529L146.09 111.609C146.09 111.609 146.02 111.549 145.99 111.509L146.07 111.609C146.07 111.609 146.02 111.539 146 111.489L146.05 111.609C146.05 111.609 146.02 111.539 146.02 111.499L146.04 111.629C146.04 111.629 146.04 111.559 146.04 111.529L146.02 111.659C146.02 111.659 146.03 111.599 146.04 111.569L145.99 111.689C145.99 111.689 146.02 111.629 146.04 111.609L145.96 111.709C145.96 111.709 146 111.659 146.03 111.639L145.93 111.719C145.93 111.719 146 111.669 146.04 111.649L145.92 111.699C145.92 111.699 146.01 111.669 146.06 111.659L145.93 111.679C145.93 111.679 146.02 111.679 146.06 111.679L145.93 111.659C145.93 111.659 146 111.669 146.04 111.689L145.92 111.639C145.92 111.639 145.97 111.659 145.99 111.679L145.89 111.599C145.89 111.599 145.93 111.639 145.95 111.659L145.87 111.559C145.87 111.559 145.9 111.609 145.91 111.629L145.86 111.509C145.86 111.509 145.88 111.559 145.88 111.589L145.86 111.459C145.86 111.459 145.86 111.529 145.86 111.559L145.88 111.429C145.88 111.429 145.86 111.509 145.85 111.539L145.9 111.419C145.9 111.419 145.86 111.489 145.84 111.519L145.92 111.419C145.92 111.419 145.87 111.479 145.84 111.499L145.94 111.419C145.94 111.419 145.89 111.449 145.86 111.459L145.98 111.409C145.98 111.409 145.92 111.429 145.89 111.439L146.02 111.419C146.02 111.419 145.95 111.419 145.91 111.419L146.04 111.439C146.04 111.439 145.96 111.419 145.92 111.409L146.04 111.459C146.04 111.459 145.97 111.419 145.94 111.399L146.04 111.479C146.04 111.479 145.98 111.429 145.95 111.389L146.03 111.489C146.03 111.489 145.99 111.419 145.97 111.389L146.02 111.509C146.02 111.509 145.99 111.439 145.99 111.399L146.01 111.529C146.01 111.529 146.01 111.469 146.01 111.449L145.99 111.579C145.99 111.579 146 111.519 146.01 111.489L145.96 111.609C145.96 111.609 145.99 111.549 146.01 111.519L145.93 111.619C145.93 111.619 145.99 111.559 146.02 111.529L145.92 111.609C145.92 111.609 145.99 111.559 146.03 111.549L145.91 111.599C145.96 111.579 146.01 111.559 146.07 111.559L145.94 111.579C145.94 111.579 146.03 111.579 146.07 111.579L145.94 111.559C145.94 111.559 146.01 111.569 146.05 111.589L145.93 111.539C145.93 111.539 146.01 111.579 146.04 111.609L145.94 111.529C145.94 111.529 145.99 111.579 146.02 111.609L145.94 111.509C145.94 111.509 145.99 111.589 146.01 111.629L145.96 111.509C145.96 111.509 145.99 111.599 146 111.649L145.98 111.519C145.98 111.519 145.98 111.599 145.98 111.649L146 111.519C146 111.519 145.98 111.599 145.97 111.639L146.02 111.519C146.02 111.519 145.98 111.589 145.96 111.619L146.04 111.519C146.04 111.519 145.98 111.579 145.95 111.609L146.05 111.529C146.05 111.529 145.98 111.579 145.94 111.599L146.06 111.549C146.06 111.549 145.98 111.579 145.94 111.589L146.07 111.569C146.07 111.569 145.98 111.569 145.94 111.569L146.07 111.589C146.07 111.589 146.01 111.579 145.98 111.569L146.1 111.619C146.1 111.619 146.04 111.589 146.01 111.569L146.11 111.649C146.11 111.649 146.06 111.609 146.04 111.579L146.12 111.679C146.12 111.679 146.08 111.619 146.06 111.579L146.11 111.699C146.11 111.699 146.09 111.649 146.09 111.619L146.11 111.749C146.11 111.749 146.11 111.699 146.11 111.669L146.09 111.799C146.09 111.799 146.1 111.749 146.11 111.719L146.06 111.839C146.06 111.839 146.08 111.809 146.09 111.789L146.01 111.889C146.01 111.889 146.04 111.849 146.06 111.839L145.96 111.919C145.96 111.919 146.01 111.889 146.04 111.869L145.92 111.919C145.92 111.919 145.99 111.899 146.02 111.889L145.89 111.909C145.89 111.909 145.95 111.909 145.98 111.909L145.85 111.889C145.85 111.889 145.9 111.889 145.92 111.909L145.8 111.859C145.8 111.859 145.84 111.879 145.86 111.899L145.76 111.819C145.76 111.819 145.77 111.829 145.78 111.839V111.129H145.77C145.77 111.129 145.84 111.089 145.87 111.059C145.86 111.059 145.85 111.079 145.83 111.079L145.95 111.029C145.95 111.029 145.91 111.039 145.89 111.049L146.02 111.029C146.02 111.029 145.97 111.029 145.95 111.029L146.08 111.049C146.08 111.049 146.03 111.039 146.01 111.029L146.13 111.079C146.13 111.079 146.09 111.059 146.07 111.039L146.17 111.119C146.17 111.119 146.15 111.099 146.14 111.089L146.22 111.189C146.22 111.189 146.2 111.159 146.19 111.139L146.24 111.259C146.2 111.409 146.15 111.569 146.11 111.729C146.14 111.699 146.17 111.669 146.2 111.649L146.1 111.729C146.15 111.689 146.21 111.649 146.28 111.619L146.16 111.669C146.21 111.649 146.26 111.629 146.32 111.629L146.19 111.649C146.19 111.649 146.27 111.649 146.31 111.649L146.18 111.629C146.18 111.629 146.25 111.649 146.29 111.659L146.17 111.609C146.17 111.609 146.23 111.639 146.26 111.659L146.16 111.579C146.16 111.579 146.21 111.629 146.23 111.649L146.15 111.549C146.15 111.549 146.17 111.589 146.18 111.609L146.13 111.489C146.13 111.489 146.14 111.529 146.15 111.549L146.13 111.419C146.13 111.419 146.13 111.459 146.13 111.479L146.15 111.349C146.15 111.349 146.15 111.389 146.13 111.399L146.18 111.279C146.18 111.279 146.16 111.309 146.15 111.329L146.23 111.229C146.23 111.229 146.2 111.269 146.18 111.279L146.28 111.199C146.28 111.199 146.23 111.229 146.2 111.239L146.32 111.189C146.32 111.189 146.27 111.199 146.25 111.209L146.38 111.189C146.38 111.189 146.34 111.189 146.32 111.189L146.45 111.209C146.45 111.209 146.42 111.209 146.41 111.199L146.53 111.249C146.53 111.249 146.5 111.229 146.48 111.219L146.73 111.649C146.73 111.649 146.73 111.619 146.73 111.599L146.71 111.729C146.71 111.729 146.71 111.689 146.73 111.669L146.68 111.789C146.68 111.789 146.7 111.749 146.71 111.729L146.63 111.829C146.63 111.829 146.66 111.799 146.68 111.779L146.58 111.859C146.58 111.859 146.62 111.829 146.64 111.819L146.52 111.869C146.52 111.869 146.56 111.849 146.59 111.849C146.71 111.829 146.83 111.719 146.89 111.619C146.95 111.509 146.98 111.349 146.94 111.229C146.9 111.109 146.83 110.989 146.71 110.929C146.59 110.859 146.46 110.849 146.32 110.879L146.34 110.869Z" fill="#000100"/>
<path d="M136.89 102.579C136.75 102.779 136.72 103.069 136.8 103.299C136.82 103.369 136.85 103.439 136.89 103.499C136.94 103.579 137 103.649 137.08 103.689C137.18 103.749 137.24 103.749 137.35 103.759C137.49 103.769 137.63 103.729 137.75 103.669C137.99 103.549 138.16 103.269 138.14 102.999C138.13 102.879 138.11 102.799 138.06 102.689C138.03 102.629 137.99 102.579 137.95 102.529C137.86 102.429 137.73 102.349 137.6 102.319L137.72 102.369C137.59 102.309 137.52 102.289 137.38 102.279C137.3 102.279 137.21 102.279 137.13 102.309C136.98 102.349 136.83 102.439 136.73 102.559C136.61 102.699 136.53 102.839 136.51 103.029C136.49 103.219 136.51 103.389 136.62 103.529C136.73 103.679 136.88 103.799 137.07 103.849C137.22 103.889 137.38 103.889 137.53 103.849C137.81 103.779 138.07 103.559 138.13 103.269C138.14 103.209 138.15 103.149 138.15 103.089C138.15 102.909 138.05 102.749 137.9 102.659C137.79 102.589 137.68 102.569 137.55 102.549C137.4 102.539 137.22 102.589 137.09 102.669C136.76 102.879 136.59 103.279 136.75 103.649C136.89 103.979 137.21 104.149 137.55 104.169C137.89 104.189 138.21 103.999 138.38 103.709C138.57 103.379 138.56 102.969 138.38 102.639C138.31 102.509 138.2 102.379 138.08 102.289C138 102.229 137.93 102.169 137.84 102.119C137.75 102.069 137.66 102.029 137.56 101.989C137.45 101.939 137.27 101.989 137.17 102.039C137.07 102.099 136.97 102.219 136.94 102.339C136.91 102.469 136.92 102.609 136.99 102.729L137.07 102.829C137.13 102.889 137.21 102.929 137.29 102.959H137.31C137.31 102.959 137.23 102.929 137.19 102.919C137.29 102.959 137.38 103.009 137.46 103.079L137.36 102.999C137.42 103.049 137.48 103.099 137.53 103.169L137.45 103.069C137.45 103.069 137.52 103.169 137.54 103.229L137.49 103.109C137.49 103.109 137.52 103.209 137.53 103.259L137.51 103.129C137.51 103.179 137.51 103.229 137.51 103.279L137.53 103.149C137.53 103.149 137.51 103.239 137.49 103.279L137.54 103.159C137.54 103.159 137.5 103.229 137.48 103.269L137.56 103.169C137.56 103.169 137.51 103.229 137.47 103.259L137.57 103.179C137.57 103.179 137.52 103.209 137.49 103.229L137.61 103.179C137.61 103.179 137.53 103.199 137.49 103.209L137.62 103.189C137.62 103.189 137.54 103.189 137.5 103.189L137.63 103.209C137.63 103.209 137.55 103.189 137.51 103.179L137.63 103.229C137.63 103.229 137.57 103.199 137.54 103.179L137.64 103.259C137.64 103.259 137.6 103.219 137.58 103.199L137.66 103.299C137.66 103.299 137.63 103.259 137.62 103.239L137.67 103.359C137.67 103.359 137.66 103.319 137.65 103.299L137.67 103.429C137.67 103.429 137.67 103.389 137.67 103.369L137.65 103.499C137.65 103.499 137.66 103.449 137.67 103.429L137.62 103.549C137.62 103.549 137.64 103.499 137.66 103.479L137.58 103.579C137.58 103.579 137.63 103.529 137.65 103.509L137.55 103.589C137.55 103.589 137.6 103.559 137.63 103.539L137.51 103.589C137.51 103.589 137.56 103.569 137.58 103.569L137.45 103.589C137.45 103.589 137.5 103.589 137.53 103.589L137.4 103.569C137.4 103.569 137.44 103.569 137.46 103.589L137.34 103.539C137.34 103.539 137.36 103.549 137.37 103.559L137.12 103.129C137.12 103.129 137.12 103.149 137.12 103.159L137.14 103.029C137.14 103.029 137.14 103.069 137.12 103.089L137.17 102.969C137.17 102.969 137.15 103.009 137.14 103.019L137.22 102.919C137.22 102.919 137.19 102.959 137.17 102.969L137.27 102.889C137.27 102.889 137.21 102.929 137.18 102.939L137.3 102.889C137.3 102.889 137.23 102.919 137.19 102.919L137.32 102.899C137.32 102.899 137.24 102.899 137.21 102.899L137.34 102.919C137.34 102.919 137.29 102.909 137.27 102.899L137.39 102.949C137.39 102.949 137.34 102.929 137.32 102.909L137.42 102.989C137.42 102.989 137.39 102.969 137.38 102.949L137.46 103.049C137.46 103.049 137.44 103.019 137.43 102.999L137.48 103.119C137.48 103.119 137.47 103.079 137.46 103.059L137.48 103.189C137.48 103.189 137.48 103.139 137.48 103.119L137.46 103.249C137.46 103.249 137.47 103.199 137.48 103.179L137.43 103.299C137.43 103.299 137.46 103.239 137.48 103.209L137.4 103.309C137.4 103.309 137.45 103.259 137.47 103.239L137.37 103.319C137.37 103.319 137.43 103.279 137.46 103.269L137.34 103.319C137.34 103.319 137.4 103.299 137.43 103.299L137.3 103.319C137.3 103.319 137.35 103.319 137.38 103.319L137.25 103.299C137.25 103.299 137.29 103.299 137.31 103.319L137.19 103.269C137.24 103.289 137.3 103.319 137.35 103.339L137.23 103.289C137.23 103.289 137.27 103.309 137.28 103.319L137.18 103.239C137.18 103.239 137.22 103.269 137.23 103.289L137.15 103.189C137.15 103.189 137.17 103.219 137.18 103.239L137.13 103.119C137.13 103.119 137.14 103.159 137.15 103.179L137.13 103.049C137.13 103.049 137.13 103.089 137.13 103.109L137.15 102.979C137.15 102.979 137.15 103.019 137.14 103.039L137.19 102.919C137.19 102.919 137.17 102.949 137.16 102.969L137.24 102.869C137.24 102.869 137.21 102.899 137.2 102.909L137.3 102.829C137.3 102.829 137.26 102.859 137.23 102.869L137.35 102.819C137.35 102.819 137.31 102.829 137.29 102.839L137.42 102.819C137.42 102.819 137.37 102.819 137.34 102.819L137.47 102.839H137.45C137.55 102.909 137.65 102.989 137.75 103.069C137.73 103.049 137.72 103.019 137.71 102.999L137.76 103.119C137.76 103.119 137.74 103.059 137.73 103.019L137.75 103.149C137.75 103.149 137.75 103.079 137.75 103.049L137.73 103.179C137.73 103.179 137.74 103.109 137.76 103.079L137.71 103.199C137.71 103.199 137.73 103.159 137.74 103.139C137.81 103.039 137.82 102.869 137.79 102.749C137.76 102.629 137.67 102.509 137.56 102.449C137.44 102.389 137.3 102.359 137.17 102.399C137.04 102.439 136.95 102.519 136.87 102.629L136.89 102.579Z" fill="#000100"/>
<path d="M128.42 97.5599C128.31 97.6899 128.22 97.8199 128.18 97.9899C128.14 98.1399 128.13 98.3299 128.18 98.4799C128.22 98.6199 128.31 98.7699 128.42 98.8599C128.52 98.9499 128.59 98.9899 128.72 99.0299C128.74 99.0299 128.75 99.0399 128.77 99.0499C128.83 99.0599 128.9 99.0699 128.96 99.0699C129.15 99.0699 129.33 98.9899 129.47 98.8699C129.52 98.8199 129.56 98.7699 129.6 98.7099C129.63 98.6599 129.65 98.6099 129.67 98.5599C129.67 98.5399 129.68 98.5299 129.68 98.5099C129.7 98.3899 129.71 98.2999 129.68 98.1799C129.65 98.0699 129.59 97.9699 129.52 97.8899C129.4 97.7599 129.22 97.6899 129.05 97.6899C128.99 97.6899 128.93 97.6999 128.88 97.7099C128.86 97.7099 128.85 97.7099 128.83 97.7199C128.72 97.7599 128.64 97.7999 128.55 97.8799C128.38 98.0399 128.32 98.2799 128.37 98.4999C128.39 98.5799 128.44 98.6599 128.5 98.7199C128.55 98.7699 128.6 98.7999 128.66 98.8199C128.72 98.8499 128.78 98.8699 128.85 98.8599C128.94 98.8599 129.02 98.8399 129.1 98.7899C129.15 98.7599 129.19 98.7199 129.23 98.6799C129.27 98.6399 129.3 98.5999 129.33 98.5499C129.37 98.4899 129.4 98.4199 129.42 98.3599C129.47 98.2199 129.46 98.0699 129.44 97.9199C129.42 97.8199 129.38 97.7199 129.32 97.6399C129.26 97.5499 129.22 97.5099 129.13 97.4399C129.1 97.4199 129.07 97.3899 129.04 97.3799C128.99 97.3499 128.93 97.3299 128.88 97.3099C128.81 97.2899 128.75 97.2899 128.68 97.3099C128.61 97.3099 128.55 97.3299 128.49 97.3699C128.39 97.4299 128.29 97.5499 128.26 97.6699C128.23 97.7999 128.24 97.9399 128.31 98.0599L128.39 98.1599C128.45 98.2199 128.53 98.2599 128.61 98.2899C128.61 98.2899 128.62 98.2899 128.63 98.2899L128.51 98.2399C128.51 98.2399 128.55 98.2599 128.57 98.2799L128.47 98.1999C128.47 98.1999 128.51 98.2299 128.52 98.2499L128.44 98.1499C128.44 98.1499 128.47 98.1999 128.48 98.2199L128.43 98.0999C128.43 98.0999 128.45 98.1599 128.46 98.1999L128.44 98.0699C128.44 98.0699 128.44 98.1299 128.44 98.1599L128.46 98.0299C128.46 98.0299 128.45 98.0899 128.44 98.1099L128.49 97.9899C128.49 97.9899 128.47 98.0399 128.45 98.0599L128.53 97.9599C128.53 97.9599 128.5 97.9899 128.48 98.0099L128.58 97.9299C128.82 98.0299 129.07 98.1299 129.31 98.2299C129.31 98.2299 129.31 98.2199 129.31 98.2099L129.33 98.3399C129.33 98.3399 129.33 98.3199 129.33 98.3099L129.31 98.4399C129.31 98.4399 129.31 98.4199 129.31 98.4099L129.26 98.5299C129.26 98.5299 129.27 98.5099 129.28 98.4999L129.2 98.5999C129.2 98.5999 129.22 98.5799 129.23 98.5699L129.13 98.6499C129.13 98.6499 129.16 98.6299 129.18 98.6199L129.06 98.6699C129.06 98.6699 129.1 98.6599 129.12 98.6499L128.99 98.6699C128.99 98.6699 129.02 98.6699 129.04 98.6699L128.91 98.6499C128.91 98.6499 128.94 98.6499 128.96 98.6599L128.84 98.6099C128.84 98.6099 128.86 98.6199 128.87 98.6299L128.77 98.5499C128.77 98.5499 128.79 98.5599 128.79 98.5699L128.71 98.4699C128.71 98.4699 128.73 98.4899 128.73 98.5099L128.68 98.3899C128.68 98.3899 128.68 98.4199 128.69 98.4299L128.67 98.2999C128.67 98.2999 128.67 98.3299 128.67 98.3499L128.69 98.2199C128.69 98.2199 128.69 98.2599 128.67 98.2799L128.72 98.1599C128.72 98.1599 128.7 98.1999 128.69 98.2099L128.77 98.1099C128.77 98.1099 128.74 98.1399 128.73 98.1599L128.83 98.0799C128.83 98.0799 128.79 98.0999 128.77 98.1099L128.89 98.0599C128.89 98.0599 128.85 98.0699 128.83 98.0699L128.96 98.0499C128.96 98.0499 128.92 98.0499 128.89 98.0499L129.02 98.0699C129.02 98.0699 128.97 98.0599 128.95 98.0499L129.07 98.0999C129.07 98.0999 129.02 98.0699 128.99 98.0599L129.09 98.1399C129.09 98.1399 129.05 98.0999 129.03 98.0799L129.11 98.1799C129.11 98.1799 129.08 98.1299 129.07 98.0999L129.12 98.2199C129.12 98.2199 129.1 98.1699 129.1 98.1399L129.12 98.2699C129.12 98.2699 129.12 98.1999 129.12 98.1599L129.1 98.2899C129.1 98.2899 129.12 98.2099 129.13 98.1699L129.08 98.2899C129.08 98.2899 129.13 98.1999 129.16 98.1599L129.08 98.2599C129.08 98.2599 129.09 98.2499 129.1 98.2399C129.15 98.1899 129.18 98.1399 129.2 98.0799C129.23 98.0199 129.25 97.9599 129.24 97.8899C129.24 97.7699 129.19 97.6199 129.09 97.5399C128.99 97.4599 128.87 97.3899 128.74 97.3899C128.61 97.3899 128.47 97.4399 128.39 97.5399L128.42 97.5599Z" fill="#000100"/>
<path d="M134.78 111.84C134.72 111.86 134.67 111.88 134.61 111.91C134.59 111.91 134.58 111.93 134.56 111.94C134.54 111.96 134.51 111.98 134.49 111.99C134.47 112 134.44 112.02 134.42 112.04C134.41 112.05 134.39 112.07 134.38 112.08C134.33 112.14 134.28 112.2 134.25 112.27C134.23 112.32 134.2 112.38 134.19 112.43C134.19 112.43 134.19 112.45 134.19 112.46C134.19 112.51 134.17 112.56 134.17 112.62C134.17 112.71 134.19 112.79 134.24 112.87C134.28 112.95 134.34 113 134.42 113.05C134.47 113.08 134.53 113.1 134.58 113.12C134.58 113.12 134.59 113.12 134.6 113.12C134.65 113.13 134.7 113.14 134.76 113.14C134.78 113.14 134.79 113.14 134.81 113.14C134.87 113.14 134.93 113.13 134.99 113.11C135.05 113.1 135.11 113.06 135.15 113.04C135.17 113.04 135.18 113.02 135.2 113.02C135.25 112.99 135.3 112.95 135.34 112.91C135.34 112.91 135.35 112.9 135.36 112.89C135.39 112.85 135.42 112.81 135.45 112.77C135.45 112.76 135.47 112.74 135.47 112.73C135.49 112.69 135.52 112.62 135.53 112.57C135.53 112.52 135.55 112.45 135.55 112.39C135.55 112.34 135.55 112.27 135.52 112.21C135.48 112.09 135.43 112.01 135.34 111.91C135.3 111.87 135.24 111.83 135.2 111.8C135.19 111.79 135.17 111.78 135.15 111.77C135.09 111.74 135.04 111.71 134.97 111.7C134.9 111.69 134.85 111.68 134.78 111.67C134.65 111.67 134.53 111.7 134.42 111.76C134.36 111.79 134.31 111.83 134.28 111.89C134.24 111.94 134.21 111.99 134.19 112.06C134.17 112.13 134.17 112.19 134.19 112.26C134.19 112.33 134.21 112.39 134.25 112.45L134.33 112.55C134.39 112.61 134.47 112.65 134.55 112.68L134.68 112.7C134.77 112.7 134.85 112.68 134.93 112.63C134.93 112.63 134.93 112.63 134.94 112.63L134.82 112.68C134.82 112.68 134.86 112.67 134.88 112.66L134.75 112.68C134.75 112.68 134.79 112.68 134.81 112.68L134.68 112.66C134.68 112.66 134.73 112.67 134.75 112.68L134.63 112.63C134.63 112.63 134.67 112.65 134.69 112.67L134.59 112.59C134.59 112.59 134.63 112.62 134.64 112.64L134.56 112.54C134.56 112.54 134.58 112.57 134.59 112.59L134.54 112.47C134.54 112.47 134.55 112.5 134.55 112.52L134.53 112.39C134.53 112.39 134.53 112.42 134.53 112.44L134.55 112.31C134.55 112.31 134.55 112.34 134.54 112.36L134.59 112.24C134.59 112.24 134.57 112.27 134.56 112.29L134.64 112.19C134.64 112.19 134.61 112.22 134.59 112.24L134.69 112.16C134.69 112.16 134.65 112.19 134.62 112.2L134.74 112.15C134.74 112.15 134.69 112.17 134.66 112.17L134.79 112.15C134.79 112.15 134.75 112.15 134.72 112.15L134.85 112.17C134.85 112.17 134.81 112.17 134.79 112.15L134.91 112.2C134.91 112.2 134.89 112.2 134.88 112.18L135.13 112.61C135.13 112.61 135.13 112.6 135.13 112.59L135.11 112.72C135.11 112.72 135.12 112.67 135.13 112.64L135.08 112.76C135.08 112.76 135.11 112.71 135.12 112.69L135.04 112.79C135.04 112.79 135.08 112.74 135.1 112.73L135 112.81C135 112.81 135.05 112.78 135.07 112.77L134.95 112.82C134.95 112.82 134.98 112.82 134.99 112.81C135.06 112.79 135.11 112.76 135.16 112.72C135.21 112.68 135.26 112.64 135.29 112.58C135.33 112.52 135.35 112.46 135.35 112.39C135.36 112.32 135.36 112.26 135.35 112.19L135.3 112.07C135.26 111.99 135.2 111.94 135.12 111.89L135 111.84C134.91 111.82 134.82 111.82 134.73 111.84H134.78Z" fill="#000100"/>
<path d="M128.06 105.43C128.02 105.57 128.04 105.73 128.11 105.86C128.18 105.99 128.3 106.07 128.44 106.12C128.6 106.18 128.79 106.15 128.94 106.07C129.17 105.95 129.27 105.69 129.21 105.44C129.17 105.25 129 105.12 128.82 105.06C128.71 105.03 128.57 105.03 128.46 105.07C128.33 105.12 128.22 105.19 128.14 105.3C128.06 105.41 128 105.54 128 105.68C128 105.94 128.17 106.16 128.4 106.26C128.63 106.36 128.92 106.33 129.1 106.14C129.3 105.94 129.31 105.62 129.18 105.38C129.09 105.2 128.93 105.09 128.75 105.02C128.57 104.95 128.34 104.98 128.17 105.07C127.87 105.24 127.71 105.64 127.83 105.97C127.9 106.16 128.02 106.32 128.2 106.41C128.35 106.49 128.52 106.53 128.69 106.51C128.8 106.5 128.88 106.48 128.99 106.44C129.1 106.4 129.16 106.35 129.25 106.28C129.37 106.18 129.45 106.04 129.5 105.89C129.59 105.64 129.55 105.32 129.41 105.1C129.24 104.84 128.95 104.67 128.62 104.68C128.35 104.68 128.06 104.8 127.89 105.01C127.8 105.12 127.77 105.18 127.72 105.31C127.69 105.38 127.68 105.47 127.67 105.55C127.66 105.63 127.67 105.71 127.69 105.79C127.71 105.87 127.74 105.95 127.78 106.02C127.86 106.17 127.98 106.28 128.12 106.37C128.26 106.46 128.43 106.51 128.6 106.52C128.89 106.54 129.19 106.34 129.31 106.08C129.37 105.94 129.41 105.81 129.41 105.66C129.41 105.59 129.4 105.51 129.39 105.44C129.39 105.41 129.38 105.37 129.36 105.34C129.31 105.2 129.25 105.08 129.14 104.97C129.03 104.86 128.91 104.79 128.77 104.75C128.61 104.7 128.44 104.71 128.28 104.74C128.16 104.77 128.04 104.82 127.94 104.9C127.81 105 127.69 105.11 127.61 105.25C127.53 105.39 127.49 105.55 127.47 105.72C127.45 106 127.59 106.29 127.79 106.48C127.97 106.65 128.2 106.78 128.44 106.81C128.52 106.82 128.61 106.84 128.69 106.83C128.77 106.82 128.86 106.81 128.94 106.8C129.06 106.78 129.18 106.67 129.24 106.57C129.3 106.46 129.33 106.3 129.29 106.18C129.25 106.06 129.18 105.94 129.06 105.88C128.93 105.81 128.81 105.8 128.67 105.83C128.66 105.83 128.64 105.83 128.63 105.83L128.76 105.81C128.7 105.81 128.63 105.81 128.57 105.81L128.7 105.83C128.63 105.82 128.56 105.8 128.49 105.77L128.61 105.82C128.55 105.79 128.5 105.76 128.45 105.73L128.55 105.81C128.55 105.81 128.47 105.74 128.43 105.69L128.51 105.79C128.51 105.79 128.45 105.71 128.43 105.66L128.48 105.78C128.48 105.78 128.45 105.7 128.45 105.66L128.47 105.79C128.47 105.79 128.47 105.71 128.47 105.68L128.45 105.81C128.45 105.81 128.47 105.73 128.48 105.69L128.43 105.81C128.43 105.81 128.48 105.72 128.51 105.67L128.43 105.77C128.43 105.77 128.5 105.7 128.53 105.67L128.43 105.75C128.43 105.75 128.51 105.7 128.55 105.68L128.43 105.73C128.43 105.73 128.52 105.7 128.57 105.69L128.44 105.71C128.44 105.71 128.52 105.71 128.56 105.71L128.43 105.69C128.43 105.69 128.5 105.7 128.53 105.72L128.41 105.67C128.41 105.67 128.46 105.7 128.49 105.72L128.39 105.64C128.39 105.64 128.44 105.68 128.46 105.71L128.38 105.61C128.38 105.61 128.42 105.67 128.43 105.71L128.38 105.59C128.38 105.59 128.41 105.67 128.41 105.72L128.39 105.59C128.39 105.59 128.39 105.68 128.39 105.72L128.41 105.59C128.41 105.59 128.4 105.66 128.38 105.69L128.43 105.57C128.43 105.57 128.4 105.63 128.38 105.65L128.46 105.55C128.46 105.55 128.42 105.59 128.4 105.61L128.5 105.53C128.5 105.53 128.46 105.56 128.43 105.57L128.55 105.52C128.55 105.52 128.53 105.52 128.52 105.53L128.65 105.51C128.65 105.51 128.58 105.51 128.54 105.51L128.67 105.53C128.67 105.53 128.59 105.51 128.56 105.5L128.68 105.55C128.68 105.55 128.61 105.51 128.58 105.49L128.68 105.57C128.68 105.57 128.61 105.51 128.59 105.48L128.67 105.58C128.67 105.58 128.63 105.51 128.61 105.48L128.66 105.6C128.66 105.6 128.64 105.54 128.63 105.5L128.65 105.63C128.65 105.63 128.65 105.56 128.65 105.53L128.63 105.66C128.63 105.66 128.64 105.6 128.66 105.57L128.61 105.69C128.61 105.69 128.64 105.64 128.66 105.61L128.58 105.71C128.58 105.71 128.63 105.65 128.66 105.63L128.56 105.71C128.56 105.71 128.63 105.66 128.67 105.64L128.55 105.69C128.55 105.69 128.63 105.66 128.68 105.65L128.55 105.67C128.55 105.67 128.64 105.67 128.68 105.67L128.55 105.65C128.55 105.65 128.62 105.66 128.65 105.68L128.53 105.63C128.53 105.63 128.59 105.66 128.62 105.68L128.52 105.6C128.52 105.6 128.56 105.64 128.58 105.66L128.5 105.56C128.5 105.56 128.54 105.62 128.55 105.65L128.5 105.53C128.5 105.53 128.53 105.61 128.53 105.65L128.51 105.52C128.51 105.52 128.51 105.6 128.51 105.64L128.53 105.51C128.53 105.51 128.52 105.59 128.5 105.62L128.55 105.5C128.55 105.5 128.52 105.56 128.5 105.59L128.58 105.49C128.58 105.49 128.53 105.54 128.51 105.56L128.61 105.48C128.61 105.48 128.55 105.52 128.52 105.53L128.64 105.48C128.64 105.48 128.57 105.5 128.54 105.51L128.67 105.49C128.67 105.49 128.59 105.49 128.55 105.49L128.68 105.51C128.68 105.51 128.62 105.5 128.59 105.49L128.71 105.54C128.71 105.54 128.66 105.51 128.63 105.5L128.73 105.58C128.73 105.58 128.7 105.55 128.68 105.53L128.76 105.63C128.76 105.63 128.74 105.59 128.73 105.58L128.78 105.7C128.78 105.7 128.76 105.65 128.76 105.63L128.78 105.76C128.78 105.76 128.78 105.71 128.78 105.68L128.76 105.81C128.76 105.81 128.77 105.75 128.78 105.73L128.73 105.85C128.73 105.85 128.75 105.81 128.76 105.8L128.68 105.9C128.68 105.9 128.71 105.87 128.72 105.86L128.62 105.94C128.62 105.94 128.65 105.92 128.66 105.91L128.54 105.96C128.54 105.96 128.57 105.95 128.59 105.94L128.46 105.96C128.46 105.96 128.5 105.96 128.53 105.96L128.4 105.94C128.4 105.94 128.44 105.95 128.46 105.96L128.34 105.91C128.34 105.91 128.38 105.93 128.4 105.94L128.3 105.86C128.3 105.86 128.33 105.89 128.35 105.91L128.27 105.81C128.27 105.81 128.29 105.84 128.3 105.86L128.25 105.74C128.25 105.74 128.26 105.77 128.26 105.79L128.24 105.66C128.24 105.66 128.24 105.69 128.24 105.71L128.26 105.58C128.26 105.58 128.26 105.6 128.25 105.62L128.3 105.5C128.3 105.5 128.35 105.44 128.38 105.41C128.38 105.41 128.45 105.37 128.48 105.34C128.48 105.34 128.47 105.34 128.46 105.35L128.58 105.3C128.58 105.3 128.56 105.3 128.55 105.31L128.68 105.29C128.68 105.29 128.65 105.29 128.63 105.29L128.76 105.31C128.76 105.31 128.73 105.31 128.71 105.3L128.83 105.35C128.83 105.35 128.8 105.33 128.79 105.32L128.89 105.4C128.89 105.4 128.87 105.38 128.87 105.37L128.95 105.47C128.95 105.47 128.95 105.46 128.94 105.45L128.99 105.57C128.99 105.57 128.99 105.55 128.99 105.54L129.01 105.67C129.01 105.67 129.01 105.65 129.01 105.64L128.99 105.77C128.99 105.77 128.99 105.75 129 105.73L128.95 105.85C128.95 105.85 128.96 105.83 128.97 105.82L128.89 105.92C128.89 105.92 128.91 105.9 128.92 105.89L128.82 105.97C128.82 105.97 128.84 105.96 128.85 105.95L128.73 106C128.73 106 128.76 105.99 128.78 105.99L128.65 106.01C128.65 106.01 128.68 106.01 128.69 106.01L128.56 105.99C128.56 105.99 128.58 105.99 128.59 105.99L128.47 105.94H128.48C128.42 105.89 128.36 105.83 128.3 105.77C128.3 105.77 128.27 105.7 128.25 105.66C128.25 105.66 128.25 105.66 128.25 105.67L128.23 105.54C128.23 105.54 128.23 105.54 128.23 105.55L128.25 105.42C128.25 105.42 128.25 105.42 128.25 105.43L128.3 105.31C128.3 105.31 128.3 105.31 128.3 105.32L128.38 105.22L128.48 105.14C128.48 105.14 128.46 105.15 128.45 105.15L128.57 105.1C128.57 105.1 128.54 105.1 128.53 105.1L128.66 105.08C128.66 105.08 128.63 105.08 128.62 105.08L128.75 105.1C128.75 105.1 128.73 105.1 128.71 105.1L128.83 105.15C128.83 105.15 128.83 105.15 128.82 105.15L128.92 105.23C128.92 105.23 128.92 105.23 128.91 105.22L128.99 105.32C128.99 105.32 129.02 105.39 129.04 105.43C129.04 105.43 129.04 105.43 129.04 105.42L129.06 105.55C129.06 105.55 129.06 105.55 129.06 105.54L129.04 105.67C129.04 105.67 129.04 105.66 129.04 105.65C129.07 105.52 129.06 105.38 128.99 105.26C128.93 105.16 128.81 105.06 128.69 105.03C128.56 105 128.42 105.01 128.3 105.08C128.18 105.15 128.1 105.25 128.07 105.38L128.06 105.43Z" fill="#000100"/>
<path d="M121.7 40.2503C125.7 38.5903 130.7 39.2603 134 42.1103C134.48 42.5303 135.19 41.8203 134.71 41.4003C131.16 38.3303 125.78 37.4803 121.44 39.2803C120.85 39.5203 121.11 40.4903 121.71 40.2403L121.7 40.2503Z" fill="#000100"/>
<path d="M134 42.1096C137.14 45.1996 138.8 49.9596 138.09 54.3296C137.99 54.9596 138.95 55.2296 139.05 54.5996C139.83 49.8696 138.12 44.7696 134.71 41.4096C134.25 40.9596 133.54 41.6596 134 42.1196V42.1096Z" fill="#000100"/>
<path d="M121.31 39.3302C119.73 40.2202 118.1 41.2602 116.81 42.5502C115.87 43.4902 115.45 44.7602 115.18 46.0402C114.48 49.4002 115.73 52.5302 118.18 54.8702C120.63 57.2102 123.89 58.7902 127.08 60.0102C127.68 60.2402 127.94 59.2802 127.35 59.0502C124.56 57.9702 121.74 56.6502 119.46 54.6702C118.13 53.5202 116.95 52.1102 116.37 50.4202C115.96 49.2102 115.87 47.9102 116.09 46.6502C116.25 45.6902 116.51 44.4802 117.12 43.7002C117.87 42.7402 118.97 42.0002 119.98 41.3302C120.58 40.9302 121.2 40.5402 121.83 40.1802C122.39 39.8602 121.89 39.0002 121.33 39.3202L121.31 39.3302Z" fill="#000100"/>
<path d="M146.19 53.5194L146.26 52.7394C149.07 36.6994 134.56 33.6894 134.56 33.6894C123.62 30.4694 116.51 35.8294 113.02 39.6894C111.12 41.7894 109.76 44.2894 109.39 47.0094C107.79 58.8094 123.51 62.8794 123.51 62.8794" stroke="#000100" stroke-miterlimit="10"/>
<path d="M134.02 275.369C134.72 273.469 135.5 271.059 138.92 268.189C140.57 266.809 142.44 264.999 144.3 263.859C149.75 260.519 152.1 258.919 156.27 256.799C161.09 254.349 165.92 251.909 170.74 249.459L172.19 248.729C174.75 247.429 178.64 244.929 178.71 241.899" stroke="#000100" stroke-miterlimit="10"/>
<path d="M85.2398 309.64C82.4398 309.49 79.6898 308.99 77.0998 307.98C70.7698 305.51 65.7498 299.28 66.9498 293.01C69.0198 282.26 83.7798 280.18 92.6498 276.58C97.6398 274.55 102.48 271.61 105.08 267.17C105.28 266.83 105.47 266.46 105.42 266.08C105.36 265.64 105 265.3 104.67 265C85.1098 247.2 71.4598 225.36 71.4598 199.35C71.8698 173.85 85.4198 151.44 101.43 131.51C101.69 131.19 101.95 130.85 102.02 130.46C102.28 129.06 99.7198 125.85 99.0498 124.58C97.7198 122.04 96.2998 119.42 95.3798 116.72C93.6898 111.76 92.7298 106.58 92.4898 101.38C91.9998 90.9898 94.3798 80.4398 99.6098 71.2198C100.9 68.9498 102.45 66.8298 103.97 64.6798C104.07 64.5398 104.18 64.3798 104.19 64.2098C104.19 63.9998 104.06 63.8098 103.92 63.6398C102.62 61.9898 99.6498 58.9498 99.6498 56.8198C98.4498 53.7198 97.9898 50.3898 98.1498 47.1098C98.4498 40.7598 101.14 34.3398 105.98 29.7898C111.46 24.6298 120.62 22.1198 128.38 22.3198C132.11 22.4198 135.8 23.0798 139.37 24.0798C142.08 24.8398 142.66 26.6898 145.41 27.5098C149.91 28.8698 151.81 25.9798 154.9 23.7598C157.11 22.1698 159.74 21.1598 162.45 20.5598C166.89 19.5698 172.94 18.8898 176.76 15.9098C185.12 9.35981 188.44 1.23981 201.06 0.539807C207.88 0.159807 214.59 2.41981 219.64 6.65981C222.11 8.72981 224.15 11.2198 225.66 13.9698C226.79 16.0198 227.1 21.2098 228.9 22.6398C229.28 22.9498 229.78 23.0998 230.26 23.2398C235.93 24.9398 239.68 26.2398 244.38 29.7898C249.02 33.2898 254.08 38.2598 256.73 43.2698C259.61 48.6998 259.67 55.1598 260.87 61.0098C262.36 68.2398 270.79 69.1398 276.85 72.2698C288.66 78.3698 299.45 86.1498 308.78 95.2198C315.9 102.15 323.84 109.41 328.12 118.37C334.14 130.99 324.09 142.1 314.36 150.01C301.72 160.3 288.84 170.32 276.26 180.69C271.18 184.88 265.77 189.63 264.95 195.88C264.2 201.58 267.47 206.97 269.57 212.38C274.26 224.51 272.93 238.52 266.01 249.71C261.93 256.3 255.96 261.84 248.94 265.76C245.36 267.76 241.5 269.35 237.48 270.44C233.65 271.47 229.1 271.4 225.74 273.54C222.64 275.51 220.72 278.72 217.97 281.07C214.87 283.72 211.21 285.86 207.41 287.55C199.83 290.92 191.37 292.53 182.99 292.67C169.1 292.92 155.76 289.14 142.49 285.84C141.9 285.69 141.3 285.55 140.69 285.62C137.7 285.98 134.99 289.28 132.97 291.22C127.36 296.59 120.85 300.21 113.87 303.47C109.5 305.51 104.97 307.34 100.22 308.29C97.8698 308.76 95.4798 308.95 93.1098 309.23C90.5098 309.54 87.8898 309.77 85.2698 309.63L85.2398 309.64Z" stroke="#000100" stroke-miterlimit="10"/>
<path d="M184.16 178.28L184.77 177.65L199.21 158.01" stroke="#000100" stroke-miterlimit="10"/>
<path d="M214.19 59.8799L220.45 61.3999L219.04 63.9399" fill="#E3B778"/>
<path d="M220.56 61.2002L218.88 64.4502" stroke="#231F20" stroke-miterlimit="10"/>
</g>
<defs>
<clipPath id="clip0_694_1154">
<rect width="337.76" height="310.18" fill="white"/>
</clipPath>
</defs>
</svg>
