<svg width="204" height="143" viewBox="0 0 204 143" fill="none" xmlns="http://www.w3.org/2000/svg">
<g clip-path="url(#clip0_131_2)">
<path d="M29.28 81.64L46.65 93.15L63.94 104.61L66.05 105.41L64.64 106.36L60.47 109.49L57.09 107.5L54.03 107.92L50.54 111.6L46.96 123.13L43.77 126.8L40.41 130.26L33.44 133.06L25.81 132.29L18.64 130.26L10.99 123.56L9.07999 113.47L13.23 107.16L17.11 103.61L26.18 99.56L32.02 93.86L31.71 89.32L28.72 86.63L26.81 83.7L29.28 81.64Z" fill="#81644E"/>
<path d="M47.85 62L82.04 90.2L66.62 105.47L39.37 88.32L29.95 80.77C29.95 80.77 38.06 72.22 38.31 72.01" fill="#C08E66"/>
<path d="M73.25 40.52L67.56 44.79C67.56 44.79 57.72 54.09 57.08 53.75C56.44 53.41 48.3 60.49 48.3 60.49L52.23 65.34L59.99 71.4L83.03 89.17L108.36 68.96L96.18 58.35L92.13 53.74L90.77 52.64L85.43 51.71L83.89 51.19L84.55 48.78C83.63 48.41 83.03 47.52 83.03 46.54V45.3L80.97 43.73L79.53 41.47L78.34 41.21L77.16 40.5V38.86H75.47L73.27 40.5L73.25 40.52Z" fill="#ECF4DB"/>
<path d="M104.55 24.2L126.31 16.45L137.73 14.28L139.85 13.89L141.86 15.17L142.02 17.22L143.94 17.97L146.36 17.19L148.81 16.64L150.73 17.17L150.91 18.46H152.1L152.35 19.22L154.96 18.46L157.72 20.27L159.6 23.02L163.83 22.22L165.17 23.73L166.03 24.83L169.88 23.59L169.61 26.57L173.27 25.32L179.52 24.18L182.86 24.71L184.34 26.5L187.23 27.03L184.77 29.03L174.96 31.95L155.65 39.14L138.25 48.02L127.35 55.44L113.64 65.42L107.92 69.23L107.47 67.33L104.01 66.88V65.42L102.58 64.57L101.45 62.44L98.6 61.66V59.07L95.73 58.62L95.38 58.1L94.46 56.16L92.33 55.44L91.69 54.01L90.32 52.91L90.62 51.59H86.51L83.44 51.46L84.1 49.05L82.59 45.57L80.52 44.01L79.08 41.75L77.14 40.71V38.1L82.94 34.51L104.55 24.2Z" fill="url(#paint0_linear_131_2)"/>
<path d="M65.8 104.98C64.8 105.58 64.01 106.37 63.16 107.16C62.48 107.8 61.4 108.94 60.37 108.65C58.57 108.15 57.37 106.45 55.33 106.84C50.68 107.73 49.5 113.65 48.35 117.4C46.96 121.92 45.12 126.42 41.1 129.21C37.97 131.39 34.14 132.3 30.36 132.27C26.58 132.24 22.56 131.24 19.11 129.42C15.41 127.47 12 124.49 10.68 120.41C9.24001 115.95 10.18 110.56 13.4 107.09C16.81 103.4 21.88 102 26.14 99.59C29.13 97.9 33.39 95.11 32.97 91.12C32.74 88.92 31.17 87.15 29.43 85.92C28.91 85.55 28.36 85.28 27.82 84.95C27.37 84.68 27.03 84.24 27.24 83.69C27.42 83.2 28.05 82.77 28.41 82.42L29.52 81.33L28.91 81.41C30.13 82.22 31.35 83.03 32.57 83.83C35.5 85.77 38.43 87.71 41.35 89.65L52.04 96.73L61.24 102.83L64.29 104.85C64.76 105.16 65.23 105.53 65.72 105.8C65.74 105.81 65.76 105.83 65.79 105.84C66.33 106.2 66.83 105.33 66.29 104.98C65.07 104.17 63.85 103.36 62.63 102.56C59.7 100.62 56.77 98.68 53.85 96.74L43.16 89.66L33.96 83.56L30.91 81.54C30.44 81.23 29.97 80.85 29.48 80.59C29.46 80.58 29.44 80.56 29.41 80.55C29.23 80.43 28.96 80.48 28.8 80.63L27.56 81.85C27.17 82.24 26.66 82.63 26.39 83.12C25.94 83.95 26.21 84.98 26.92 85.57C27.41 85.97 28.04 86.21 28.57 86.56C29.14 86.93 29.67 87.36 30.15 87.84C31.65 89.34 32.5 91.42 31.55 93.45C30.69 95.3 28.92 96.66 27.26 97.74C23.06 100.47 18.01 101.8 14.13 105.02C10.52 108.01 8.74 112.55 9.03 117.21C9.2 119.79 10.04 122.33 11.55 124.43C12.71 126.05 14.2 127.42 15.81 128.59C19.01 130.9 22.83 132.39 26.73 132.99C30.63 133.59 34.63 133.34 38.26 131.86C42.26 130.24 45.29 127.24 47.16 123.37C48.35 120.91 49.1 118.27 49.9 115.66C50.57 113.46 51.25 111.11 52.86 109.39C53.61 108.59 54.55 107.98 55.65 107.8C56.62 107.64 57.46 108.25 58.25 108.73C59.04 109.21 59.84 109.73 60.75 109.73C61.81 109.73 62.83 108.79 63.57 108.12C64.45 107.33 65.23 106.47 66.26 105.86C66.81 105.53 66.31 104.66 65.76 105L65.8 104.98Z" fill="#231F20"/>
<path d="M29.18 80.97L47.85 61.41L82.54 90.02L66.05 105.41" stroke="#231F20" stroke-miterlimit="10"/>
<path d="M47.85 61.41C46.45 60.25 75.81 38.63 75.81 38.63H77.14V41.24L79.51 41.5L80.17 43.76L83.01 45.33V48.2L84.53 48.81L83.87 51.94L86.51 51.6H90.61L90.5 53.24L92.11 53.41V54.98L94.95 55.94L95.37 58.11L99.02 59.33V61.94H101.11L101.87 64.64L104.43 65.07V66.9L107.46 67.35L107.84 69.86L82.54 90.04" stroke="#231F20" stroke-miterlimit="10"/>
<path d="M77.14 41.23C77.14 41.23 56.77 55.8 54.49 58.36" stroke="#231F20" stroke-miterlimit="10" stroke-linecap="round"/>
<path d="M80.17 43.75C80.17 43.75 58.3 58.81 57.07 60.8" stroke="#231F20" stroke-miterlimit="10" stroke-linecap="round"/>
<path d="M83.02 45.3199C83.02 45.3199 61.03 60.7099 60.94 62.1899" stroke="#231F20" stroke-miterlimit="10" stroke-linecap="round"/>
<path d="M83.02 48.1899C83.02 48.1899 66.06 60.9899 65.11 62.1899" stroke="#231F20" stroke-miterlimit="10" stroke-linecap="round"/>
<path d="M83.87 51.9301C83.87 51.9301 66.81 65.3201 66.62 66.6301" stroke="#231F20" stroke-miterlimit="10" stroke-linecap="round"/>
<path d="M90.62 51.59C90.62 51.59 70.31 66.54 69.27 68.97" stroke="#231F20" stroke-miterlimit="10" stroke-linecap="round"/>
<path d="M92.11 54.97C92.11 54.97 73.14 69.84 71.97 71.41" stroke="#231F20" stroke-miterlimit="10" stroke-linecap="round"/>
<path d="M94.44 55.9299C95.28 55.2499 78.19 69.8999 78.19 69.8299" stroke="#231F20" stroke-miterlimit="10" stroke-linecap="round"/>
<path d="M95.92 58.84C96.66 58.27 78.75 73.58 79.87 72.8" stroke="#231F20" stroke-miterlimit="10" stroke-linecap="round"/>
<path d="M99.03 61.9301C99.03 61.9301 85.64 73.3201 79.86 77.7301" stroke="#231F20" stroke-miterlimit="10" stroke-linecap="round"/>
<path d="M101.88 64.62C101.88 64.62 83.87 79.47 82.55 80.97" stroke="#231F20" stroke-miterlimit="10" stroke-linecap="round"/>
<path d="M104.43 66.88C104.43 66.88 86.33 81.68 84.72 83.4" stroke="#231F20" stroke-miterlimit="10" stroke-linecap="round"/>
<path d="M75.7 39.3199C82.56 35.1999 89.69 31.5499 96.98 28.2499C104.27 24.9499 111.91 21.9499 119.54 19.2399C123.88 17.6999 128.28 16.0999 132.9 15.6599C133.54 15.5999 133.54 14.5999 132.9 14.6599C128.8 15.0499 124.9 16.3099 121.03 17.6599C117.16 19.0099 113.36 20.4099 109.56 21.8899C101.96 24.8599 94.47 28.1299 87.19 31.8299C83.12 33.8999 79.12 36.0999 75.2 38.4499C74.65 38.7799 75.15 39.6499 75.7 39.3099V39.3199Z" fill="#231F20"/>
<path d="M130.76 15.9401C132.44 15.5801 134.07 15.6201 135.77 15.5901C136.42 15.5801 137.01 15.4801 137.62 15.2601C138.47 14.9601 139.39 14.4801 140.32 14.6901C141.25 14.9001 141.27 15.8901 141.48 16.6801C141.67 17.4001 142.08 17.9901 142.79 18.2801C143.5 18.5701 144.34 18.4801 145.1 18.3401C146.17 18.1401 147.23 17.8501 148.29 17.6001C148.78 17.4901 149.3 17.3101 149.81 17.3401C150.52 17.3701 150.54 17.8901 150.7 18.4501C150.92 19.2501 151.6 19.9501 152.48 19.6901C153.1 19.5101 152.83 18.5401 152.21 18.7301C151.69 18.8801 151.62 17.9601 151.53 17.6601C151.42 17.2901 151.25 16.9601 150.94 16.7101C150.33 16.2301 149.49 16.3201 148.78 16.4601C147.68 16.6901 146.59 16.9701 145.49 17.2201C144.74 17.3901 143.73 17.6901 143 17.2801C142.27 16.8701 142.37 15.8101 142.13 15.1301C141.89 14.4501 141.32 13.9001 140.57 13.7201C138.92 13.3301 137.54 14.5201 135.93 14.5801C134.08 14.6501 132.31 14.5801 130.47 14.9701C129.84 15.1001 130.11 16.0701 130.74 15.9301L130.76 15.9401Z" fill="#231F20"/>
<path d="M151.93 19.6799C153.34 19.2099 155.32 18.5299 156.6 19.6799C157.11 20.1399 157.14 20.8199 157.27 21.4499C157.41 22.1199 157.68 22.7299 158.25 23.1399C159.32 23.9099 160.73 23.7299 161.91 23.3699C162.6 23.1599 163.66 22.5699 164.38 22.8099C164.84 22.9599 164.73 23.2199 164.58 23.5699C164.47 23.8399 164.44 24.1099 164.53 24.3899C164.96 25.7599 166.65 25.5099 167.62 24.9699C168.16 24.6699 168.97 23.9299 169.65 24.1599C169.82 24.2199 170.03 24.2899 169.94 24.4999C169.86 24.6699 169.67 24.5999 169.51 24.6099C169.2 24.6299 168.9 24.6499 168.64 24.8299C167.73 25.4399 168.31 26.7999 169.19 27.0999C169.77 27.2999 170.41 27.1499 170.96 26.9199C171.75 26.5899 172.5 26.1699 173.31 25.8699C174.8 25.3099 176.36 24.9599 177.95 24.8299C178.71 24.7699 179.48 24.7499 180.25 24.7899C180.83 24.8199 182.07 24.7499 182.5 25.2599C182.7 25.4999 182.67 25.8799 182.8 26.1599C182.9 26.3799 183.02 26.5499 183.21 26.6999C183.65 27.0499 184.23 27.1299 184.77 27.1699C185.09 27.1899 186.43 27.1499 186.31 27.7499C186.21 28.2999 185 28.4999 184.58 28.6199C178.05 30.4099 171.61 32.4799 165.26 34.8299C158.18 37.4599 151.24 40.4299 144.45 43.7499C143.87 44.0299 144.38 44.8999 144.95 44.6099C157.74 38.3699 171.11 33.3399 184.84 29.5799C185.8 29.3199 187.52 28.8099 187.3 27.4799C187.08 26.1499 185.49 26.2699 184.5 26.1299C184.18 26.0899 183.85 26.0199 183.69 25.7099C183.56 25.4599 183.59 25.1499 183.46 24.8899C183.16 24.3199 182.53 24.0599 181.92 23.9399C180.35 23.6399 178.66 23.6999 177.08 23.9099C175.5 24.1199 173.86 24.5399 172.34 25.1799C171.65 25.4699 170.99 25.9099 170.27 26.1099C169.96 26.1999 169.41 26.2999 169.25 25.9099C169.07 25.4999 169.6 25.6199 169.87 25.5999C171.18 25.4799 171.37 23.8299 170.22 23.2999C169.67 23.0399 169.03 23.1299 168.48 23.3499C167.73 23.6599 166.96 24.4899 166.11 24.4399C165.93 24.4399 165.72 24.3899 165.61 24.2299C165.44 23.9999 165.61 23.8699 165.7 23.6399C165.82 23.3499 165.83 23.0499 165.72 22.7499C165.47 22.0999 164.78 21.7799 164.12 21.7699C162.44 21.7499 160.56 23.4299 158.92 22.3599C158.21 21.8899 158.28 20.9799 158.08 20.2399C157.88 19.4999 157.45 18.9499 156.81 18.5699C155.21 17.6199 153.32 18.1499 151.69 18.6899C151.08 18.8899 151.34 19.8599 151.96 19.6499L151.93 19.6799Z" fill="#231F20"/>
<path d="M107.85 69.84C107.85 69.84 139.65 45.59 146.79 43.26" stroke="#231F20" stroke-miterlimit="10" stroke-linecap="round"/>
<path d="M34.0099 142.07C18.4599 142.31 2.42986 133.31 0.649858 117.11C-0.230142 109.07 2.78986 101.08 8.73986 95.7202C11.4199 93.3102 14.7399 91.6302 17.8699 89.8002C20.5299 88.2402 18.1199 81.1502 19.3599 77.9402C21.1599 73.3002 25.1399 69.5702 28.9099 66.2402C43.3899 53.4702 56.5299 39.5402 72.1799 27.9202C89.8299 14.8102 110.37 9.20023 131.07 1.98023L131.3 1.90023C135.05 1.12023 138.9 0.490229 142.76 0.510229C147.52 0.530229 150.93 2.52023 155.48 3.56023C158.91 4.34023 162.47 4.89023 165.66 6.33023C170.44 8.48023 175.69 10.6002 181.29 10.7502C186.37 10.8802 191.11 10.7502 195.16 14.1602C196.59 14.7302 197.87 15.5102 199.01 16.4902C203.25 20.1402 204.34 26.0102 201.97 30.8502C199.35 36.2002 192.38 38.2402 186.7 39.8502C175.54 43.0002 164.88 47.2202 154.55 52.2602C153.96 52.5502 153.34 52.8002 152.7 53.0002C147.45 54.6402 141.6 60.5902 137.17 63.6002C122.69 73.4102 109.06 83.8202 95.4999 94.6902C88.5899 100.23 83.2999 107 76.8699 112.96C76.7399 113.08 76.6099 113.21 76.4799 113.34C73.8999 115.84 71.0499 117.94 67.2799 118.59C66.3499 118.75 65.3699 118.83 64.5699 119.29C62.8899 120.25 62.2299 124.76 61.4199 126.4C56.2099 136.95 45.2299 141.92 34.0099 142.09V142.07Z" stroke="#231F20" stroke-miterlimit="10" stroke-linecap="round"/>
</g>
<defs>
<linearGradient id="paint0_linear_131_2" x1="77.14" y1="41.56" x2="187.23" y2="41.56" gradientUnits="userSpaceOnUse">
<stop stop-color="#FFF33B"/>
<stop offset="0.04" stop-color="#FEE62D"/>
<stop offset="0.12" stop-color="#FDD51B"/>
<stop offset="0.2" stop-color="#FDCA0F"/>
<stop offset="0.28" stop-color="#FDC70C"/>
<stop offset="0.67" stop-color="#F3903F"/>
<stop offset="0.83" stop-color="#ED683C"/>
<stop offset="0.94" stop-color="#E93E3A"/>
<stop offset="1" stop-color="#E93E3A"/>
</linearGradient>
<clipPath id="clip0_131_2">
<rect width="203.72" height="142.58" fill="white"/>
</clipPath>
</defs>
</svg>
