<svg width="404" height="577" viewBox="0 0 404 577" fill="none" xmlns="http://www.w3.org/2000/svg">
<g clip-path="url(#clip0_63_2)">
<path d="M39.3992 0H330.189V11.2333L39.5533 12.1249L39.3992 0Z" fill="#F3C6C7"/>
<path d="M39.4213 12.0039L50.1835 22.4667H320.115L330.167 11.1177L39.4213 12.0039Z" fill="#E085A1"/>
<path d="M50.1835 22.4667H319.983L320.115 331.92L49.8917 332.487L50.1835 22.4667Z" fill="#EDA5B4"/>
<path d="M320.115 40.3541L58.2647 39.4019L50.2054 22.4667H320.115V40.3541Z" fill="#EB9AAA"/>
<path d="M302.037 40.3541H68.2783V316.707H302.037V40.3541Z" fill="#827DAA"/>
<path d="M301.899 51.8186H75.8808L67.6893 40.3541H301.899V51.8186Z" fill="#F5C0CD"/>
<path d="M301.899 304.995H75.8808L67.6893 316.454H301.899V304.995Z" fill="#F5C0CD"/>
<path d="M68.2783 316.454L76.734 305.391V51.3398L68.2783 40.6128V316.454Z" fill="#EE94B3"/>
<path d="M336.96 411.406H32.6281L49.9357 330.654H320.511L336.96 411.406Z" fill="#F5C0CD"/>
<path d="M337.483 411.406H32.0996V441.391H337.483V411.406Z" fill="#EDA5B4"/>
<path d="M319.829 441.391H49.7595V551.572H319.829V441.391Z" fill="#EE94B3"/>
<path d="M319.774 551.572H49.2531L38.9973 560.654H329.281L319.774 551.572Z" fill="#DF86A2"/>
<path d="M329.281 560.654H38.9973V577H329.281V560.654Z" fill="#EDA5B4"/>
<path d="M284.982 466.912H222.06V526.244H284.982V466.912Z" fill="#E385A2"/>
<path d="M284.977 526.244H222.06L231.958 513.045H275.943L284.977 526.244Z" fill="#CC718D"/>
<path d="M222.06 468.602C222.994 468.602 223.75 467.846 223.75 466.912C223.75 465.979 222.994 465.223 222.06 465.223C221.127 465.223 220.37 465.979 220.37 466.912C220.37 467.846 221.127 468.602 222.06 468.602Z" fill="#F5C0CD"/>
<path d="M222.06 527.933C222.994 527.933 223.75 527.177 223.75 526.244C223.75 525.31 222.994 524.554 222.06 524.554C221.127 524.554 220.37 525.31 220.37 526.244C220.37 527.177 221.127 527.933 222.06 527.933Z" fill="#F5C0CD"/>
<path d="M319.95 453.94H58.7382L50.3706 441.391H319.95V453.94Z" fill="#EB8AAE"/>
<path d="M280.501 392.363H226.53V351.53H272.04L280.501 392.363Z" fill="#EB8AAE"/>
<path d="M272.684 354.618H226.53V351.53H272.018L272.684 354.618Z" fill="#E392A7"/>
<path d="M251.005 375.934C257.092 375.934 262.026 372.553 262.026 368.383C262.026 364.212 257.092 360.831 251.005 360.831C244.919 360.831 239.984 364.212 239.984 368.383C239.984 372.553 244.919 375.934 251.005 375.934Z" fill="#F5C0CD"/>
<path d="M239.984 369.335L240.32 372.406C240.32 372.406 241.862 378.328 251.005 378.499C251.005 378.499 259.516 378.499 261.635 372.621L261.988 368.944C261.988 368.944 260.804 375.62 251 375.928C251 375.928 241.762 376.127 239.979 369.329L239.984 369.335Z" fill="#D37FA1"/>
<path d="M182.237 381.592C197.436 381.592 209.757 373.147 209.757 362.73C209.757 352.313 197.436 343.869 182.237 343.869C167.039 343.869 154.718 352.313 154.718 362.73C154.718 373.147 167.039 381.592 182.237 381.592Z" fill="#F5C0CD"/>
<path d="M154.712 365.113L155.554 372.78C155.554 372.78 159.402 387.564 182.237 388.004C182.237 388.004 203.486 388.004 208.793 373.331L209.674 364.145C209.674 364.145 206.718 380.821 182.237 381.592C182.237 381.592 159.171 382.093 154.718 365.119L154.712 365.113Z" fill="#D37FA1"/>
<path d="M78.5892 372.422H60.8577L66.5718 343.869H82.3271L78.5892 372.422Z" fill="#F7E2D4"/>
<path d="M70.9923 348.42H75.2531L72.6603 367.865H67.937L70.9923 348.42Z" fill="#E385A2"/>
<path d="M101.22 382.847H58.3969V386.028H101.22V382.847Z" fill="#E385A2"/>
<path d="M101.22 391.014H57.1913L58.3969 387.833H101.22V391.014Z" fill="#E385A2"/>
<path d="M101.22 396.425H56.1233L57.5106 393.243H101.22V396.425Z" fill="#E385A2"/>
<path d="M85.9879 51.8186H284.013L281.894 59.3478H89.1588L85.9879 51.8186Z" fill="#BABCBA"/>
<path d="M104.364 68.3356H272.684L104.364 203.119V68.3356Z" fill="#8E86B2"/>
<path d="M301.899 316.454L293.443 305.391V51.3398L301.899 40.6128V316.454Z" fill="#EE94B3"/>
</g>
<defs>
<clipPath id="clip0_63_2">
<rect width="404" height="577" fill="white"/>
</clipPath>
</defs>
</svg>
