<svg width="6" height="41" viewBox="0 0 6 41" fill="none" xmlns="http://www.w3.org/2000/svg">
<path d="M5.80487 0H0V40.8451H5.80487V0Z" fill="#BABCBA"/>
<path d="M5.80487 3.97394H0V5.44825H5.80487V3.97394Z" fill="#DFDFDE"/>
<path d="M5.80487 8.5845H0V10.0588H5.80487V8.5845Z" fill="#DFDFDE"/>
<path d="M5.80487 13.1951H0V14.6694H5.80487V13.1951Z" fill="#DFDFDE"/>
<path d="M5.80487 17.0886H0V18.5629H5.80487V17.0886Z" fill="#DFDFDE"/>
<path d="M5.80487 21.2502H0V22.7245H5.80487V21.2502Z" fill="#DFDFDE"/>
<path d="M5.80487 25.8473H0V27.3216H5.80487V25.8473Z" fill="#DFDFDE"/>
<path d="M5.80487 29.647H0V31.1213H5.80487V29.647Z" fill="#DFDFDE"/>
<path d="M5.80487 34.1772H0V35.6515H5.80487V34.1772Z" fill="#DFDFDE"/>
<path d="M5.80487 38.6336H0V40.1079H5.80487V38.6336Z" fill="#DFDFDE"/>
</svg>
