<svg width="28" height="58" viewBox="0 0 28 58" fill="none" xmlns="http://www.w3.org/2000/svg">
<path d="M27.0788 53.3034C26.4513 55.8296 24.6346 58.2678 19.8178 57.5468C19.1902 57.4533 18.5846 57.2551 18.0176 56.9854C14.4504 55.2682 1.08429 47.728 0.0108166 30.7156C0.0108166 30.7156 -0.80942 16.4387 11.8355 6.09148C13.3934 4.81459 21.2105 -0.314982 22.9776 0.0152483C25.3062 0.455555 21.4638 6.88403 22.0363 9.40479L25.7962 9.79556C26.2806 11.9365 21.8161 14.072 20.1095 15.5306C16.9607 18.2274 12.3475 23.4451 12.6393 30.7376C12.6558 31.1119 12.7108 31.4752 12.7989 31.8384C13.3494 34.084 15.8101 41.8994 24.2933 46.9685C26.5173 48.3004 27.6899 50.8487 27.0843 53.2979L27.0788 53.3034Z" fill="#BABCBA"/>
</svg>
