<svg width="28" height="58" viewBox="0 0 28 58" fill="none" xmlns="http://www.w3.org/2000/svg">
<path d="M0.163967 53.3034C0.791536 55.8296 2.60818 58.2678 7.42505 57.5468C8.05261 57.4533 8.65816 57.2551 9.22517 56.9854C12.7924 55.2682 26.1585 47.728 27.232 30.7156C27.232 30.7156 28.0522 16.4387 15.4073 6.09148C13.8494 4.81459 6.03229 -0.314982 4.26519 0.0152483C1.93658 0.455555 5.77906 6.88403 5.20654 9.40479L1.44662 9.79556C0.962183 11.9365 5.42674 14.072 7.13328 15.5306C10.2821 18.2274 14.8953 23.4451 14.6036 30.7376C14.587 31.1119 14.532 31.4752 14.4439 31.8384C13.8934 34.084 11.4327 41.8994 2.94949 46.9685C0.725475 48.3004 -0.447092 50.8487 0.158457 53.2979L0.163967 53.3034Z" fill="#BABCBA"/>
</svg>
