<svg width="1510" height="981" viewBox="0 0 1510 981" fill="none" xmlns="http://www.w3.org/2000/svg">
<g clip-path="url(#clip0_156_82)">
<rect width="1510" height="981" fill="white"/>
<path d="M-0.781738 980.638L-0.239901 0H1510V980.638H-0.781738Z" fill="#C6E8F1"/>
<path d="M43.0112 980.362L43.5178 0.113281" stroke="#E3F0D7" stroke-width="0.9" stroke-miterlimit="10"/>
<path d="M84.1208 980.378L84.6274 0.129395" stroke="#E3F0D7" stroke-width="0.9" stroke-miterlimit="10"/>
<path d="M122.565 980.394L123.072 0.145264" stroke="#E3F0D7" stroke-width="0.9" stroke-miterlimit="10"/>
<path d="M163.675 980.41L164.181 0.161621" stroke="#E3F0D7" stroke-width="0.9" stroke-miterlimit="10"/>
<path d="M202.11 980.426L202.617 0.177979" stroke="#E3F0D7" stroke-width="0.9" stroke-miterlimit="10"/>
<path d="M243.229 980.442L243.735 0.202148" stroke="#E3F0D7" stroke-width="0.9" stroke-miterlimit="10"/>
<path d="M281.664 980.467L282.171 0.218506" stroke="#E3F0D7" stroke-width="0.9" stroke-miterlimit="10"/>
<path d="M322.783 980.483L323.289 0.234619" stroke="#E3F0D7" stroke-width="0.9" stroke-miterlimit="10"/>
<path d="M363.901 980.499L364.408 0.250488" stroke="#E3F0D7" stroke-width="0.9" stroke-miterlimit="10"/>
<path d="M405.011 980.515L405.517 0.266602" stroke="#E3F0D7" stroke-width="0.9" stroke-miterlimit="10"/>
<path d="M443.455 980.531L443.962 0.282959" stroke="#E3F0D7" stroke-width="0.9" stroke-miterlimit="10"/>
<path d="M484.565 980.555L485.071 0.306885" stroke="#E3F0D7" stroke-width="0.9" stroke-miterlimit="10"/>
<path d="M528.025 980.572L528.532 0.323242" stroke="#E3F0D7" stroke-width="0.9" stroke-miterlimit="10"/>
<path d="M569.144 980.588L569.65 0.339355" stroke="#E3F0D7" stroke-width="0.9" stroke-miterlimit="10"/>
<path d="M607.579 980.604L608.086 0.355469" stroke="#E3F0D7" stroke-width="0.9" stroke-miterlimit="10"/>
<path d="M648.698 980.62L649.204 0.379883" stroke="#E3F0D7" stroke-width="0.9" stroke-miterlimit="10"/>
<path d="M689.807 980.644L690.314 0.395996" stroke="#E3F0D7" stroke-width="0.9" stroke-miterlimit="10"/>
<path d="M730.926 980.66L731.432 0.412109" stroke="#E3F0D7" stroke-width="0.9" stroke-miterlimit="10"/>
<path d="M769.361 980.677L769.868 0.428467" stroke="#E3F0D7" stroke-width="0.9" stroke-miterlimit="10"/>
<path d="M810.479 980.693L810.986 0.44458" stroke="#E3F0D7" stroke-width="0.9" stroke-miterlimit="10"/>
<path d="M851.598 980.717L852.105 0.46875" stroke="#E3F0D7" stroke-width="0.9" stroke-miterlimit="10"/>
<path d="M892.708 980.733L893.215 0.484863" stroke="#E3F0D7" stroke-width="0.9" stroke-miterlimit="10"/>
<path d="M931.152 980.749L931.65 0.500977" stroke="#E3F0D7" stroke-width="0.9" stroke-miterlimit="10"/>
<path d="M972.262 980.765L972.768 0.51709" stroke="#E3F0D7" stroke-width="0.9" stroke-miterlimit="10"/>
<path d="M1013.38 980.781L1013.89 0.533203" stroke="#E3F0D7" stroke-width="0.9" stroke-miterlimit="10"/>
<path d="M1054.5 980.806L1055.01 0.557617" stroke="#E3F0D7" stroke-width="0.9" stroke-miterlimit="10"/>
<path d="M1092.93 980.822L1093.44 0.57373" stroke="#E3F0D7" stroke-width="0.9" stroke-miterlimit="10"/>
<path d="M1134.04 980.838L1134.55 0.590088" stroke="#E3F0D7" stroke-width="0.9" stroke-miterlimit="10"/>
<path d="M1174.23 980.854L1174.73 0.606201" stroke="#E3F0D7" stroke-width="0.9" stroke-miterlimit="10"/>
<path d="M1215.35 980.871L1215.85 0.622314" stroke="#E3F0D7" stroke-width="0.9" stroke-miterlimit="10"/>
<path d="M1253.78 980.887L1254.29 0.638428" stroke="#E3F0D7" stroke-width="0.9" stroke-miterlimit="10"/>
<path d="M1294.9 980.911L1295.41 0.662598" stroke="#E3F0D7" stroke-width="0.9" stroke-miterlimit="10"/>
<path d="M1336.02 980.927L1336.52 0.678711" stroke="#E3F0D7" stroke-width="0.9" stroke-miterlimit="10"/>
<path d="M1377.13 980.943L1377.63 0.694824" stroke="#E3F0D7" stroke-width="0.9" stroke-miterlimit="10"/>
<path d="M1415.57 980.959L1416.08 0.711182" stroke="#E3F0D7" stroke-width="0.9" stroke-miterlimit="10"/>
<path d="M1456.68 980.976L1457.19 0.727295" stroke="#E3F0D7" stroke-width="0.9" stroke-miterlimit="10"/>
<path d="M1497.8 981L1498.31 0.751709" stroke="#E3F0D7" stroke-width="0.9" stroke-miterlimit="10"/>
<path d="M-0.720459 945.323L1509.69 945.954" stroke="#E3F0D7" stroke-width="0.9" stroke-miterlimit="10"/>
<path d="M-0.938965 875.078L1509.98 875.709" stroke="#E3F0D7" stroke-width="0.9" stroke-miterlimit="10"/>
<path d="M-1 910.099L1509.7 910.73" stroke="#E3F0D7" stroke-width="0.9" stroke-miterlimit="10"/>
<path d="M-0.904053 805.292L1509.83 805.924" stroke="#E3F0D7" stroke-width="0.9" stroke-miterlimit="10"/>
<path d="M-0.93042 840.314L1509.83 840.945" stroke="#E3F0D7" stroke-width="0.9" stroke-miterlimit="10"/>
<path d="M-0.921631 735.047L1509.82 735.678" stroke="#E3F0D7" stroke-width="0.9" stroke-miterlimit="10"/>
<path d="M-0.868896 770.069L1509.79 770.7" stroke="#E3F0D7" stroke-width="0.9" stroke-miterlimit="10"/>
<path d="M-0.868896 665.504L1509.86 666.143" stroke="#E3F0D7" stroke-width="0.9" stroke-miterlimit="10"/>
<path d="M-0.912842 700.526L1509.83 701.165" stroke="#E3F0D7" stroke-width="0.9" stroke-miterlimit="10"/>
<path d="M-0.781738 595.258L1509.8 595.889" stroke="#E3F0D7" stroke-width="0.9" stroke-miterlimit="10"/>
<path d="M-0.825439 630.28L1509.8 630.911" stroke="#E3F0D7" stroke-width="0.9" stroke-miterlimit="10"/>
<path d="M-0.799072 525.473L1509.72 526.113" stroke="#E3F0D7" stroke-width="0.9" stroke-miterlimit="10"/>
<path d="M-0.877686 560.495L1509.84 561.134" stroke="#E3F0D7" stroke-width="0.9" stroke-miterlimit="10"/>
<path d="M-0.781738 455.228L1509.75 455.859" stroke="#E3F0D7" stroke-width="0.9" stroke-miterlimit="10"/>
<path d="M-0.825439 490.249L1509.74 490.881" stroke="#E3F0D7" stroke-width="0.9" stroke-miterlimit="10"/>
<path d="M-0.711914 384.828L1509.79 385.459" stroke="#E3F0D7" stroke-width="0.9" stroke-miterlimit="10"/>
<path d="M-0.772949 419.85L1509.77 420.481" stroke="#E3F0D7" stroke-width="0.9" stroke-miterlimit="10"/>
<path d="M-0.76416 314.574L1509.83 315.213" stroke="#E3F0D7" stroke-width="0.9" stroke-miterlimit="10"/>
<path d="M-0.772949 349.596L1509.81 350.235" stroke="#E3F0D7" stroke-width="0.9" stroke-miterlimit="10"/>
<path d="M-0.746826 244.797L1509.87 245.428" stroke="#E3F0D7" stroke-width="0.9" stroke-miterlimit="10"/>
<path d="M-0.738037 279.819L1509.85 280.45" stroke="#E3F0D7" stroke-width="0.9" stroke-miterlimit="10"/>
<path d="M-0.668213 174.543L1509.9 175.183" stroke="#E3F0D7" stroke-width="0.9" stroke-miterlimit="10"/>
<path d="M-0.755371 209.565L1509.89 210.204" stroke="#E3F0D7" stroke-width="0.9" stroke-miterlimit="10"/>
<path d="M-0.606689 105.009L1509.95 105.64" stroke="#E3F0D7" stroke-width="0.9" stroke-miterlimit="10"/>
<path d="M-0.5979 140.031L1509.92 140.662" stroke="#E3F0D7" stroke-width="0.9" stroke-miterlimit="10"/>
<path d="M-0.589355 34.7632L1509.98 35.3943" stroke="#E3F0D7" stroke-width="0.9" stroke-miterlimit="10"/>
<path d="M-0.571777 69.7849L1509.97 70.416" stroke="#E3F0D7" stroke-width="0.9" stroke-miterlimit="10"/>
<path d="M-0.580566 0L1510 0.631087" stroke="#E3F0D7" stroke-width="0.9" stroke-miterlimit="10"/>
<path d="M-0.738037 980.345L1509.47 980.976" stroke="#E3F0D7" stroke-width="0.9" stroke-miterlimit="10"/>
</g>
<defs>
<clipPath id="clip0_156_82">
<rect width="1510" height="981" fill="white"/>
</clipPath>
</defs>
</svg>
